<svg width="244" height="64" viewBox="0 0 244 64" fill="none" xmlns="http://www.w3.org/2000/svg">
<rect width="244" height="64" rx="5.81818" fill="#007AFF"/>
<g clip-path="url(#clip0_6_24)">
<path d="M30.1149 28.1918C37.1932 23.2342 47.0587 28.0719 48.1862 36.512C49.5 46.3471 38.343 53.715 30.1161 47.9944L30.115 49.3146H24.0865C24.2084 46.3906 24.6508 43.0751 26.9944 41.0668C27.9423 40.2545 29.0355 39.8498 30.223 39.5225C31.5089 44.5618 38.1207 46.0236 41.2281 41.7116C45.6664 35.5529 37.2821 28.5056 31.9241 33.6932C30.9865 34.601 30.5701 35.8017 30.0653 36.9678C26.1298 36.2019 24.5811 32.9376 24.1976 29.2355C23.6912 24.3468 24.3506 19.2907 24.081 14.3794C24.0571 14.2668 24.1602 14 24.251 14H29.9505C29.9622 14 30.115 14.1534 30.115 14.165L30.1149 28.1918Z" fill="white"/>
<path d="M71.1077 39.9633C72.3269 45.3918 79.6608 46.0134 82.8905 42.0554L86.8894 45.2986C79.7773 54.4972 64.5128 49.3379 65.294 37.2635C65.9193 27.5981 77.2432 22.5799 84.4814 29.0153C87.2339 31.4626 88.953 36.0187 88.3165 39.6887C88.3007 39.7803 88.2273 39.9633 88.1517 39.9633L71.1077 39.9633ZM82.3973 35.5628C81.0674 30.2382 72.9043 30.4906 71.3269 35.5628H82.3973Z" fill="white"/>
<path d="M155.834 39.9634H138.735C139.636 44.101 144.131 45.4937 147.798 44.0538C148.914 43.6153 149.63 42.92 150.518 42.1596L154.393 45.1516C154.633 45.5661 152.849 47.1572 152.488 47.4414C147.511 51.3664 139.801 50.6639 135.669 45.8462C130.688 40.0387 132.677 30.2258 139.758 27.1826C148.545 23.406 157.319 30.7354 155.834 39.9634ZM150.025 35.5628C148.685 30.2412 140.529 30.483 138.955 35.5628H150.025Z" fill="white"/>
<path d="M112.649 39.9634H95.5502C96.5359 45.3074 104.249 46.0687 107.222 42.0546C107.682 42.4649 111.255 45.0969 111.209 45.3884C111.163 45.6907 109.632 47.1774 109.303 47.4419C104.872 51.0146 97.868 50.7483 93.6291 47.0073C86.3383 40.5728 89.6892 27.8145 99.4714 26.3519C107.654 25.1284 113.815 31.9585 112.649 39.9634ZM106.84 35.5628C105.478 30.2427 97.3096 30.4751 95.7694 35.5628H106.84Z" fill="white"/>
<path d="M132.05 26.6516V32.0973L122.02 43.263L121.856 43.5938H131.885C131.897 43.5938 132.05 43.7472 132.05 43.7588V49.3146H113.855V43.8689L124.267 32.3724H114.019C114.008 32.3724 113.855 32.219 113.855 32.2073V26.8166C113.855 26.805 114.008 26.6516 114.019 26.6516H132.05Z" fill="white"/>
<path d="M65.6273 26.2116V31.9324C62.8541 31.9893 58.3767 31.9794 57.293 35.1736C57.2102 35.4179 56.9684 36.302 56.9684 36.4979V49.3146H51.0496V26.6517H56.9684V28.1919C57.5318 27.954 57.9794 27.555 58.5389 27.2929C60.6925 26.284 63.291 26.2257 65.6273 26.2116Z" fill="white"/>
</g>
<mask id="path-8-inside-1_6_24" fill="white">
<path d="M180 0H244V64H180V0Z"/>
</mask>
<path d="M181 64V0H179V64H181Z" fill="white" fill-opacity="0.25" mask="url(#path-8-inside-1_6_24)"/>
<path fill-rule="evenodd" clip-rule="evenodd" d="M219.778 39.7778H204.222V24.2222H210.333V22H203.111C202.497 22 202 22.5594 202 23.25V40.75C202 41.4405 202.497 42 203.111 42H220.889C221.503 42 222 41.4405 222 40.75V33.6667H219.778V39.7778Z" fill="white"/>
<path fill-rule="evenodd" clip-rule="evenodd" d="M222 23.1111C222 22.8164 221.883 22.5338 221.675 22.3254C221.466 22.1171 221.184 22 220.889 22H213.667C213.372 22 213.089 22.1171 212.881 22.3254C212.673 22.5338 212.556 22.8164 212.556 23.1111C212.556 23.4058 212.673 23.6884 212.881 23.8968C213.089 24.1052 213.372 24.2222 213.667 24.2222H218.207L207.882 34.5467C207.674 34.755 207.557 35.0376 207.557 35.3323C207.557 35.627 207.674 35.9096 207.882 36.1181C208.09 36.3265 208.373 36.4436 208.668 36.4436C208.962 36.4437 209.245 36.3267 209.453 36.1183L219.778 25.7933V30.3333C219.778 30.628 219.895 30.9106 220.103 31.119C220.312 31.3274 220.594 31.4444 220.889 31.4444C221.184 31.4444 221.466 31.3274 221.675 31.119C221.883 30.9106 222 30.628 222 30.3333V23.25C222 23.225 221.994 23.2011 221.993 23.1767C221.994 23.1544 222 23.1333 222 23.1111Z" fill="white"/>
<defs>
<clipPath id="clip0_6_24">
<rect width="132" height="36" fill="white" transform="translate(24 14)"/>
</clipPath>
</defs>
</svg>
