<svg width="244" height="64" viewBox="0 0 244 64" fill="none" xmlns="http://www.w3.org/2000/svg">
<rect width="244" height="64" rx="5.81818" fill="#0070E0" fill-opacity="0.2"/>
<path d="M66.2088 21.5003C65.9372 21.5003 65.7064 21.6975 65.664 21.9661L62.5194 41.9083C62.5079 41.9812 62.5124 42.0556 62.5325 42.1266C62.5526 42.1975 62.5878 42.2633 62.6358 42.3193C62.6837 42.3754 62.7432 42.4204 62.8101 42.4512C62.8771 42.4821 62.95 42.498 63.0237 42.498H66.753C67.0242 42.498 67.2554 42.3004 67.2978 42.0323L68.2216 36.1761C68.2637 35.9079 68.4948 35.7103 68.7665 35.7103H72.157C76.1185 35.7103 79.4814 32.8198 80.0957 28.9031C80.715 24.9532 77.6293 21.5089 73.2558 21.5003H66.2088ZM69.834 25.9522H72.5468C74.7801 25.9522 75.5074 27.27 75.2775 28.7273C75.0475 30.1877 73.918 31.2635 71.7575 31.2635H68.9964L69.834 25.9522ZM87.6805 27.3078C86.7388 27.3113 85.6553 27.5042 84.4388 28.0109C81.6485 29.174 80.3085 31.5776 79.7395 33.33C79.7395 33.33 77.9282 38.6764 82.0203 41.6137C82.0203 41.6137 85.8155 44.4414 90.0876 41.4394L90.014 41.9083C90.0026 41.9811 90.007 42.0555 90.0271 42.1264C90.0471 42.1973 90.0823 42.263 90.1301 42.319C90.178 42.375 90.2373 42.4201 90.3042 42.451C90.3711 42.4819 90.4439 42.4979 90.5175 42.498H94.0578C94.3294 42.498 94.5602 42.3004 94.6027 42.0323L96.7561 28.3757C96.7676 28.3029 96.7633 28.2284 96.7433 28.1574C96.7233 28.0864 96.6881 28.0206 96.6403 27.9645C96.5924 27.9084 96.533 27.8633 96.4661 27.8324C96.3991 27.8014 96.3263 27.7854 96.2525 27.7852H92.7123C92.4406 27.7852 92.2095 27.9829 92.1674 28.251L92.0517 28.9861C92.0517 28.9861 90.5059 27.2973 87.6805 27.3078ZM87.7962 31.6213C88.2027 31.6213 88.5746 31.6774 88.9082 31.7846C90.4357 32.2749 91.3018 33.7424 91.0511 35.333C90.7421 37.2916 89.1359 38.7337 87.076 38.7337C86.6698 38.7337 86.298 38.678 85.964 38.5708C84.4369 38.0805 83.5654 36.613 83.816 35.0224C84.1251 33.0638 85.7363 31.6213 87.7962 31.6213Z" fill="#003087"/>
<path d="M117.19 21.5003C116.918 21.5003 116.687 21.6975 116.645 21.9661L113.5 41.9083C113.489 41.9812 113.493 42.0556 113.513 42.1266C113.534 42.1975 113.569 42.2633 113.617 42.3193C113.665 42.3754 113.724 42.4204 113.791 42.4512C113.858 42.4821 113.931 42.498 114.005 42.498H117.734C118.005 42.498 118.236 42.3004 118.279 42.0323L119.203 36.1761C119.245 35.9079 119.476 35.7103 119.747 35.7103H123.138C127.1 35.7103 130.462 32.8198 131.076 28.9031C131.696 24.9532 128.61 21.5089 124.237 21.5003H117.19ZM120.815 25.9522H123.528C125.761 25.9522 126.488 27.27 126.258 28.7273C126.028 30.1877 124.899 31.2635 122.738 31.2635H119.977L120.815 25.9522ZM138.661 27.3078C137.719 27.3113 136.636 27.5042 135.419 28.0109C132.629 29.174 131.289 31.5776 130.72 33.33C130.72 33.33 128.91 38.6764 133.002 41.6137C133.002 41.6137 136.796 44.4414 141.069 41.4394L140.995 41.9083C140.984 41.9812 140.988 42.0556 141.008 42.1266C141.028 42.1975 141.063 42.2633 141.111 42.3193C141.159 42.3754 141.219 42.4204 141.286 42.4512C141.353 42.4821 141.426 42.498 141.499 42.498H145.039C145.311 42.498 145.542 42.3004 145.584 42.0323L147.738 28.3757C147.75 28.3028 147.745 28.2283 147.725 28.1572C147.705 28.0862 147.67 28.0204 147.622 27.9642C147.574 27.9081 147.515 27.863 147.448 27.8321C147.381 27.8012 147.308 27.7852 147.234 27.7852H143.694C143.422 27.7852 143.191 27.9829 143.149 28.251L143.033 28.9861C143.033 28.9861 141.486 27.2973 138.661 27.3078ZM138.777 31.6213C139.183 31.6213 139.555 31.6774 139.889 31.7846C141.416 32.2749 142.282 33.7424 142.032 35.333C141.723 37.2916 140.116 38.7337 138.057 38.7337C137.65 38.7337 137.279 38.678 136.945 38.5708C135.417 38.0805 134.546 36.613 134.797 35.0224C135.106 33.0638 136.717 31.6213 138.777 31.6213Z" fill="#0070E0"/>
<path d="M98.436 27.7852C98.1554 27.7852 97.9558 28.0592 98.0416 28.3262L101.923 40.3703L98.4134 46.0461C98.2431 46.3216 98.4411 46.6775 98.765 46.6775H102.913C103.031 46.6774 103.148 46.6467 103.251 46.5884C103.355 46.5301 103.441 46.4461 103.503 46.3446L114.342 28.4128C114.509 28.1372 114.31 27.7849 113.988 27.7849H109.84C109.721 27.785 109.603 27.8162 109.499 27.8756C109.395 27.935 109.308 28.0205 109.247 28.1236L104.981 35.3272L102.815 28.177C102.744 27.9443 102.529 27.7849 102.286 27.7849L98.436 27.7852Z" fill="#003087"/>
<path d="M151.761 21.5003C151.49 21.5003 151.259 21.6979 151.216 21.9661L148.071 41.9076C148.059 41.9805 148.064 42.055 148.084 42.126C148.104 42.1971 148.139 42.2629 148.187 42.3191C148.235 42.3752 148.294 42.4203 148.361 42.4512C148.428 42.4821 148.501 42.4981 148.575 42.498H152.304C152.576 42.498 152.807 42.3004 152.849 42.0323L155.994 22.09C156.005 22.0172 156.001 21.9428 155.981 21.872C155.961 21.8011 155.926 21.7353 155.878 21.6793C155.83 21.6233 155.77 21.5783 155.704 21.5474C155.637 21.5165 155.564 21.5004 155.49 21.5003H151.761Z" fill="#0070E0"/>
<path d="M35.1196 21.5003C34.8793 21.5005 34.6471 21.5864 34.4645 21.7425C34.2819 21.8986 34.1609 22.1147 34.1233 22.3519L32.468 32.8506C32.5452 32.3603 32.9677 31.999 33.4642 31.999H38.3148C43.1966 31.999 47.339 28.4377 48.0959 23.6117C48.1522 23.2514 48.1842 22.8877 48.1914 22.523C46.9508 21.8725 45.4935 21.5003 43.8966 21.5003H35.1196Z" fill="#001C64"/>
<path d="M48.1919 22.5234C48.1846 22.888 48.1527 23.2517 48.0964 23.612C47.3395 28.4381 43.1967 31.9994 38.3153 31.9994H33.4647C32.9685 31.9994 32.5456 32.3603 32.4685 32.851L30.9464 42.4984L29.9931 48.5507C29.9745 48.6676 29.9814 48.7872 30.0135 48.9012C30.0456 49.0151 30.1021 49.1208 30.179 49.2108C30.2559 49.3009 30.3514 49.3732 30.4589 49.4227C30.5664 49.4722 30.6834 49.4979 30.8018 49.4978H36.0668C36.307 49.4976 36.5393 49.4118 36.7219 49.2557C36.9045 49.0996 37.0254 48.8835 37.063 48.6462L38.4497 39.8504C38.4873 39.613 38.6084 39.3968 38.7912 39.2407C38.9739 39.0845 39.2064 38.9988 39.4468 38.9987H42.5466C47.4283 38.9987 51.5707 35.4375 52.3276 30.6114C52.8651 27.1862 51.1401 24.0692 48.1919 22.5234Z" fill="#0070E0"/>
<path d="M29.1379 14.5021C28.6417 14.5021 28.2188 14.8631 28.1417 15.353L24.0102 41.5514C23.9318 42.0487 24.3161 42.4985 24.8197 42.4985H30.9464L32.4676 32.851L34.1229 22.3524C34.1605 22.1151 34.2815 21.899 34.4641 21.7429C34.6467 21.5868 34.879 21.5009 35.1192 21.5007H43.8962C45.4935 21.5007 46.9504 21.8733 48.191 22.5235C48.276 18.1297 44.6504 14.5021 39.6658 14.5021H29.1379Z" fill="#003087"/>
<mask id="path-9-inside-1_6_51" fill="white">
<path d="M180 0H244V64H180V0Z"/>
</mask>
<path d="M181 64V0H179V64H181Z" fill="#003087" fill-opacity="0.25" mask="url(#path-9-inside-1_6_51)"/>
<path fill-rule="evenodd" clip-rule="evenodd" d="M219.778 39.7778H204.222V24.2222H210.333V22H203.111C202.497 22 202 22.5594 202 23.25V40.75C202 41.4405 202.497 42 203.111 42H220.889C221.503 42 222 41.4405 222 40.75V33.6667H219.778V39.7778Z" fill="#003087"/>
<path fill-rule="evenodd" clip-rule="evenodd" d="M222 23.1111C222 22.8164 221.883 22.5338 221.675 22.3254C221.466 22.1171 221.184 22 220.889 22H213.667C213.372 22 213.089 22.1171 212.881 22.3254C212.673 22.5338 212.556 22.8164 212.556 23.1111C212.556 23.4058 212.673 23.6884 212.881 23.8968C213.089 24.1052 213.372 24.2222 213.667 24.2222H218.207L207.882 34.5467C207.674 34.755 207.557 35.0376 207.557 35.3323C207.557 35.627 207.674 35.9096 207.882 36.1181C208.09 36.3265 208.373 36.4436 208.668 36.4436C208.962 36.4437 209.245 36.3267 209.453 36.1183L219.778 25.7933V30.3333C219.778 30.628 219.895 30.9106 220.103 31.119C220.312 31.3274 220.594 31.4444 220.889 31.4444C221.184 31.4444 221.466 31.3274 221.675 31.119C221.883 30.9106 222 30.628 222 30.3333V23.25C222 23.225 221.994 23.2011 221.993 23.1767C221.994 23.1544 222 23.1333 222 23.1111Z" fill="#003087"/>
</svg>
