<svg width="288" height="64" viewBox="0 0 288 64" fill="none" xmlns="http://www.w3.org/2000/svg">
<g clip-path="url(#clip0_13_2)">
<path d="M74.0081 1.77722C73.353 -1.61113 69.2844 4.48846 68.2579 5.53443C65.1281 10.2122 61.5373 13.744 59.1404 18.6323C58.2508 20.2483 56.6757 22.6245 56.6638 22.635C55.3091 23.8364 52.4232 23.7984 52.4363 23.7449C52.6951 22.6864 52.6519 21.635 51.9356 20.8064C51.0987 20.0973 50.0295 20.0917 49.1774 20.7096C47.7249 22.1609 48.8762 24.2394 50.2189 24.7879C48.8638 26.8586 46.5495 29.2996 45.118 29.449C44.8415 29.3785 44.9194 28.6695 45.0953 28.4439C45.9478 27.3506 46.2188 26.8949 47.0594 26.0766C47.3765 25.7678 47.7264 25.2879 47.597 24.7853C47.5656 24.5141 46.1217 24.3135 45.9369 24.415C45.0958 24.9523 43.1565 26.8238 42.8276 27.619C42.5532 28.2825 38.3456 31.9604 36.4726 32.1908C36.0413 32.2439 46.1275 18.9708 49.7729 13.2424L49.7771 13.2365C50.0042 12.9555 50.3106 12.5935 50.4735 12.1805C50.549 11.9511 50.6956 11.5586 50.4815 11.1424C50.1765 10.6942 50.0975 10.7702 50.0854 10.7342C48.3984 9.89898 47.1478 12.1247 46.2827 13.1387C44.859 14.9942 42.9391 16.8308 41.4736 18.6125C39.7646 20.4806 37.9031 22.992 35.8307 24.5852C35.6505 24.7238 35.4527 24.8329 35.2538 24.9429C33.133 26.1156 35.9476 26.927 36.723 25.9889C39.3357 22.5572 44.0587 18.5921 45.5283 16.7291C45.5906 16.6501 45.7154 16.7409 45.6595 16.8246C42.0928 22.1607 33.6417 33.2146 33.6324 33.2199C29.8723 35.4125 27.7978 37.272 23.7528 39.127C18.912 41.3472 14.0889 44.4149 9.59162 47.3267C6.06358 49.3997 3.43483 52.0833 1.64732 55.7988C-1.32898 61.1192 -0.507235 65.3426 6.05056 63.6027C8.79036 62.8107 10.9426 61.0013 13.0731 59.2568C17.1678 55.7287 20.271 51.4629 23.9587 47.5041C28.2708 42.8749 31.215 38.1928 35.4231 34.249C35.4304 34.2422 37.6307 33.7135 38.3046 33.3228C39.9307 32.3801 41.2479 31.2028 43.2747 31.5611C46.3757 31.3195 49.1521 29.6296 50.7615 27.3084L50.764 27.3047C51.1267 26.7128 51.9452 25.1422 51.9452 25.1422C51.9452 25.1422 52.7427 25.1663 53.0528 25.1119C53.6668 25.0344 54.283 24.8779 54.8987 24.6604C54.9674 24.6361 55.0313 24.7064 54.9981 24.7715C53.8186 27.0868 52.4402 29.261 50.4077 30.9823C49.3878 31.9007 51.3133 33.4991 52.0573 32.3436C52.7455 31.1542 53.2195 29.8607 54.0165 28.7501C55.0839 27.2317 56.3304 26.3814 57.2835 24.8795C57.8025 24.0618 58.8787 22.9162 59.6629 22.3477C63.9522 19.2385 67.4141 14.4236 70.1294 11.0627C71.8895 8.88401 72.9865 6.31108 74.1087 3.69185C74.4437 3.00819 74.0265 2.41997 74.0081 1.77722ZM22.7853 46.2691C19.2974 50.2501 16.1531 54.715 12.1979 58.1605C10.2692 59.7805 8.81435 61.614 6.42369 62.3671C0.71323 64.3803 1.53474 59.0269 2.92331 56.4574C4.15329 54.1812 5.59943 52.8278 7.55314 51.1707C10.6283 48.768 14.1544 46.8189 17.4937 44.7507C22.1683 41.918 27.8073 38.7083 28.96 38.5095C29.6598 38.3888 25.8041 42.7409 22.7853 46.2691ZM50.2833 22.7718C49.7546 21.9471 50.662 21.6933 51.1431 22.1228C51.4553 22.4855 51.5649 23.2895 51.1122 23.3491C50.7871 23.392 50.5262 23.0895 50.2833 22.7718ZM61.3172 18.1227C62.5776 15.7997 63.7593 14.6317 65.1356 12.3797C66.572 10.165 69.2151 7.224 70.7993 5.12405C71.5644 4.16582 71.9523 4.44139 71.5092 5.61951C69.1934 11.7772 60.9945 18.7174 61.3172 18.1227Z" fill="black"/>
<path d="M71.4012 30.5135C70.9817 30.1936 70.3824 30.2743 70.0625 30.6938C69.9235 30.876 69.6667 31.0806 69.4696 31.1818C69.3417 31.2596 69.2469 31.2783 69.2054 31.2885C69.0457 30.2322 70.1523 29.1564 70.5689 28.071C70.9275 27.3805 70.8216 26.2907 69.9316 25.9865C68.7137 25.6088 67.5899 26.2353 66.7171 26.7569C66.026 27.2147 66.0966 27.2334 65.3952 27.8875C65.3952 27.8875 65.0955 27.2575 64.9805 27.1015C64.5511 26.5194 63.8876 26.082 62.869 26.3436C62.2176 26.5365 62.0192 26.7895 61.6162 27.1515C60.4498 28.2326 59.6021 29.8457 58.1987 30.5577C58.161 30.5678 58.1469 30.5692 58.1418 30.5702C57.9881 30.4464 57.8629 30.3447 57.9934 30.0038C58.3505 29 59.6657 27.795 59.6263 25.8437C59.6518 24.242 57.2636 24.572 57.7249 26.098C58.3591 27.7221 55.8353 29.4725 56.9545 31.1683C58.5337 33.1873 60.7969 30.0722 62.0555 29.1162C62.196 28.9896 62.3742 28.8339 62.5545 28.6843C62.5454 29.6424 62.1451 30.5352 62.0623 30.9554C62.015 31.1046 61.7504 31.3253 61.8064 31.5281C61.8696 31.9099 62.5918 32.161 62.9326 32.0664C63.1722 32.0334 63.3841 31.8275 63.439 31.7713C63.6788 31.5466 64.3093 30.9386 64.5576 30.7078C65.7709 29.6499 67.1786 28.2874 68.7313 27.8321C68.3089 28.797 67.646 29.8507 67.6085 31.0535C67.545 31.8925 68.3014 32.9842 69.3461 32.8566C70.1186 32.7897 70.6851 32.4658 71.3239 32.086C71.8863 31.7529 71.9317 30.9011 71.4012 30.5135Z" fill="black"/>
<path d="M97.9989 8.95683C97.989 8.95614 97.9798 8.95226 97.9699 8.95203C95.0264 8.5987 91.7315 9.18395 89.0292 10.5459C86.7004 11.7 84.2309 13.2431 82.6805 15.3877C81.5553 17.4416 80.2248 21.4155 83.1402 23.1471C84.4102 24.0142 85.1608 21.5797 84.0743 21.4002C81.5944 21.263 83.0838 17.5037 83.963 16.3005C85.321 14.4419 87.2807 12.9939 89.3897 12.0143C90.9249 11.3241 92.6794 11.0846 94.3663 10.6779C95.8832 10.3122 95.3063 11.2955 94.9179 11.7319C94.1836 12.5568 93.4856 13.4159 92.8261 14.3198C91.4631 16.1414 90.2844 17.9579 89.2175 20.0167C87.2637 23.7866 83.2137 28.0444 83.2137 28.0444C83.2137 28.0444 80.3097 28.706 79.7347 29.5242C78.6679 31.0421 78.9768 31.8198 81.0069 31.6928C81.5843 31.6982 82.9197 30.3838 83.9925 29.4463C85.0812 28.495 85.9272 27.5294 85.9272 27.5294C90.8279 32.7261 95.4765 32.1552 98.4882 28.2323C100.889 25.1054 103.334 21.7355 103.428 16.7242C103.646 12.1815 101.494 9.60195 97.9989 8.95683ZM101.306 20.1198C101.119 22.6327 96.7215 29.7218 92.8449 29.3753C89.7459 29.0982 88.5279 27.9846 86.8796 26.4224C88.107 24.8831 89.3995 22.7854 90.7102 21.1309C92.1624 19.4495 93.0703 17.2509 94.3681 15.4114C95.3935 13.9348 96.54 12.5006 97.7284 11.1247C97.8826 10.9462 99.1803 11.0855 99.6217 11.5584C102.036 12.9604 101.638 16.5512 101.306 20.1198Z" fill="black"/>
<path d="M159.849 0.660416C159.775 -0.434455 158.217 0.113552 157.387 0.32788C153.598 1.5715 151.23 4.87081 148.889 7.79417C145.054 12.9971 141.63 18.4428 138.31 23.9667C137.511 24.6264 136.639 25.1976 135.749 25.6631C135.753 25.6509 135.755 25.6396 135.76 25.6272C135.809 25.4815 135.916 25.2722 135.984 25.163C135.996 25.1432 136.009 25.1247 136.02 25.1049C136.324 24.6095 136.271 23.6017 135.688 23.642C135.542 23.6521 135.472 23.1783 135.159 23.0684C133.968 22.6418 132.98 23.3531 131.767 23.7768C128.878 24.7855 127.001 26.5844 124.724 27.7982C124.361 27.9812 123.517 28.8186 123.439 28.2688C123.32 27.4232 125.681 25.6221 126.72 24.1604C126.895 23.9187 126.922 23.5858 126.76 23.3126C126.533 22.9268 126.025 22.8203 125.656 23.07C124.72 23.6463 121.623 26.294 121.599 26.3006C119.985 26.8607 118.175 25.842 116.657 26.7269C116.384 26.8675 116.133 27.024 115.89 27.1879C115.871 26.955 115.831 26.7154 115.755 26.4607C115.461 25.3543 114.34 25.1315 113.293 25.4263C111.414 25.8519 110.194 27.4398 108.634 28.1727C109.003 27.2365 109.526 25.79 110.322 24.9102C110.863 24.3558 110.227 22.057 108.862 23.3643C108.6 23.6151 108.29 23.7899 108.134 23.9873C108.134 23.9873 107.888 23.6802 107.385 23.8283C105.672 24.3322 100.063 26.3197 100.03 29.0042C100.016 30.0792 101.162 29.7054 101.555 29.9048C101.864 30.0617 102.209 30.1234 102.562 30.1234C103.692 30.1231 104.047 29.5493 104.334 29.3875C104.701 29.1819 104.438 28.3203 104.071 28.5237C103.418 28.8878 102.466 29.0307 102.054 28.8203C102.02 28.8031 101.918 28.7515 101.881 28.4465C101.79 27.6902 105.145 26.1792 107.59 25.3737C107.337 25.7922 105.564 28.1347 105.774 28.8554C105.962 29.6294 106.563 30.5332 107.809 30.5596C109.087 30.5865 109.413 29.7556 110.235 29.1571C110.665 28.844 111.91 27.8463 111.91 27.8463C112.632 27.3409 113.216 26.7953 113.984 26.8619C114.532 27.0051 114.407 28.0493 114.313 28.6627C114.301 28.893 114.324 29.1348 114.505 29.3101C114.766 29.5764 115.193 29.581 115.46 29.3201C115.979 28.8122 116.531 28.4566 117.233 28.3045C118.024 28.1329 120.118 28.0585 120.968 28.0514C121.121 28.0502 121.218 28.2089 121.155 28.3483C120.825 29.0793 121.004 30.3663 122.378 30.3474C123.546 30.3314 126.167 28.7237 127.16 28.0093C126.796 30.1306 127.413 30.4127 129.51 30.5154C130.697 30.5735 131.987 29.6725 132.985 28.8592C133.468 28.4388 133.896 27.985 134.3 27.5139C134.31 27.521 134.315 27.5299 134.325 27.537C134.909 27.8826 135.413 28.0565 135.95 27.9249C135.11 29.3445 134.599 30.7651 133.758 32.1875C132.957 33.6215 135.353 33.6295 136.066 32.1616C137.194 29.6837 138.193 28.5096 139.493 26.1074C140.539 25.2806 141.941 24.3295 142.755 23.2373C143.782 22.0277 149.48 17.0668 150.735 15.8055C153.015 13.5569 154.978 10.24 157.13 7.80842C158.248 6.32533 160.07 3.93817 159.849 0.660416ZM129.895 28.7891C129.119 28.3729 130.079 27.895 130.873 27.3541C131.429 26.9949 131.767 26.1073 132.819 26.1073C132.235 27.5517 130.975 29.3686 129.895 28.7891ZM155.276 7.63308C153.229 10.0065 151.582 12.4182 149.353 14.6808C149.353 14.6808 144.454 19.6563 143.205 20.2187C143.804 17.4174 156.513 0.150416 158.118 2.57695C158.915 3.78173 156.251 6.44133 155.276 7.63308Z" fill="black"/>
<path d="M169.882 17.4714C168.312 18.1215 166.753 19.1679 165.269 20.0365C162.319 21.7977 157.97 25.6827 157.996 25.6133C158.461 24.3817 158.068 24.0709 158.647 23.0107C159.204 21.9883 158.949 21.2912 158.266 21.3145C157.112 21.3538 157.013 22.5137 156.974 23.3128C156.881 25.195 156.393 26.078 155.905 26.7983C155.352 28.2582 154.592 28.5855 153.86 29.9818C153.256 31.1349 154.407 32.4103 155.151 31.3322C157.3 28.2153 159.853 26.2007 162.411 24.2655C165.09 22.2389 167.5 20.0647 170.241 18.1062C170.588 17.8655 170.265 17.3018 169.882 17.4714Z" fill="black"/>
<path d="M188.309 26.4617C187.888 26.4796 187.561 26.8353 187.579 27.2561C187.581 27.3197 187.546 27.52 187.497 27.6325C187.283 28.2341 186.534 28.2779 185.941 28.1799C185.927 28.1792 185.919 28.1761 185.906 28.1745C186.215 27.3587 187.393 26.0604 188.287 24.9035C189.357 24.0797 189.844 22.645 188.854 22.4531C187.29 22.1498 184.275 24.059 183.106 24.8995C182.772 25.1792 182.451 25.4695 182.123 25.7538C182.512 24.7568 182.605 23.8253 181.932 23.2781C180.745 22.2904 176.469 26.3026 174.936 27.5419C174.469 27.9665 172.891 27.6581 173.922 26.0128C174.434 25.1254 175.544 24.4415 175.969 23.3269C176.234 22.7069 175.821 21.7713 175.15 21.5861C174.252 21.308 173.612 22.4091 172.937 22.6158C170.288 23.658 167.656 25.3789 165.711 27.4955C163.666 28.6573 162.69 30.7951 166.096 31.7383C167.93 31.9577 168.927 31.0366 170.195 30.0515C170.817 29.5421 169.568 29.0523 169.568 29.0523C169.568 29.0523 167.664 30.295 166.956 29.3744C166.547 28.8432 171.45 25.195 171.659 25.985C171.229 27.1896 170.531 27.3985 170.637 28.7967C170.719 30.3907 172.637 30.8862 173.913 30.0282C176.436 28.4301 180.358 24.4274 180.791 24.9859C181.687 26.1409 179.664 27.4979 178.89 28.741C178.003 29.3079 179.211 30.1251 179.802 29.6499C181.954 27.9495 184.098 26.1969 186.343 24.6394C186.356 24.6315 186.368 24.623 186.38 24.615C185.632 25.5975 184.804 26.5624 184.389 27.7942C183.812 30.0142 187.102 30.1478 188.285 29.0298C188.96 28.4688 189.712 26.556 188.309 26.4617Z" fill="black"/>
<path d="M204.791 11.1383C200.667 12.0506 197.173 13.2845 194.414 17.7038C193.799 18.2035 193.908 19.2374 194.62 19.5937C195.181 19.889 196.28 19.5874 196.537 19.0086C197.409 17.0454 198.363 15.9921 199.88 14.9925C201.109 14.2349 202.454 13.795 204.058 13.3937C205.375 13.0644 206.457 12.776 207.892 12.9213C207.108 13.9918 205.748 15.3376 204.719 17.9133C203.927 19.897 201.453 22.8172 199.937 25.4156C199.722 25.7829 199.371 26.0269 198.964 26.1503C196.155 27.0016 193.958 28.2312 193.69 29.2853C193.559 29.7989 193.497 31.0605 195.106 30.9042C197.097 30.7105 200.112 28.5059 201.571 26.4735C202.109 27.1032 202.205 27.1225 202.857 27.6376C206.483 30.7624 210.69 29.2909 213.615 25.6209C218.738 17.1727 214.914 9.18406 204.791 11.1383ZM213.942 21.5414C212.244 27.841 206.277 29.6889 202.075 24.719C203.892 22.4038 205.136 20.3511 206.248 18.7132C207.991 16.1454 208.825 13.6746 209.368 13.009C211.969 13.0747 213.227 14.6631 213.742 16.7546C214.198 18.3756 214.487 19.8384 213.942 21.5414Z" fill="black"/>
<path d="M277.886 23.2169C276.966 23.2761 275.357 23.3259 274.586 23.5565C272.856 24.1163 270.908 24.3505 269.166 24.6659C268.248 24.8116 267.503 24.7218 266.982 23.9943C267.301 22.2796 269.125 21.1237 268.733 18.9019C268.359 16.78 265.326 18.9723 262.642 21.1081C262.526 19.3841 261.585 18.2517 259.886 18.6121C257.028 20.2099 255.257 22.7193 252.7 24.1563C251.423 24.8743 249.677 24.8743 251.76 23.4576C252.875 22.699 253.749 21.8903 253.944 20.347C254.083 19.4474 253.768 18.5038 252.986 18.4536C251.423 18.3529 249.237 19.2672 249.387 21.1803C249.26 22.0377 249.326 22.8332 249.211 23.2966C247.655 24.1075 246.589 25.0671 244.497 24.8272C244.465 24.8235 244.433 24.8363 244.4 24.8406C244.803 23.9584 245.556 23.0901 245.758 22.1593C246.169 20.6672 245.97 18.3824 244.018 18.0239C243.44 17.9666 242.892 17.9203 242.455 18.2858C241.163 19.4082 239.734 20.4226 238.281 21.3708C238.282 21.3675 238.284 21.3644 238.285 21.361C238.389 21.1003 238.345 20.8745 238.232 20.6962C238.198 18.7096 236.745 18.0685 234.459 18.8768C232.382 19.7101 231.017 21.8805 228.464 22.0508C228.678 21.2615 228.012 20.3469 228.103 19.5858C228.183 18.5652 226.769 18.836 226.676 19.8594C226.48 20.6799 225.809 21.4938 226.167 21.9667C226.167 21.9667 224.161 22.5837 223.721 22.1349C223.508 21.4437 224.617 20.3223 225.225 19.5947C225.92 18.9831 225.08 17.8647 224.293 18.3946C222.54 19.5884 221.424 20.952 219.758 22.301C217.379 23.1308 215.442 25.4662 217.718 27.0323C219.394 27.9192 221.183 27.5876 222.901 27.3228C224.714 26.9234 225.968 25.7321 226.82 24.2316C226.97 24.2154 227.121 24.2061 227.27 24.1833C228.078 24.0888 229.045 24.125 229.805 23.8129C229.614 24.6127 229.392 26.4575 231.039 26.4758C232.996 27.7564 234.908 26.3171 236.229 24.7314C236.469 24.4686 236.687 24.1972 236.89 23.9188C237.007 23.9142 237.124 23.8909 237.23 23.8246C239.59 22.9749 241.712 21.6783 243.607 20.0395C243.718 20.0261 243.821 20.0236 243.936 20.0474C244.721 20.4602 244.795 22.3016 243.94 22.8782C243.36 23.436 242.602 23.8415 242.21 24.7015C241.917 25.204 241.763 26.3001 242.625 26.5698C243.499 26.8431 245.272 26.7913 246.423 26.3013C248.064 26.0914 248.618 25.4195 249.343 25.9299C251.728 27.6095 254.619 24.7516 256.137 23.4826C257.154 22.5774 260.899 18.4412 261.044 21.4232L258.572 24.8744C258.387 26.5522 259.806 26.1691 260.115 25.8839C262.212 23.3953 264.563 20.492 266.084 20.6189C266.752 20.7684 265.745 22.1278 265.116 23.1187C263.766 25.2576 265.824 26.1124 267.858 26.1373C271.166 26.2921 273.966 26.0279 277.098 25.446C278.667 25.4594 279.411 23.1912 277.886 23.2169ZM221.644 26.0365C220.346 26.3484 218.762 26.4069 218.522 25.7377C218.253 24.9917 219.32 24.0442 219.967 23.4169C220.332 23.0628 221.733 23.1527 222.691 23.1861C222.819 23.6428 223.076 23.7942 223.33 23.9888C224.551 24.9237 222.348 25.3997 221.644 26.0365ZM235.278 20.3568C236.636 19.7183 236.351 21.3417 236.367 21.7642C236.047 22.0057 235.513 22.0088 235.14 22.0375C234.111 21.5967 235.348 21.1247 235.278 20.3568ZM231.112 24.7058C230.415 24.3068 231.981 23.1014 232.738 22.5323C233.786 22.9139 234.745 23.1411 235.669 23.0145C234.797 25.1031 231.662 25.021 231.112 24.7058ZM250.908 20.8513C251.055 20.6519 251.629 20.6022 252.045 20.623C251.794 21.2346 251.353 21.7723 250.801 22.245C250.847 21.9117 250.875 21.5773 250.856 21.243C250.849 21.132 250.824 20.9359 250.908 20.8513Z" fill="black"/>
<path d="M285.048 13.3973C284.392 13.4592 283.517 13.3309 282.874 13.4836C283.297 12.262 283.345 11.41 283.353 11.3895C283.505 10.9975 282.333 11.3094 282.182 11.7018C282.14 11.8075 281.649 12.3015 281.125 13.9059C279.686 14.2283 278.492 13.7232 276.928 13.9551C276.12 14.0749 275.17 14.8371 275.779 15.8626C276.119 16.4605 277.011 15.8367 277.608 15.4945C278.849 14.817 279.304 15.4164 280.713 15.2442C280.532 15.8797 280.39 16.4687 280.33 16.9176C280.159 18.2007 279.702 18.2874 279.332 18.5021C278.969 18.713 279.032 20.0846 279.341 20.1167C280.374 20.2241 281.545 19.3309 281.84 17.1188C281.905 16.6278 282.643 16.0856 282.873 15.3302C282.889 15.3287 285.447 14.3841 287.235 14.524C287.622 14.5441 287.823 14.3495 287.96 13.9775C288.328 12.9735 285.925 13.3462 285.048 13.3973Z" fill="black"/>
<path d="M133.355 12.6639C133.355 12.6639 133.874 10.8693 132.908 11.8114C131.942 12.7535 132.515 13.4047 132.608 13.3773" stroke="black" stroke-width="2.30285" stroke-linecap="round" stroke-linejoin="round"/>
</g>
<defs>
<clipPath id="clip0_13_2">
<rect width="287.998" height="64" fill="white"/>
</clipPath>
</defs>
</svg>
