<svg width="336" height="120" viewBox="0 0 336 120" fill="none" xmlns="http://www.w3.org/2000/svg">
<g clip-path="url(#clip0_1_126)">
<path d="M107.28 12.7197H1.4696V118.53H107.28V12.7197Z" fill="#FDBB33"/>
<path d="M108.75 120H0V11.2501H108.75V120ZM2.9392 117.061H105.811V14.1893H2.9392V117.061Z" fill="black"/>
<path d="M54.375 112.652C80.3472 112.652 101.402 91.5973 101.402 65.625C101.402 39.6528 80.3472 18.5981 54.375 18.5981C28.4027 18.5981 7.34799 39.6528 7.34799 65.625C7.34799 91.5973 28.4027 112.652 54.375 112.652Z" fill="#804099"/>
<path d="M54.375 114.122C27.6343 114.122 5.87839 92.3657 5.87839 65.625C5.87839 38.8844 27.6343 17.1285 54.375 17.1285C81.1156 17.1285 102.872 38.8844 102.872 65.625C102.872 92.3657 81.1156 114.122 54.375 114.122ZM54.375 20.0676C29.2541 20.0676 8.81759 40.5041 8.81759 65.6249C8.81759 90.7458 29.2541 111.182 54.375 111.182C79.4958 111.182 99.9323 90.7458 99.9323 65.6249C99.9323 40.5041 79.4958 20.0676 54.375 20.0676Z" fill="black"/>
<path d="M77.8884 42.1115C77.8884 29.1255 67.361 18.5981 54.375 18.5981C41.3889 18.5981 30.8615 29.1255 30.8615 42.1115C17.8754 42.1115 7.34799 52.6389 7.34799 65.625C7.34799 78.6111 17.8754 89.1385 30.8615 89.1385C30.8615 102.125 41.3889 112.652 54.375 112.652C67.361 112.652 77.8884 102.125 77.8884 89.1385C90.8745 89.1385 101.402 78.6111 101.402 65.625C101.402 52.6389 90.8745 42.1115 77.8884 42.1115Z" fill="#FDBB33"/>
<path d="M54.375 114.122C41.0788 114.122 30.1745 103.681 29.4321 90.5679C16.3186 89.8254 5.87839 78.9212 5.87839 65.625C5.87839 52.3288 16.3186 41.4246 29.4321 40.6822C30.1746 27.5687 41.0788 17.1285 54.375 17.1285C67.6711 17.1285 78.5754 27.5687 79.3178 40.6822C92.4313 41.4247 102.872 52.3288 102.872 65.625C102.872 78.9212 92.4313 89.8255 79.3178 90.5679C78.5753 103.681 67.6711 114.122 54.375 114.122ZM30.8615 43.5812C18.7067 43.5812 8.81759 53.4702 8.81759 65.625C8.81759 77.7798 18.7067 87.6689 30.8615 87.6689H32.3311V89.1385C32.3311 101.293 42.2202 111.182 54.375 111.182C66.5297 111.182 76.4188 101.293 76.4188 89.1385V87.6689H77.8884C90.0432 87.6689 99.9323 77.7798 99.9323 65.625C99.9323 53.4702 90.0432 43.5812 77.8884 43.5812H76.4188V42.1116C76.4188 29.9568 66.5297 20.0677 54.375 20.0677C42.2202 20.0677 32.3311 29.9568 32.3311 42.1116V43.5812H30.8615Z" fill="black"/>
<path d="M77.8885 47.9899C75.1489 47.9899 72.5657 48.6327 70.2526 49.7474C71.3673 47.4343 72.0101 44.8512 72.0101 42.1116C72.0101 32.3719 64.1146 24.4765 54.375 24.4765C44.6354 24.4765 36.7399 32.372 36.7399 42.1116C36.7399 44.8512 37.3827 47.4343 38.4974 49.7474C36.1843 48.6327 33.6011 47.9899 30.8615 47.9899C21.1219 47.9899 13.2264 55.8854 13.2264 65.625C13.2264 75.3646 21.1219 83.2601 30.8615 83.2601C33.601 83.2601 36.1843 82.6173 38.4974 81.5026C37.3827 83.8157 36.7399 86.3989 36.7399 89.1385C36.7399 98.8781 44.6354 106.774 54.375 106.774C64.1146 106.774 72.0101 98.8781 72.0101 89.1385C72.0101 86.3989 71.3673 83.8157 70.2526 81.5026C72.5657 82.6173 75.149 83.2601 77.8885 83.2601C87.628 83.2601 95.5235 75.3646 95.5235 65.625C95.5235 55.8854 87.628 47.9899 77.8885 47.9899Z" fill="#005899"/>
<path d="M54.375 108.243C43.841 108.243 35.2703 99.6725 35.2703 89.1385C35.2703 87.3972 35.5066 85.6874 35.9745 84.0255C34.3126 84.4934 32.6029 84.7297 30.8615 84.7297C20.3275 84.7297 11.7568 76.159 11.7568 65.625C11.7568 55.091 20.3275 46.5204 30.8615 46.5204C32.6028 46.5204 34.3126 46.7566 35.9745 47.2245C35.5066 45.5626 35.2703 43.853 35.2703 42.1116C35.2703 31.5776 43.841 23.0069 54.375 23.0069C64.909 23.0069 73.4797 31.5776 73.4797 42.1116C73.4797 43.8529 73.2434 45.5626 72.7755 47.2245C74.4374 46.7566 76.1471 46.5204 77.8885 46.5204C88.4224 46.5204 96.9931 55.091 96.9931 65.625C96.9931 76.159 88.4224 84.7297 77.8885 84.7297C76.1472 84.7297 74.4374 84.4934 72.7755 84.0255C73.2434 85.6874 73.4797 87.3971 73.4797 89.1385C73.4797 99.6725 64.909 108.243 54.375 108.243ZM37.8593 80.1783L39.8216 82.1406C38.7519 84.3603 38.2094 86.7149 38.2094 89.1384C38.2094 98.0516 45.4617 105.304 54.3749 105.304C63.2881 105.304 70.5404 98.0516 70.5404 89.1384C70.5404 86.7149 69.9979 84.3603 68.9282 82.1406L70.8905 80.1783C73.1102 81.248 75.4648 81.7905 77.8883 81.7905C86.8015 81.7905 94.0538 74.5382 94.0538 65.625C94.0538 56.7118 86.8015 49.4595 77.8883 49.4595C75.4648 49.4595 73.1102 50.002 70.8905 51.0717L68.9282 49.1094C69.9979 46.8898 70.5404 44.5352 70.5404 42.1117C70.5404 33.1985 63.2881 25.9462 54.3749 25.9462C45.4617 25.9462 38.2094 33.1985 38.2094 42.1117C38.2094 44.5352 38.7519 46.8898 39.8216 49.1094L37.8593 51.0717C35.6396 50.002 33.285 49.4595 30.8615 49.4595C21.9483 49.4595 14.696 56.7118 14.696 65.625C14.696 74.5382 21.9483 81.7905 30.8615 81.7905C33.285 81.7905 35.6396 81.248 37.8593 80.1783Z" fill="black"/>
<path d="M27.6342 75.9122L54.3749 33.1275L81.1156 75.9122H27.6342Z" fill="#008445"/>
<path d="M54.3749 35.9005L78.4638 74.4426H30.2861L54.3749 35.9005ZM54.3749 30.3548L24.9831 77.3817H83.7668L54.3749 30.3548Z" fill="black"/>
<path d="M55.8446 59.7466H52.9054V100.895H55.8446V59.7466Z" fill="#FDBB33"/>
<path d="M63.1925 67.0946H45.5574V70.0338H63.1925V67.0946Z" fill="#FDBB33"/>
<path d="M55.8446 51.7775C55.8446 51.7775 55.8446 49.5731 58.049 48.8383C56.5794 47.3687 55.1098 48.1035 54.375 48.8383C53.6402 48.1035 52.1706 47.3687 50.701 48.8383C52.9054 49.5731 52.9054 51.7775 52.9054 51.7775C51.4358 50.3079 48.4966 50.3079 46.2922 51.7775C49.2314 52.854 48.4966 57.6559 52.9054 55.4515C52.9054 55.4515 52.9054 56.9211 54.375 57.6559C55.8446 56.9211 55.8446 55.4515 55.8446 55.4515C60.2534 57.6559 59.5186 52.8541 62.4578 51.7775C60.2534 50.3079 57.3142 50.3079 55.8446 51.7775Z" fill="white"/>
<path d="M30.1471 18.5981H7.34799V41.3971C12.3903 31.6301 20.38 23.6404 30.1471 18.5981Z" fill="#D82F27"/>
<path d="M5.87839 47.4474V17.1285H36.1974L30.8213 19.9041C21.3933 24.7712 13.521 32.6435 8.65399 42.0714L5.87839 47.4474ZM8.81759 20.0677V35.9472C12.9547 29.5866 18.3365 24.2048 24.6971 20.0677H8.81759Z" fill="black"/>
<path d="M78.6028 18.5981H101.402V41.3971C96.3596 31.6301 88.3699 23.6404 78.6028 18.5981Z" fill="#D82F27"/>
<path d="M102.872 47.4474L100.096 42.0714C95.2288 32.6434 87.3565 24.7711 77.9287 19.9041L72.5526 17.1285H102.872V47.4474ZM84.0528 20.0677C90.4134 24.2048 95.7952 29.5866 99.9323 35.9472V20.0677H84.0528Z" fill="black"/>
<path d="M30.1471 112.652H7.34799V89.8529C12.3903 99.62 20.38 107.61 30.1471 112.652Z" fill="#D82F27"/>
<path d="M36.1974 114.122H5.87839V83.8026L8.65399 89.1787C13.5211 98.6067 21.3934 106.479 30.8213 111.346L36.1974 114.122ZM8.81759 111.182H24.6971C18.3365 107.045 12.9547 101.664 8.81759 95.3029V111.182Z" fill="black"/>
<path d="M78.6028 112.652H101.402V89.8529C96.3596 99.62 88.3699 107.61 78.6028 112.652Z" fill="#D82F27"/>
<path d="M102.872 114.122H72.5526L77.9287 111.346C87.3566 106.479 95.2289 98.6066 100.096 89.1787L102.872 83.8026V114.122ZM84.0528 111.182H99.9323V95.3029C95.7952 101.664 90.4134 107.045 84.0528 111.182Z" fill="black"/>
<path d="M68.8433 6.07328C68.4331 6.25198 67.96 6.34138 67.4244 6.34138C66.9366 6.34138 66.4859 6.26468 66.0723 6.11188C65.6587 5.95858 65.3003 5.74178 64.9966 5.46148C64.6934 5.18118 64.4551 4.84528 64.2827 4.45418C64.1103 4.06308 64.0239 3.63288 64.0239 3.16218C64.0239 2.68078 64.1118 2.24418 64.2871 1.85308C64.4629 1.46248 64.7051 1.12948 65.0146 0.854583C65.3237 0.579683 65.687 0.368784 66.1035 0.221284C66.52 0.0737839 66.9692 8.39233e-05 67.4512 8.39233e-05C67.8975 8.39233e-05 68.336 0.0752839 68.7676 0.225684C69.1988 0.375584 69.5484 0.595283 69.8164 0.884383L68.7812 1.87018C68.6381 1.68318 68.4506 1.54448 68.2187 1.45368C67.9868 1.36338 67.7485 1.31798 67.5048 1.31798C67.2367 1.31798 66.9916 1.36438 66.7685 1.45808C66.5454 1.55138 66.3535 1.68028 66.1928 1.84478C66.0321 2.00928 65.9072 2.20318 65.8178 2.42678C65.7284 2.65088 65.684 2.89598 65.684 3.16218C65.684 3.43418 65.7284 3.68368 65.8178 3.91018C65.9072 4.13678 66.0307 4.33108 66.1884 4.49268C66.3456 4.65378 66.5346 4.78028 66.7548 4.87058C66.975 4.96138 67.2162 5.00678 67.4779 5.00678C67.7811 5.00678 68.0458 4.95018 68.2723 4.83688C68.4984 4.72358 68.6795 4.57618 68.8167 4.39448L69.8787 5.34658C69.5989 5.65278 69.2539 5.89498 68.8433 6.07328Z" fill="black"/>
<path d="M75.8085 6.17978V3.66368H73.3451V6.17978H71.8187V0.161682H73.3451V2.43948H75.8085V0.161682H77.3344V6.17978H75.8085Z" fill="black"/>
<path d="M85.1274 4.90048C84.9995 5.19788 84.8163 5.45318 84.5785 5.66558C84.3407 5.87798 84.0537 6.04348 83.7173 6.16268C83.3814 6.28178 83.0077 6.34138 82.5972 6.34138C82.1807 6.34138 81.8062 6.28178 81.4727 6.16268C81.1397 6.04358 80.857 5.87798 80.625 5.66558C80.393 5.45318 80.2144 5.19778 80.0894 4.90048C79.9644 4.60318 79.9019 4.27308 79.9019 3.91028V0.161682H81.4195V3.79108C81.4195 3.95568 81.4414 4.11138 81.4863 4.25888C81.5307 4.40638 81.5992 4.53818 81.6915 4.65388C81.7838 4.77008 81.9059 4.86238 82.0577 4.93028C82.2091 4.99818 82.3922 5.03238 82.6065 5.03238C82.8204 5.03238 83.0034 4.99818 83.1552 4.93028C83.307 4.86238 83.4301 4.77008 83.5253 4.65388C83.6205 4.53818 83.689 4.40628 83.731 4.25888C83.7725 4.11138 83.7935 3.95568 83.7935 3.79108V0.161682H85.3193V3.91018C85.3193 4.27298 85.2553 4.60318 85.1274 4.90048Z" fill="black"/>
<path d="M91.2598 6.17978L89.8877 3.79108H89.3677V6.17978H87.877V0.161682H90.2866C90.5903 0.161682 90.8862 0.191482 91.1748 0.251082C91.4634 0.310682 91.7223 0.411282 91.9513 0.552882C92.1803 0.694482 92.3634 0.881482 92.5006 1.11388C92.6373 1.34628 92.7057 1.63538 92.7057 1.98058C92.7057 2.38878 92.5894 2.73158 92.3575 3.00938C92.1256 3.28718 91.8044 3.48548 91.3937 3.60408L93.045 6.17978H91.2598ZM91.1973 2.00648C91.1973 1.86488 91.1656 1.75018 91.1031 1.66228C91.0401 1.57438 90.9595 1.50648 90.8609 1.45818C90.7623 1.40988 90.6514 1.37708 90.5289 1.36048C90.4063 1.34338 90.2881 1.33458 90.1748 1.33458H89.359V2.73738H90.0851C90.2106 2.73738 90.3395 2.72758 90.4708 2.70758C90.6026 2.68758 90.7217 2.65238 90.8296 2.60118C90.937 2.55038 91.0255 2.47668 91.0943 2.38048C91.1627 2.28378 91.1973 2.15928 91.1973 2.00648Z" fill="black"/>
<path d="M99.5082 6.07328C99.098 6.25198 98.6249 6.34138 98.0893 6.34138C97.6015 6.34138 97.1508 6.26468 96.7372 6.11188C96.3236 5.95858 95.9652 5.74178 95.6615 5.46148C95.3583 5.18118 95.12 4.84528 94.9476 4.45418C94.7752 4.06308 94.6888 3.63288 94.6888 3.16218C94.6888 2.68078 94.7767 2.24418 94.952 1.85308C95.1278 1.46248 95.37 1.12948 95.6795 0.854583C95.9886 0.579683 96.3519 0.368784 96.7684 0.221284C97.1849 0.0737839 97.6341 8.39233e-05 98.1161 8.39233e-05C98.5624 8.39233e-05 99.0009 0.0752839 99.4325 0.225684C99.8637 0.375584 100.213 0.595283 100.481 0.884383L99.4461 1.87018C99.303 1.68318 99.1155 1.54448 98.8836 1.45368C98.6517 1.36338 98.4134 1.31798 98.1697 1.31798C97.9016 1.31798 97.6565 1.36438 97.4334 1.45808C97.2103 1.55138 97.0184 1.68028 96.8577 1.84478C96.697 2.00928 96.5721 2.20318 96.4827 2.42678C96.3933 2.65088 96.3489 2.89598 96.3489 3.16218C96.3489 3.43418 96.3933 3.68368 96.4827 3.91018C96.5721 4.13678 96.6956 4.33108 96.8533 4.49268C97.0105 4.65378 97.1995 4.78028 97.4197 4.87058C97.6399 4.96138 97.8811 5.00678 98.1428 5.00678C98.446 5.00678 98.7107 4.95018 98.9372 4.83688C99.1633 4.72358 99.3444 4.57618 99.4816 4.39448L100.544 5.34658C100.264 5.65278 99.9188 5.89498 99.5082 6.07328Z" fill="black"/>
<path d="M106.474 6.17978V3.66368H104.011V6.17978H102.484V0.161682H104.011V2.43948H106.474V0.161682H108V6.17978H106.474Z" fill="black"/>
<path d="M3.3115 1.40288V6.17978H1.7851V1.40288H0V0.161682H5.0962V1.40288H3.3115Z" fill="black"/>
<path d="M11.0498 6.17978V3.66368H8.5864V6.17978H7.06V0.161682H8.5864V2.43948H11.0498V0.161682H12.5757V6.17978H11.0498Z" fill="black"/>
<path d="M15.1899 6.17978V0.161682H19.4384V1.38578H16.6625V2.52498H19.2865V3.68908H16.6625V4.93858H19.599V6.17978H15.1899Z" fill="black"/>
<path d="M25.2866 6.17978V0.161682H26.8218V4.91318H29.2671V6.17978H25.2866Z" fill="black"/>
<path d="M31.2402 6.17978V0.161682H32.7754V6.17978H31.2402Z" fill="black"/>
<path d="M38.042 1.40288V6.17978H36.5156V1.40288H34.7304V0.161682H39.8266V1.40288H38.042Z" fill="black"/>
<path d="M44.7832 1.40288V6.17978H43.2568V1.40288H41.4716V0.161682H46.5678V1.40288H44.7832Z" fill="black"/>
<path d="M48.5317 6.17978V0.161682H50.0669V4.91318H52.5122V6.17978H48.5317Z" fill="black"/>
<path d="M54.4844 6.17978V0.161682H58.7328V1.38578H55.957V2.52498H58.581V3.68908H55.957V4.93858H58.8935V6.17978H54.4844Z" fill="black"/>
<path d="M113.82 17.0606L115.002 16.5699V14.1241L113.82 13.6602V12L119.838 14.6509V16.1323L113.82 18.7563V17.0606ZM118.232 15.3648L116.166 14.5616V16.1505L118.232 15.3648Z" fill="black"/>
<path d="M113.82 23.2232L116.209 21.8511V21.3311H113.82V19.8404H119.838V22.2501C119.838 22.5538 119.809 22.8497 119.749 23.1383C119.689 23.4269 119.589 23.6857 119.447 23.9147C119.306 24.1437 119.119 24.3268 118.886 24.464C118.654 24.6007 118.365 24.6691 118.019 24.6691C117.611 24.6691 117.268 24.5529 116.991 24.321C116.713 24.0891 116.515 23.7678 116.396 23.3571L113.82 25.0085V23.2232ZM117.994 23.1607C118.135 23.1607 118.25 23.129 118.338 23.0665C118.426 23.0035 118.494 22.9229 118.542 22.8243C118.59 22.7257 118.623 22.6148 118.64 22.4923C118.657 22.3697 118.665 22.2516 118.665 22.1383V21.3224H117.263V22.0485C117.263 22.174 117.272 22.3029 117.292 22.4342C117.312 22.566 117.348 22.6852 117.399 22.7931C117.45 22.9005 117.523 22.9889 117.62 23.0577C117.716 23.1261 117.841 23.1607 117.994 23.1607Z" fill="black"/>
<path d="M116.855 32.7486C116.379 32.7486 115.944 32.6622 115.55 32.4898C115.156 32.3169 114.819 32.0777 114.539 31.7711C114.258 31.4649 114.041 31.1002 113.888 30.6778C113.735 30.2554 113.659 29.7974 113.659 29.3033C113.659 28.8096 113.735 28.3531 113.888 27.9337C114.041 27.5143 114.258 27.151 114.539 26.8448C114.819 26.5382 115.156 26.2984 115.55 26.126C115.944 25.9536 116.379 25.8672 116.855 25.8672C117.336 25.8672 117.771 25.9536 118.16 26.126C118.548 26.2984 118.878 26.5381 119.15 26.8448C119.422 27.151 119.631 27.5142 119.779 27.9337C119.926 28.3531 120 28.8097 120 29.3033C120 29.7974 119.926 30.2554 119.779 30.6778C119.631 31.1002 119.422 31.4649 119.15 31.7711C118.878 32.0777 118.548 32.317 118.16 32.4898C117.771 32.6622 117.336 32.7486 116.855 32.7486ZM116.855 31.1153C117.115 31.1153 117.359 31.0704 117.586 30.9815C117.813 30.8921 118.006 30.7686 118.168 30.6109C118.33 30.4532 118.457 30.2628 118.551 30.0396C118.644 29.8165 118.691 29.5713 118.691 29.3033C118.691 29.0357 118.644 28.7916 118.551 28.5714C118.457 28.3517 118.33 28.1612 118.168 28.0006C118.006 27.84 117.812 27.7164 117.586 27.63C117.359 27.5436 117.115 27.5006 116.855 27.5006C116.583 27.5006 116.332 27.545 116.103 27.6344C115.873 27.7238 115.676 27.8473 115.512 28.005C115.347 28.1627 115.219 28.3517 115.125 28.5714C115.032 28.7916 114.985 29.0358 114.985 29.3033C114.985 29.5714 115.032 29.815 115.125 30.0352C115.219 30.2554 115.347 30.4458 115.512 30.6065C115.676 30.7672 115.873 30.8921 116.103 30.9815C116.332 31.0704 116.583 31.1153 116.855 31.1153Z" fill="black"/>
<path d="M115.1 39.4102C114.802 39.2823 114.547 39.0993 114.334 38.8615C114.122 38.6237 113.957 38.3365 113.837 38.0001C113.718 37.6642 113.659 37.2907 113.659 36.8801C113.659 36.4636 113.718 36.0891 113.837 35.7556C113.956 35.4226 114.122 35.1399 114.334 34.9079C114.547 34.6759 114.802 34.4973 115.1 34.3723C115.397 34.2473 115.727 34.1848 116.09 34.1848H119.838V35.7024H116.209C116.044 35.7024 115.889 35.7244 115.741 35.7693C115.594 35.8137 115.462 35.8821 115.346 35.9744C115.23 36.0667 115.138 36.1888 115.07 36.3406C115.002 36.492 114.968 36.6751 114.968 36.8894C114.968 37.1033 115.002 37.2863 115.07 37.4381C115.138 37.59 115.23 37.7131 115.346 37.8083C115.462 37.9035 115.594 37.9719 115.741 38.0139C115.889 38.0554 116.044 38.0764 116.209 38.0764H119.838V39.6022H116.09C115.727 39.6022 115.397 39.5381 115.1 39.4102Z" fill="black"/>
<path d="M113.82 45.3892L117.756 42.8453V42.8184L113.82 42.8545V41.3727H119.838V43.1133L115.911 45.648V45.6749L119.838 45.6388V47.1207H113.82V45.3892Z" fill="black"/>
<path d="M116.846 54.8447C116.319 54.8447 115.865 54.7422 115.482 54.5371C115.1 54.3315 114.785 54.061 114.538 53.7246C114.292 53.3887 114.111 53.0093 113.995 52.5869C113.878 52.1645 113.82 51.7358 113.82 51.3017V48.9453H119.838V51.2305C119.838 51.6768 119.789 52.1167 119.689 52.5513C119.59 52.9854 119.426 53.3721 119.197 53.7115C118.967 54.0509 118.66 54.3243 118.274 54.5328C117.889 54.7408 117.413 54.8447 116.846 54.8447ZM116.846 53.2563C117.186 53.2563 117.468 53.1982 117.692 53.082C117.916 52.9663 118.094 52.8115 118.227 52.6181C118.361 52.4247 118.455 52.2045 118.512 51.9575C118.569 51.7104 118.597 51.4565 118.597 51.1943V50.436H115.078V51.1587C115.078 51.4326 115.108 51.6958 115.168 51.9487C115.227 52.2016 115.325 52.4248 115.461 52.6181C115.597 52.8115 115.778 52.9662 116.005 53.082C116.232 53.1982 116.512 53.2563 116.846 53.2563Z" fill="black"/>
<path d="M113.927 84.749C113.748 84.3388 113.659 83.8657 113.659 83.3301C113.659 82.8423 113.735 82.3916 113.888 81.978C114.041 81.5644 114.258 81.206 114.539 80.9023C114.819 80.5991 115.155 80.3608 115.546 80.1884C115.937 80.016 116.367 79.9296 116.838 79.9296C117.319 79.9296 117.756 80.0175 118.147 80.1928C118.538 80.3686 118.871 80.6108 119.145 80.9203C119.42 81.2294 119.631 81.5927 119.779 82.0092C119.926 82.4257 120 82.8749 120 83.3569C120 83.8032 119.925 84.2417 119.774 84.6733C119.624 85.1045 119.405 85.4541 119.116 85.7221L118.13 84.6869C118.317 84.5438 118.456 84.3563 118.546 84.1244C118.637 83.8925 118.682 83.6542 118.682 83.4105C118.682 83.1424 118.636 82.8973 118.542 82.6742C118.449 82.4511 118.32 82.2592 118.155 82.0985C117.991 81.9379 117.797 81.8129 117.573 81.7235C117.349 81.6341 117.104 81.5897 116.838 81.5897C116.566 81.5897 116.316 81.6341 116.09 81.7235C115.863 81.8129 115.669 81.9364 115.507 82.0941C115.346 82.2513 115.22 82.4403 115.129 82.6605C115.039 82.8807 114.993 83.1219 114.993 83.3836C114.993 83.6868 115.05 83.9515 115.163 84.178C115.276 84.4041 115.424 84.5852 115.606 84.7224L114.653 85.7844C114.347 85.5046 114.105 85.1596 113.927 84.749Z" fill="black"/>
<path d="M116.855 93.3535C116.379 93.3535 115.944 93.2671 115.55 93.0947C115.156 92.9218 114.819 92.6826 114.539 92.3759C114.258 92.0697 114.041 91.705 113.888 91.2826C113.735 90.8602 113.659 90.4022 113.659 89.9081C113.659 89.4144 113.735 88.9579 113.888 88.5385C114.041 88.1191 114.258 87.7558 114.539 87.4496C114.819 87.143 115.156 86.9032 115.55 86.7308C115.944 86.5584 116.379 86.472 116.855 86.472C117.336 86.472 117.771 86.5584 118.16 86.7308C118.548 86.9032 118.878 87.1429 119.15 87.4496C119.422 87.7558 119.631 88.119 119.779 88.5385C119.926 88.9579 120 89.4145 120 89.9081C120 90.4022 119.926 90.8602 119.779 91.2826C119.631 91.705 119.422 92.0697 119.15 92.3759C118.878 92.6825 118.548 92.9218 118.16 93.0947C117.771 93.2671 117.336 93.3535 116.855 93.3535ZM116.855 91.7202C117.115 91.7202 117.359 91.6753 117.586 91.5864C117.813 91.497 118.006 91.3735 118.168 91.2158C118.33 91.0581 118.457 90.8677 118.551 90.6445C118.644 90.4214 118.691 90.1762 118.691 89.9082C118.691 89.6406 118.644 89.3965 118.551 89.1763C118.457 88.9566 118.33 88.7661 118.168 88.6055C118.006 88.4449 117.812 88.3213 117.586 88.2349C117.359 88.1485 117.115 88.1055 116.855 88.1055C116.583 88.1055 116.332 88.1499 116.103 88.2393C115.873 88.3287 115.676 88.4522 115.512 88.6099C115.347 88.7676 115.219 88.9566 115.125 89.1763C115.032 89.3965 114.985 89.6407 114.985 89.9082C114.985 90.1763 115.032 90.4199 115.125 90.6401C115.219 90.8603 115.347 91.0507 115.512 91.2114C115.676 91.3721 115.873 91.497 116.103 91.5864C116.332 91.6753 116.583 91.7202 116.855 91.7202Z" fill="black"/>
<path d="M113.82 98.2407L116.209 96.8686V96.3486H113.82V94.8579H119.838V97.2676C119.838 97.5713 119.809 97.8672 119.749 98.1558C119.689 98.4444 119.589 98.7032 119.447 98.9322C119.306 99.1612 119.119 99.3443 118.886 99.4815C118.654 99.6182 118.365 99.6866 118.019 99.6866C117.611 99.6866 117.268 99.5704 116.991 99.3385C116.713 99.1066 116.515 98.7853 116.396 98.3746L113.82 100.026V98.2407ZM117.994 98.1782C118.135 98.1782 118.25 98.1465 118.338 98.084C118.426 98.021 118.494 97.9404 118.542 97.8418C118.59 97.7432 118.623 97.6323 118.64 97.5098C118.657 97.3872 118.665 97.2691 118.665 97.1558V96.3399H117.263V97.066C117.263 97.1915 117.272 97.3204 117.292 97.4517C117.312 97.5835 117.348 97.7027 117.399 97.8106C117.45 97.918 117.523 98.0064 117.62 98.0752C117.716 98.1436 117.841 98.1782 117.994 98.1782Z" fill="black"/>
<path d="M113.82 105.288L117.756 102.744V102.717L113.82 102.753V101.271H119.838V103.012L115.911 105.546V105.573L119.838 105.537V107.019H113.82V105.288Z" fill="black"/>
<path d="M113.82 108.844H119.838V113.093H118.614V110.317H117.475V112.941H116.311V110.317H115.061V113.253H113.82V108.844Z" fill="black"/>
<path d="M113.82 118.215L116.209 116.843V116.323H113.82V114.832H119.838V117.242C119.838 117.545 119.809 117.841 119.749 118.13C119.689 118.418 119.589 118.677 119.447 118.906C119.306 119.135 119.119 119.318 118.886 119.456C118.654 119.592 118.365 119.661 118.019 119.661C117.611 119.661 117.268 119.544 116.991 119.313C116.713 119.081 116.515 118.759 116.396 118.349L113.82 120V118.215ZM117.994 118.152C118.135 118.152 118.25 118.121 118.338 118.058C118.426 117.995 118.494 117.914 118.542 117.816C118.59 117.717 118.623 117.606 118.64 117.484C118.657 117.361 118.665 117.243 118.665 117.13V116.314H117.263V117.04C117.263 117.166 117.272 117.294 117.292 117.426C117.312 117.558 117.348 117.677 117.399 117.785C117.45 117.892 117.523 117.98 117.62 118.049C117.716 118.118 117.841 118.152 117.994 118.152Z" fill="black"/>
<path d="M118.597 61.5115H113.82V59.9851H118.597V58.1999H119.838V63.2961H118.597V61.5115Z" fill="black"/>
<path d="M113.82 68.4646H116.336V66.0012H113.82V64.4748H119.838V66.0012H117.56V68.4646H119.838V69.9905H113.82V68.4646Z" fill="black"/>
<path d="M113.82 71.8191H119.838V76.0676H118.614V73.2917H117.475V75.9157H116.311V73.2917H115.061V76.2282H113.82V71.8191Z" fill="black"/>
<path d="M152.189 31.5772V44.0133H148.416V31.5772H144V28.3466H156.605V31.5772H152.189Z" fill="black"/>
<path d="M165.566 44.0133V38.0389C165.566 37.7292 165.544 37.4339 165.5 37.1535C165.455 36.8738 165.37 36.6264 165.246 36.4122C165.121 36.1985 164.955 36.0287 164.749 35.9032C164.543 35.7783 164.278 35.7154 163.955 35.7154C163.321 35.7154 162.836 35.9405 162.497 36.3901C162.158 36.8403 161.99 37.3973 161.99 38.0612V44.0133H158.37V27.2847H161.99V34.3876H162.034C162.284 33.9452 162.682 33.5508 163.227 33.2038C163.77 32.8575 164.425 32.684 165.191 32.684C165.942 32.684 166.57 32.8166 167.078 33.0819C167.586 33.3479 167.998 33.6906 168.314 34.1108C168.63 34.5316 168.859 35.0148 168.999 35.5604C169.138 36.106 169.209 36.6522 169.209 37.1979V44.0132L165.566 44.0133Z" fill="black"/>
<path d="M182.677 38.6363V39.0786C182.677 39.2263 182.67 39.3667 182.656 39.4994H174.687C174.716 39.8092 174.808 40.0895 174.962 40.3404C175.117 40.5913 175.316 40.8086 175.559 40.9928C175.801 41.1777 176.074 41.3212 176.376 41.4244C176.676 41.5276 176.99 41.5792 177.313 41.5792C177.887 41.5792 178.373 41.4724 178.771 41.2581C179.167 41.0444 179.492 40.7683 179.742 40.4285L182.258 42.0216C181.743 42.7743 181.062 43.353 180.216 43.7588C179.37 44.1646 178.387 44.3675 177.269 44.3675C176.445 44.3675 175.665 44.2378 174.929 43.9803C174.193 43.7222 173.549 43.3459 172.998 42.8518C172.446 42.3578 172.011 41.7492 171.695 41.0258C171.379 40.3037 171.221 39.4772 171.221 38.548C171.221 37.6482 171.375 36.833 171.684 36.1025C171.993 35.3725 172.412 34.7525 172.943 34.2441C173.472 33.7351 174.097 33.3401 174.818 33.0598C175.539 32.7801 176.32 32.6396 177.159 32.6396C177.968 32.6396 178.711 32.7758 179.389 33.0489C180.065 33.3221 180.646 33.7164 181.132 34.2327C181.617 34.7495 181.997 35.3761 182.269 36.1139C182.541 36.8516 182.677 37.6927 182.677 38.6363ZM179.344 37.2425C179.344 36.6668 179.164 36.1729 178.803 35.7599C178.443 35.3469 177.901 35.1404 177.18 35.1404C176.828 35.1404 176.504 35.1956 176.209 35.3061C175.916 35.4165 175.658 35.5684 175.437 35.7599C175.216 35.9513 175.04 36.1765 174.907 36.4346C174.774 36.6927 174.701 36.9622 174.687 37.2425H179.344Z" fill="black"/>
<path d="M201.956 43.7367C200.94 44.2013 199.77 44.4335 198.445 44.4335C197.238 44.4335 196.123 44.2349 195.1 43.8363C194.077 43.4383 193.191 42.8741 192.44 42.1435C191.691 41.413 191.101 40.5391 190.675 39.5216C190.247 38.5036 190.034 37.3823 190.034 36.1577C190.034 34.9044 190.251 33.7681 190.686 32.75C191.119 31.732 191.719 30.8658 192.485 30.1503C193.25 29.4348 194.148 28.8856 195.178 28.5014C196.208 28.1185 197.32 27.9263 198.511 27.9263C199.615 27.9263 200.7 28.122 201.768 28.5128C202.835 28.9035 203.699 29.475 204.362 30.2277L201.801 32.7943C201.448 32.3076 200.984 31.9462 200.41 31.7102C199.836 31.4744 199.247 31.3561 198.644 31.3561C197.982 31.3561 197.375 31.478 196.823 31.7211C196.271 31.9648 195.796 32.3004 195.399 32.7277C195.001 33.1557 194.692 33.6611 194.472 34.2439C194.251 34.8267 194.141 35.4643 194.141 36.1575C194.141 36.8658 194.251 37.5153 194.472 38.1048C194.692 38.6954 194.997 39.2002 195.388 39.6205C195.777 40.0413 196.245 40.3696 196.789 40.6055C197.334 40.8414 197.93 40.9597 198.577 40.9597C199.328 40.9597 199.983 40.812 200.542 40.5167C201.102 40.222 201.55 39.8384 201.889 39.3666L204.516 41.8445C203.824 42.641 202.97 43.272 201.956 43.7367Z" fill="black"/>
<path d="M213.61 44.0133V38.0389C213.61 37.7292 213.588 37.4339 213.544 37.1535C213.5 36.8738 213.415 36.6264 213.29 36.4122C213.165 36.1985 212.999 36.0287 212.793 35.9032C212.587 35.7783 212.322 35.7154 211.999 35.7154C211.365 35.7154 210.88 35.9405 210.541 36.3901C210.203 36.8403 210.034 37.3973 210.034 38.0612V44.0133H206.414V27.2847H210.034V34.3876H210.078C210.328 33.9452 210.726 33.5508 211.271 33.2038C211.814 32.8575 212.47 32.684 213.235 32.684C213.986 32.684 214.615 32.8166 215.122 33.0819C215.63 33.3479 216.042 33.6906 216.358 34.1108C216.675 34.5316 216.903 35.0148 217.043 35.5604C217.182 36.106 217.253 36.6522 217.253 37.1979V44.0132L213.61 44.0133Z" fill="black"/>
<path d="M227.671 44.0133V42.4862H227.627C227.495 42.7377 227.321 42.973 227.108 43.1945C226.895 43.4161 226.645 43.6075 226.358 43.7696C226.071 43.9323 225.755 44.0649 225.409 44.1682C225.063 44.2714 224.699 44.323 224.317 44.323C223.58 44.323 222.958 44.1904 222.451 43.9251C221.943 43.6591 221.531 43.3164 221.215 42.8956C220.898 42.4754 220.67 41.9964 220.531 41.4573C220.391 40.919 220.32 40.3696 220.32 39.8091V32.9938H223.963V38.9682C223.963 39.2779 223.985 39.5732 224.029 39.8536C224.073 40.134 224.157 40.3843 224.283 40.6057C224.408 40.8272 224.574 41.0007 224.78 41.1256C224.986 41.2511 225.258 41.314 225.597 41.314C226.229 41.314 226.712 41.0781 227.042 40.6057C227.374 40.1339 227.539 39.5804 227.539 38.946V32.9939H231.16V44.0134L227.671 44.0133Z" fill="black"/>
<path d="M241.555 35.9807C241.394 35.9369 241.235 35.9074 241.081 35.8925C240.926 35.878 240.776 35.8702 240.628 35.8702C240.143 35.8702 239.735 35.959 239.403 36.1349C239.073 36.3121 238.807 36.5251 238.609 36.7748C238.41 37.0251 238.267 37.2976 238.178 37.5918C238.089 37.8859 238.045 38.1434 238.045 38.3637V44.0133H234.426V33.0069H237.913V34.6001H237.958C238.237 34.0358 238.634 33.5754 239.149 33.2188C239.664 32.8623 240.261 32.6841 240.937 32.6841C241.085 32.6841 241.228 32.6913 241.368 32.7057C241.507 32.7207 241.621 32.7429 241.71 32.7724L241.555 35.9807Z" fill="black"/>
<path d="M250.944 36.5564C250.738 36.2904 250.459 36.0767 250.105 35.9147C249.752 35.7527 249.392 35.671 249.024 35.671C248.641 35.671 248.295 35.7484 247.986 35.9033C247.677 36.0582 247.412 36.2653 247.192 36.5234C246.97 36.7815 246.798 37.0798 246.673 37.4195C246.547 37.7587 246.485 38.12 246.485 38.5036C246.485 38.8873 246.544 39.2485 246.661 39.5878C246.78 39.9275 246.952 40.2258 247.181 40.4839C247.408 40.742 247.68 40.9455 247.998 41.0926C248.314 41.2402 248.671 41.3141 249.068 41.3141C249.436 41.3141 249.8 41.2438 250.161 41.1034C250.521 40.9636 250.812 40.7607 251.033 40.4953L253.041 42.9516C252.585 43.394 251.997 43.7409 251.276 43.9912C250.555 44.2421 249.788 44.3676 248.98 44.3676C248.111 44.3676 247.301 44.235 246.547 43.9691C245.795 43.7037 245.141 43.3166 244.587 42.8076C244.031 42.2986 243.594 41.6827 243.275 40.96C242.958 40.2372 242.799 39.4184 242.799 38.5036C242.799 37.6039 242.958 36.7923 243.275 36.0696C243.594 35.3469 244.031 34.731 244.587 34.222C245.141 33.7129 245.795 33.3222 246.547 33.049C247.301 32.7759 248.104 32.6396 248.957 32.6396C249.355 32.6396 249.749 32.6768 250.138 32.7501C250.528 32.824 250.903 32.9236 251.265 33.049C251.624 33.1745 251.956 33.3293 252.258 33.5137C252.559 33.6985 252.821 33.9008 253.041 34.1223L250.944 36.5564Z" fill="black"/>
<path d="M262.273 44.0133V38.0389C262.273 37.7292 262.252 37.4339 262.208 37.1535C262.163 36.8738 262.078 36.6264 261.954 36.4122C261.829 36.1985 261.663 36.0287 261.457 35.9032C261.251 35.7783 260.986 35.7154 260.663 35.7154C260.029 35.7154 259.544 35.9405 259.205 36.3901C258.866 36.8403 258.697 37.3973 258.697 38.0612V44.0133H255.078V27.2847H258.697V34.3876H258.742C258.992 33.9452 259.39 33.5508 259.934 33.2038C260.478 32.8575 261.133 32.684 261.899 32.684C262.65 32.684 263.278 32.8166 263.786 33.0819C264.294 33.3479 264.706 33.6906 265.022 34.1108C265.338 34.5316 265.567 35.0148 265.707 35.5604C265.846 36.106 265.917 36.6522 265.917 37.1979V44.0132L262.273 44.0133Z" fill="black"/>
<path d="M285.274 38.4591C285.274 39.3589 285.111 40.1741 284.788 40.9046C284.464 41.6346 284.023 42.254 283.463 42.763C282.904 43.272 282.257 43.667 281.521 43.9467C280.785 44.227 279.997 44.3675 279.159 44.3675C278.335 44.3675 277.551 44.2271 276.808 43.9467C276.064 43.6671 275.418 43.272 274.865 42.763C274.313 42.254 273.875 41.6345 273.552 40.9046C273.228 40.1741 273.067 39.359 273.067 38.4591C273.067 37.5593 273.228 36.7484 273.552 36.0251C273.875 35.3023 274.313 34.6901 274.865 34.1883C275.418 33.6871 276.064 33.3034 276.808 33.0376C277.551 32.7723 278.335 32.6396 279.159 32.6396C279.997 32.6396 280.785 32.7723 281.521 33.0376C282.257 33.3035 282.904 33.6871 283.463 34.1883C284.023 34.6901 284.464 35.3023 284.788 36.0251C285.111 36.7484 285.274 37.5594 285.274 38.4591ZM281.785 38.4591C281.785 38.105 281.727 37.7587 281.609 37.4195C281.492 37.0798 281.322 36.7815 281.101 36.5234C280.881 36.2653 280.608 36.0552 280.285 35.8925C279.961 35.7304 279.585 35.6488 279.159 35.6488C278.732 35.6488 278.356 35.7304 278.033 35.8925C277.71 36.0552 277.44 36.2653 277.227 36.5234C277.014 36.7815 276.852 37.0798 276.742 37.4195C276.632 37.7587 276.577 38.105 276.577 38.4591C276.577 38.8133 276.632 39.1602 276.742 39.4993C276.852 39.8385 277.018 40.1446 277.238 40.4177C277.459 40.6909 277.731 40.9081 278.055 41.0702C278.379 41.2329 278.754 41.3139 279.182 41.3139C279.608 41.3139 279.983 41.2329 280.307 41.0702C280.631 40.9081 280.903 40.6908 281.124 40.4177C281.345 40.1446 281.51 39.8385 281.62 39.4993C281.73 39.1602 281.785 38.8133 281.785 38.4591Z" fill="black"/>
<path d="M294.832 29.9619C294.701 29.9181 294.546 29.8815 294.369 29.8515C294.193 29.8221 294.016 29.8071 293.839 29.8071C293.501 29.8071 293.229 29.8665 293.023 29.9842C292.815 30.1025 292.654 30.2609 292.536 30.4602C292.419 30.6595 292.338 30.8846 292.293 31.1349C292.25 31.3858 292.227 31.6367 292.227 31.8877V32.9939H294.678V35.6933H292.227V44.0135H288.607V35.6933H286.599V32.9939H288.607V31.9315C288.607 31.2531 288.681 30.6079 288.829 29.9956C288.975 29.3833 289.229 28.8449 289.59 28.3803C289.95 27.9151 290.436 27.5465 291.047 27.2735C291.657 27.0009 292.419 26.8641 293.332 26.8641C293.641 26.8641 293.946 26.8833 294.248 26.9199C294.549 26.9565 294.825 27.0117 295.076 27.0856L294.832 29.9619Z" fill="black"/>
<path d="M306.633 35.6932V39.9136C306.633 40.4323 306.731 40.8206 306.93 41.0799C307.128 41.3393 307.485 41.4689 308 41.4689C308.178 41.4689 308.364 41.4538 308.563 41.4245C308.762 41.3951 308.927 41.3506 309.06 41.2918L309.105 43.9468C308.854 44.0356 308.538 44.1131 308.155 44.1791C307.773 44.2457 307.39 44.2787 307.008 44.2787C306.271 44.2787 305.653 44.1863 305.154 44.0014C304.653 43.8171 304.252 43.5506 303.95 43.203C303.648 42.8555 303.431 42.4413 303.299 41.9606C303.167 41.4803 303.1 40.9437 303.1 40.3525V35.6933H301.334V32.9939H303.078V30.0952H306.633V32.9939H309.215V35.6933L306.633 35.6932Z" fill="black"/>
<path d="M318.888 44.0133V38.0389C318.888 37.7292 318.867 37.4339 318.822 37.1535C318.778 36.8738 318.693 36.6264 318.568 36.4122C318.444 36.1985 318.277 36.0287 318.071 35.9032C317.865 35.7783 317.601 35.7154 317.277 35.7154C316.644 35.7154 316.159 35.9405 315.82 36.3901C315.481 36.8403 315.312 37.3973 315.312 38.0612V44.0133H311.693V27.2847H315.312V34.3876H315.356C315.607 33.9452 316.004 33.5508 316.549 33.2038C317.093 32.8575 317.748 32.684 318.513 32.684C319.264 32.684 319.893 32.8166 320.401 33.0819C320.909 33.3479 321.321 33.6906 321.637 34.1108C321.953 34.5316 322.182 35.0148 322.322 35.5604C322.461 36.106 322.531 36.6522 322.531 37.1979V44.0132L318.888 44.0133Z" fill="black"/>
<path d="M336 38.6363V39.0786C336 39.2263 335.993 39.3667 335.978 39.4994H328.009C328.038 39.8092 328.13 40.0895 328.285 40.3404C328.439 40.5913 328.638 40.8086 328.881 40.9928C329.123 41.1777 329.396 41.3212 329.698 41.4244C329.999 41.5276 330.312 41.5792 330.636 41.5792C331.209 41.5792 331.696 41.4724 332.093 41.2581C332.49 41.0444 332.814 40.7683 333.065 40.4285L335.581 42.0216C335.066 42.7743 334.384 43.353 333.539 43.7588C332.692 44.1646 331.71 44.3675 330.591 44.3675C329.767 44.3675 328.988 44.2378 328.251 43.9803C327.516 43.7222 326.871 43.3459 326.321 42.8518C325.768 42.3578 325.334 41.7492 325.018 41.0258C324.701 40.3037 324.543 39.4772 324.543 38.548C324.543 37.6482 324.698 36.833 325.007 36.1025C325.316 35.3725 325.735 34.7525 326.265 34.2441C326.795 33.7351 327.42 33.3401 328.141 33.0598C328.862 32.7801 329.643 32.6396 330.481 32.6396C331.291 32.6396 332.033 32.7758 332.711 33.0489C333.388 33.3221 333.969 33.7164 334.455 34.2327C334.94 34.7495 335.32 35.3761 335.591 36.1139C335.863 36.8516 336 37.6927 336 38.6363ZM332.667 37.2425C332.667 36.6668 332.486 36.1729 332.126 35.7599C331.765 35.3469 331.224 35.1404 330.503 35.1404C330.151 35.1404 329.826 35.1956 329.532 35.3061C329.238 35.4165 328.981 35.5684 328.759 35.7599C328.539 35.9513 328.363 36.1765 328.23 36.4346C328.097 36.6927 328.024 36.9622 328.009 37.2425H332.667Z" fill="black"/>
<path d="M152.189 55.4924V67.9285H148.416V55.4924H144V52.2618H156.605V55.4924H152.189Z" fill="black"/>
<path d="M163.866 59.8959C163.704 59.8521 163.546 59.8226 163.392 59.8077C163.237 59.7932 163.086 59.7854 162.939 59.7854C162.454 59.7854 162.046 59.8742 161.714 60.0501C161.383 60.2273 161.118 60.4403 160.92 60.69C160.721 60.9403 160.577 61.2128 160.489 61.5069C160.4 61.801 160.356 62.0586 160.356 62.2789V67.9285H156.737V56.9221H160.224V58.5152H160.269C160.548 57.951 160.945 57.4906 161.46 57.134C161.975 56.7775 162.572 56.5992 163.248 56.5992C163.396 56.5992 163.539 56.6065 163.679 56.6209C163.818 56.6359 163.932 56.6581 164.021 56.6876L163.866 59.8959Z" fill="black"/>
<path d="M165.856 58.4133C166.502 57.7938 167.257 57.3292 168.118 57.0195C168.979 56.7098 169.858 56.5549 170.756 56.5549C171.683 56.5549 172.467 56.6696 173.107 56.8977C173.747 57.1269 174.265 57.4805 174.663 57.9601C175.061 58.4398 175.35 59.0442 175.535 59.7747C175.719 60.5046 175.81 61.3713 175.81 62.3744V67.9286H172.5V66.7557H172.433C172.154 67.2131 171.73 67.5672 171.165 67.8181C170.597 68.0684 169.983 68.1939 169.32 68.1939C168.88 68.1939 168.423 68.1351 167.953 68.0168C167.481 67.8991 167.051 67.707 166.66 67.4417C166.271 67.1764 165.95 66.8222 165.701 66.3799C165.451 65.9369 165.325 65.3913 165.325 64.7423C165.325 63.9452 165.542 63.3035 165.977 62.8167C166.41 62.3299 166.969 61.9541 167.654 61.6882C168.338 61.4228 169.1 61.2458 169.94 61.1575C170.778 61.0687 171.595 61.0243 172.389 61.0243V60.8478C172.389 60.3021 172.198 59.9 171.815 59.6413C171.433 59.3837 170.961 59.2541 170.403 59.2541C169.887 59.2541 169.391 59.3652 168.912 59.586C168.434 59.8076 168.026 60.0728 167.687 60.3825L165.856 58.4133ZM172.5 63.1271H172.037C171.639 63.1271 171.238 63.1458 170.833 63.1824C170.428 63.219 170.068 63.2892 169.752 63.3925C169.434 63.4957 169.173 63.647 168.968 63.8463C168.761 64.0449 168.658 64.3073 168.658 64.6313C168.658 64.8384 168.706 65.0155 168.802 65.1626C168.898 65.3103 169.019 65.428 169.166 65.5168C169.313 65.605 169.483 65.668 169.674 65.7046C169.865 65.7418 170.05 65.7599 170.226 65.7599C170.961 65.7599 171.524 65.5576 171.915 65.1518C172.305 64.746 172.5 64.1968 172.5 63.5029V63.1271Z" fill="black"/>
<path d="M185.689 67.9286V61.9098C185.689 61.6001 185.662 61.3054 185.611 61.0244C185.559 60.7447 185.476 60.4973 185.357 60.2831C185.24 60.07 185.074 59.9002 184.861 59.7747C184.647 59.6492 184.379 59.5862 184.055 59.5862C183.732 59.5862 183.448 59.6493 183.205 59.7747C182.963 59.9002 182.761 60.073 182.598 60.2945C182.436 60.5161 182.315 60.77 182.234 61.0581C182.153 61.3456 182.113 61.6445 182.113 61.9542V67.9286H178.471V56.9091H181.98V58.4356H182.024C182.157 58.2003 182.329 57.9673 182.543 57.7387C182.756 57.51 183.006 57.3149 183.294 57.1523C183.581 56.9902 183.894 56.8576 184.231 56.7543C184.57 56.6511 184.931 56.5995 185.314 56.5995C186.049 56.5995 186.674 56.7321 187.189 56.9974C187.704 57.2634 188.12 57.6061 188.437 58.0263C188.754 58.4471 188.981 58.9303 189.121 59.4759C189.261 60.0215 189.331 60.5677 189.331 61.1134V67.9287L185.689 67.9286Z" fill="black"/>
<path d="M198.962 60.1618C198.668 59.8815 198.323 59.6456 197.925 59.4535C197.528 59.2621 197.108 59.166 196.666 59.166C196.328 59.166 196.016 59.2321 195.729 59.3653C195.441 59.4979 195.299 59.7267 195.299 60.0508C195.299 60.3611 195.456 60.582 195.773 60.7147C196.089 60.8479 196.601 60.9949 197.307 61.1576C197.719 61.2458 198.135 61.3713 198.554 61.5334C198.973 61.6961 199.353 61.9098 199.691 62.1751C200.03 62.441 200.301 62.7657 200.507 63.1487C200.713 63.5328 200.818 63.9896 200.818 64.5209C200.818 65.2142 200.678 65.8007 200.397 66.2802C200.118 66.7599 199.754 67.147 199.305 67.4417C198.856 67.737 198.352 67.9507 197.792 68.0834C197.233 68.216 196.674 68.2826 196.115 68.2826C195.218 68.2826 194.338 68.1386 193.477 67.8511C192.616 67.5636 191.899 67.1398 191.325 66.5785L193.355 64.432C193.68 64.7861 194.076 65.0814 194.548 65.3174C195.019 65.5533 195.519 65.6716 196.049 65.6716C196.343 65.6716 196.634 65.6019 196.921 65.4615C197.208 65.321 197.352 65.0743 197.352 64.7202C197.352 64.3811 197.174 64.1302 196.821 63.9675C196.468 63.8054 195.917 63.6356 195.166 63.4584C194.783 63.3702 194.401 63.2526 194.017 63.1049C193.635 62.9572 193.293 62.758 192.991 62.5071C192.689 62.2568 192.443 61.947 192.252 61.5778C192.061 61.2092 191.965 60.7669 191.965 60.25C191.965 59.5861 192.105 59.0219 192.384 58.5573C192.664 58.0926 193.025 57.7133 193.467 57.4179C193.907 57.1226 194.397 56.9053 194.934 56.7649C195.471 56.625 196.004 56.5547 196.535 56.5547C197.359 56.5547 198.165 56.6838 198.952 56.9419C199.739 57.2 200.404 57.5871 200.949 58.1034L198.962 60.1618Z" fill="black"/>
<path d="M210.773 53.8771C210.642 53.8333 210.487 53.7967 210.31 53.7667C210.134 53.7373 209.957 53.7223 209.781 53.7223C209.442 53.7223 209.17 53.7817 208.964 53.8994C208.757 54.0177 208.595 54.1761 208.478 54.3754C208.36 54.5747 208.279 54.7998 208.234 55.0501C208.191 55.3011 208.169 55.552 208.169 55.8029V56.9091H210.619V59.6085H208.169V67.9287H204.548V59.6085H202.54V56.9091H204.548V55.8467C204.548 55.1683 204.622 54.5231 204.77 53.9108C204.916 53.2985 205.17 52.7601 205.531 52.2955C205.891 51.8303 206.377 51.4617 206.988 51.1887C207.599 50.9161 208.36 50.7793 209.273 50.7793C209.582 50.7793 209.887 50.7985 210.189 50.8351C210.49 50.8717 210.766 50.9269 211.017 51.0008L210.773 53.8771Z" fill="black"/>
<path d="M231.987 66.8883C231.987 67.9652 231.832 68.9021 231.523 69.6987C231.214 70.4953 230.78 71.1555 230.22 71.679C229.661 72.2031 228.981 72.5938 228.178 72.8519C227.376 73.11 226.49 73.2391 225.518 73.2391C224.547 73.2391 223.551 73.0914 222.528 72.7967C221.504 72.5014 220.618 72.074 219.868 71.5133L221.678 68.9244C222.207 69.3962 222.793 69.7468 223.432 69.9754C224.073 70.2041 224.702 70.3181 225.32 70.3181C226.379 70.3181 227.163 70.0379 227.67 69.4772C228.178 68.9166 228.432 68.1723 228.432 67.2424V66.5785H228.366C228.027 67.0215 227.571 67.3751 226.997 67.641C226.424 67.9063 225.769 68.0389 225.033 68.0389C224.194 68.0389 223.451 67.8883 222.803 67.5858C222.155 67.2832 221.608 66.8738 221.159 66.3576C220.71 65.8414 220.367 65.2399 220.133 64.5539C219.897 63.8678 219.779 63.1415 219.779 62.3743C219.779 61.6078 219.897 60.8773 220.133 60.184C220.367 59.4907 220.71 58.8784 221.159 58.3472C221.608 57.8159 222.155 57.3922 222.803 57.0746C223.451 56.7576 224.187 56.5992 225.01 56.5992C225.703 56.5992 226.365 56.739 226.997 57.0194C227.63 57.2996 228.137 57.7349 228.521 58.3249H228.565V56.9089H231.987L231.987 66.8883ZM228.542 62.3522C228.542 61.9836 228.48 61.6294 228.356 61.2903C228.23 60.9512 228.05 60.6523 227.814 60.3942C227.578 60.1361 227.299 59.9332 226.976 59.7855C226.651 59.6385 226.284 59.564 225.872 59.564C225.46 59.564 225.096 59.6385 224.78 59.7855C224.462 59.9332 224.194 60.1324 223.974 60.3827C223.753 60.6343 223.583 60.929 223.466 61.2682C223.347 61.6079 223.29 61.9687 223.29 62.3523C223.29 62.7215 223.347 63.0756 223.466 63.4147C223.583 63.7538 223.753 64.0528 223.974 64.3109C224.194 64.569 224.462 64.7755 224.78 64.9304C225.096 65.0853 225.46 65.1626 225.872 65.1626C226.284 65.1626 226.655 65.0853 226.987 64.9304C227.317 64.7755 227.598 64.5726 227.825 64.3217C228.054 64.0714 228.23 63.7761 228.356 63.4369C228.48 63.0978 228.542 62.7364 228.542 62.3522Z" fill="black"/>
<path d="M242.061 67.9286V66.4015H242.017C241.885 66.653 241.712 66.8883 241.499 67.1098C241.285 67.3314 241.035 67.5228 240.749 67.6849C240.461 67.8476 240.145 67.9802 239.799 68.0835C239.453 68.1867 239.089 68.2383 238.707 68.2383C237.97 68.2383 237.349 68.1057 236.841 67.8404C236.333 67.5744 235.921 67.2317 235.605 66.8109C235.289 66.3907 235.06 65.9117 234.921 65.3726C234.781 64.8343 234.71 64.2849 234.71 63.7244V56.9091H238.354V62.8835C238.354 63.1932 238.375 63.4885 238.42 63.7689C238.464 64.0493 238.548 64.2996 238.673 64.521C238.798 64.7425 238.964 64.9159 239.17 65.0409C239.376 65.1664 239.648 65.2293 239.987 65.2293C240.62 65.2293 241.102 64.9934 241.433 64.521C241.764 64.0492 241.93 63.4957 241.93 62.8613V56.9092H245.55V67.9287L242.061 67.9286Z" fill="black"/>
<path d="M255.778 59.8959C255.616 59.8521 255.458 59.8226 255.304 59.8077C255.149 59.7932 254.998 59.7854 254.851 59.7854C254.366 59.7854 253.958 59.8742 253.626 60.0501C253.295 60.2273 253.029 60.4403 252.832 60.69C252.633 60.9403 252.489 61.2128 252.401 61.5069C252.312 61.801 252.268 62.0586 252.268 62.2789V67.9285H248.649V56.9221H252.136V58.5152H252.18C252.459 57.951 252.857 57.4906 253.372 57.134C253.887 56.7775 254.483 56.5992 255.16 56.5992C255.307 56.5992 255.451 56.6065 255.591 56.6209C255.73 56.6359 255.844 56.6581 255.933 56.6876L255.778 59.8959Z" fill="black"/>
<path d="M257.463 58.4133C258.11 57.7938 258.865 57.3292 259.726 57.0195C260.587 56.7098 261.466 56.5549 262.364 56.5549C263.291 56.5549 264.074 56.6696 264.715 56.8977C265.355 57.1269 265.873 57.4805 266.271 57.9601C266.668 58.4398 266.958 59.0442 267.143 59.7747C267.327 60.5046 267.418 61.3713 267.418 62.3744V67.9286H264.108V66.7557H264.041C263.762 67.2131 263.338 67.5672 262.773 67.8181C262.205 68.0684 261.59 68.1939 260.928 68.1939C260.487 68.1939 260.031 68.1351 259.56 68.0168C259.089 67.8991 258.659 67.707 258.268 67.4417C257.879 67.1764 257.558 66.8222 257.309 66.3799C257.059 65.9369 256.933 65.3913 256.933 64.7423C256.933 63.9452 257.15 63.3035 257.584 62.8167C258.018 62.3299 258.577 61.9541 259.262 61.6882C259.946 61.4228 260.708 61.2458 261.547 61.1575C262.386 61.0687 263.202 61.0243 263.997 61.0243V60.8478C263.997 60.3021 263.806 59.9 263.423 59.6413C263.041 59.3837 262.569 59.2541 262.011 59.2541C261.495 59.2541 260.999 59.3652 260.52 59.586C260.042 59.8076 259.634 60.0728 259.295 60.3825L257.463 58.4133ZM264.108 63.1271H263.644C263.247 63.1271 262.846 63.1458 262.441 63.1824C262.036 63.219 261.676 63.2892 261.359 63.3925C261.042 63.4957 260.781 63.647 260.576 63.8463C260.369 64.0449 260.266 64.3073 260.266 64.6313C260.266 64.8384 260.314 65.0155 260.41 65.1626C260.505 65.3103 260.626 65.428 260.774 65.5168C260.921 65.605 261.091 65.668 261.282 65.7046C261.473 65.7418 261.658 65.7599 261.834 65.7599C262.569 65.7599 263.132 65.5576 263.522 65.1518C263.913 64.746 264.108 64.1968 264.108 63.5029V63.1271Z" fill="black"/>
<path d="M274.26 59.6084V63.8288C274.26 64.3475 274.358 64.7358 274.557 64.9951C274.756 65.2545 275.113 65.3841 275.628 65.3841C275.805 65.3841 275.992 65.369 276.191 65.3397C276.39 65.3103 276.555 65.2658 276.688 65.2071L276.732 67.862C276.482 67.9508 276.166 68.0283 275.782 68.0943C275.4 68.161 275.017 68.1939 274.635 68.1939C273.899 68.1939 273.281 68.1015 272.781 67.9166C272.281 67.7323 271.879 67.4658 271.578 67.1183C271.276 66.7707 271.059 66.3565 270.926 65.8758C270.794 65.3955 270.727 64.8589 270.727 64.2677V59.6085H268.962V56.9091H270.706V54.0104H274.26V56.9091H276.842V59.6085L274.26 59.6084Z" fill="black"/>
<path d="M283.359 53.3904C283.359 53.6706 283.303 53.933 283.192 54.176C283.082 54.4197 282.935 54.6298 282.752 54.807C282.567 54.9841 282.347 55.1239 282.089 55.2272C281.832 55.3304 281.562 55.382 281.283 55.382C280.694 55.382 280.202 55.187 279.804 54.7956C279.407 54.4049 279.208 53.9367 279.208 53.3905C279.208 53.1251 279.259 52.8706 279.362 52.6275C279.465 52.3838 279.613 52.1737 279.804 51.9966C279.996 51.8195 280.216 51.6754 280.467 51.5651C280.717 51.4547 280.989 51.3994 281.283 51.3994C281.562 51.3994 281.832 51.451 282.089 51.5542C282.347 51.6575 282.567 51.7973 282.752 51.9745C282.935 52.1516 283.082 52.3616 283.192 52.6054C283.303 52.8485 283.359 53.1107 283.359 53.3904ZM279.474 67.9286V56.9091H283.093V67.9286H279.474Z" fill="black"/>
<path d="M297.754 62.3744C297.754 63.2741 297.591 64.0893 297.268 64.8198C296.945 65.5498 296.503 66.1692 295.944 66.6782C295.384 67.1872 294.738 67.5822 294.001 67.862C293.266 68.1422 292.478 68.2828 291.639 68.2828C290.815 68.2828 290.031 68.1423 289.288 67.862C288.545 67.5823 287.898 67.1872 287.346 66.6782C286.794 66.1692 286.355 65.5497 286.032 64.8198C285.709 64.0893 285.547 63.2742 285.547 62.3744C285.547 61.4745 285.709 60.6637 286.032 59.9403C286.355 59.2176 286.794 58.6053 287.346 58.1035C287.898 57.6023 288.545 57.2187 289.288 56.9528C290.031 56.6875 290.815 56.5549 291.639 56.5549C292.478 56.5549 293.266 56.6875 294.001 56.9528C294.737 57.2188 295.384 57.6023 295.944 58.1035C296.503 58.6053 296.945 59.2176 297.268 59.9403C297.592 60.6637 297.754 61.4746 297.754 62.3744ZM294.266 62.3744C294.266 62.0202 294.207 61.6739 294.09 61.3348C293.972 60.995 293.802 60.6967 293.582 60.4386C293.361 60.1805 293.088 59.9704 292.765 59.8077C292.442 59.6456 292.066 59.564 291.639 59.564C291.213 59.564 290.837 59.6456 290.513 59.8077C290.19 59.9704 289.921 60.1805 289.707 60.4386C289.494 60.6967 289.332 60.995 289.222 61.3348C289.112 61.6739 289.057 62.0202 289.057 62.3744C289.057 62.7285 289.112 63.0754 289.222 63.4146C289.333 63.7537 289.498 64.0598 289.718 64.333C289.94 64.6061 290.212 64.8233 290.535 64.9854C290.86 65.1481 291.234 65.2291 291.662 65.2291C292.088 65.2291 292.463 65.1481 292.788 64.9854C293.111 64.8233 293.383 64.606 293.605 64.333C293.825 64.0598 293.99 63.7537 294.1 63.4146C294.211 63.0754 294.266 62.7285 294.266 62.3744Z" fill="black"/>
<path d="M307.234 67.9286V61.9098C307.234 61.6001 307.208 61.3054 307.156 61.0244C307.105 60.7447 307.021 60.4973 306.902 60.2831C306.785 60.07 306.62 59.9002 306.406 59.7747C306.192 59.6492 305.924 59.5862 305.6 59.5862C305.277 59.5862 304.993 59.6493 304.75 59.7747C304.508 59.9002 304.306 60.073 304.143 60.2945C303.981 60.5161 303.86 60.77 303.779 61.0581C303.698 61.3456 303.658 61.6445 303.658 61.9542V67.9286H300.016V56.9091H303.525V58.4356H303.569C303.702 58.2003 303.875 57.9673 304.088 57.7387C304.301 57.51 304.551 57.3149 304.839 57.1523C305.126 56.9902 305.439 56.8576 305.776 56.7543C306.115 56.6511 306.476 56.5995 306.859 56.5995C307.594 56.5995 308.219 56.7321 308.734 56.9974C309.249 57.2634 309.665 57.6061 309.982 58.0263C310.299 58.4471 310.526 58.9303 310.666 59.4759C310.806 60.0215 310.876 60.5677 310.876 61.1134V67.9287L307.234 67.9286Z" fill="black"/>
<path d="M217.499 53.3904C217.499 53.6706 217.444 53.933 217.334 54.176C217.224 54.4197 217.072 54.6298 216.881 54.807C216.69 54.9841 216.469 55.1239 216.219 55.2272C215.969 55.3304 215.704 55.382 215.424 55.382C214.836 55.382 214.342 55.187 213.945 54.7956C213.548 54.4049 213.349 53.9367 213.349 53.3905C213.349 53.1251 213.401 52.8706 213.504 52.6275C213.607 52.3838 213.754 52.1737 213.945 51.9966C214.136 51.8195 214.357 51.6754 214.607 51.5651C214.857 51.4547 215.129 51.3994 215.424 51.3994C215.704 51.3994 215.969 51.451 216.219 51.5542C216.469 51.6575 216.69 51.7973 216.881 51.9745C217.072 52.1516 217.224 52.3616 217.334 52.6054C217.444 52.8485 217.499 53.1107 217.499 53.3904Z" fill="black"/>
<path d="M217.235 56.909H213.591V67.9285H217.235V56.909Z" fill="black"/>
<path d="M148.614 78.9458H149.63L154.08 89.5442H152.975L151.825 86.7301H146.225L145.031 89.5442H144L148.614 78.9458ZM149.077 80.0234L146.613 85.831H151.466L149.077 80.0234Z" fill="black"/>
<path d="M155.349 84.5739C155.349 84.4444 155.344 84.2878 155.334 84.103C155.324 83.9181 155.317 83.7313 155.312 83.5422C155.307 83.3522 155.299 83.1746 155.29 83.0098C155.28 82.8449 155.274 82.7184 155.274 82.6286H156.171C156.181 82.8887 156.188 83.1372 156.193 83.3773C156.198 83.6164 156.21 83.771 156.23 83.8409H156.275C156.454 83.4619 156.753 83.135 157.171 82.8605C157.59 82.5859 158.077 82.448 158.635 82.448C159.172 82.448 159.61 82.5336 159.949 82.7028C160.287 82.873 160.554 83.0955 160.748 83.369C160.942 83.6447 161.076 83.96 161.151 84.3192C161.226 84.6795 161.263 85.048 161.263 85.4281V89.5442H160.367V85.4719C160.367 85.1931 160.342 84.9205 160.292 84.6574C160.242 84.3922 160.155 84.1552 160.031 83.9453C159.906 83.7365 159.732 83.5694 159.508 83.4441C159.284 83.3188 158.993 83.2571 158.635 83.2571C158.306 83.2571 157.995 83.3146 157.702 83.4295C157.408 83.5443 157.154 83.7187 156.94 83.9536C156.726 84.1875 156.556 84.482 156.432 84.8369C156.307 85.1899 156.245 85.6075 156.245 86.0857V89.5441H155.35L155.349 84.5739Z" fill="black"/>
<path d="M171.03 78.9458H172.045L176.495 89.5441H175.39L174.24 86.7301H168.64L167.446 89.5441H166.415L171.03 78.9458ZM171.493 80.0234L169.028 85.831H173.882L171.493 80.0234Z" fill="black"/>
<path d="M177.765 84.5739C177.765 84.4444 177.759 84.2878 177.749 84.103C177.74 83.9181 177.732 83.7313 177.727 83.5422C177.722 83.3522 177.715 83.1746 177.705 83.0098C177.695 82.8449 177.69 82.7184 177.69 82.6286H178.586C178.596 82.8887 178.603 83.1372 178.608 83.3773C178.613 83.6164 178.626 83.771 178.645 83.8409H178.69C178.869 83.4619 179.168 83.135 179.587 82.8605C180.005 82.5859 180.492 82.448 181.05 82.448C181.588 82.448 182.026 82.5336 182.364 82.7028C182.702 82.873 182.969 83.0955 183.163 83.369C183.357 83.6447 183.491 83.96 183.566 84.3192C183.64 84.6795 183.678 85.048 183.678 85.4281V89.5442H182.782V85.4719C182.782 85.1931 182.757 84.9205 182.707 84.6574C182.657 84.3922 182.57 84.1552 182.446 83.9453C182.321 83.7365 182.148 83.5694 181.924 83.4441C181.7 83.3188 181.408 83.2571 181.05 83.2571C180.722 83.2571 180.41 83.3146 180.117 83.4295C179.823 83.5443 179.569 83.7187 179.355 83.9536C179.141 84.1875 178.972 84.482 178.847 84.8369C178.723 85.1899 178.661 85.6075 178.661 86.0857V89.5441H177.765L177.765 84.5739Z" fill="black"/>
<path d="M192.996 89.0952C192.996 89.9534 192.871 90.6468 192.622 91.1752C192.373 91.7045 192.063 92.1139 191.689 92.4031C191.316 92.6934 190.915 92.8876 190.487 92.9878C190.059 93.086 189.671 93.1361 189.322 93.1361C188.973 93.1361 188.633 93.1048 188.299 93.04C187.966 92.9743 187.649 92.8793 187.351 92.755C187.052 92.6307 186.782 92.4783 186.537 92.2987C186.293 92.119 186.082 91.9144 185.902 91.6847L186.604 91.0269C186.923 91.4759 187.321 91.8038 187.799 92.0147C188.277 92.2235 188.785 92.3279 189.322 92.3279C189.78 92.3279 190.166 92.2684 190.479 92.1483C190.793 92.0293 191.052 91.8716 191.257 91.6774C191.46 91.4821 191.619 91.2681 191.734 91.0331C191.848 90.7993 191.933 90.5643 191.988 90.3293C192.043 90.0955 192.075 89.874 192.085 89.6631C192.095 89.4543 192.1 89.2851 192.1 89.1557V88.1972H192.07C191.811 88.6159 191.46 88.9448 191.017 89.185C190.574 89.4252 190.055 89.5442 189.457 89.5442C188.949 89.5442 188.471 89.4522 188.023 89.2675C187.575 89.0827 187.185 88.8279 186.851 88.5041C186.517 88.1794 186.254 87.8025 186.06 87.3743C185.865 86.9441 185.768 86.4857 185.768 85.996C185.768 85.5073 185.865 85.0479 186.06 84.6198C186.253 84.1896 186.517 83.8158 186.851 83.4963C187.185 83.1768 187.575 82.923 188.023 82.733C188.471 82.544 188.949 82.4479 189.457 82.4479C190.055 82.4479 190.574 82.569 191.017 82.8082C191.46 83.0473 191.811 83.3772 192.07 83.7959H192.1V82.6285H192.996V89.0952ZM192.129 85.996C192.129 85.618 192.058 85.261 191.913 84.9268C191.769 84.5915 191.574 84.3024 191.33 84.058C191.087 83.8136 190.798 83.6194 190.465 83.4743C190.132 83.3291 189.775 83.257 189.397 83.257C189.018 83.257 188.663 83.3291 188.329 83.4743C187.995 83.6194 187.707 83.8136 187.463 84.058C187.219 84.3024 187.025 84.5915 186.88 84.9268C186.737 85.2609 186.664 85.618 186.664 85.996C186.664 86.3761 186.737 86.7332 186.88 87.0673C187.025 87.4014 187.219 87.6907 187.463 87.935C187.707 88.1793 187.995 88.3745 188.329 88.5187C188.663 88.6627 189.018 88.7359 189.397 88.7359C189.775 88.7359 190.132 88.6628 190.465 88.5187C190.798 88.3745 191.087 88.1794 191.33 87.935C191.574 87.6906 191.769 87.4014 191.913 87.0673C192.058 86.7332 192.129 86.376 192.129 85.996Z" fill="black"/>
<path d="M195.34 78.2274H196.236V89.5443H195.34V78.2274Z" fill="black"/>
<path d="M198.386 86.0858C198.386 85.5575 198.475 85.0709 198.655 84.6261C198.834 84.1834 199.083 83.7991 199.401 83.4744C199.72 83.1496 200.104 82.898 200.551 82.7183C200.999 82.5387 201.487 82.4479 202.015 82.4479C202.542 82.4479 203.027 82.5387 203.471 82.7183C203.914 82.898 204.297 83.1496 204.62 83.4744C204.944 83.7991 205.195 84.1834 205.374 84.6261C205.554 85.0709 205.643 85.5576 205.643 86.0858C205.643 86.6152 205.553 87.1018 205.374 87.5455C205.195 87.9903 204.944 88.3746 204.62 88.6983C204.297 89.022 203.914 89.2747 203.471 89.4543C203.027 89.634 202.542 89.7237 202.015 89.7237C201.487 89.7237 200.999 89.6339 200.551 89.4543C200.104 89.2748 199.72 89.0221 199.401 88.6983C199.083 88.3745 198.834 87.9904 198.655 87.5455C198.475 87.1018 198.386 86.6152 198.386 86.0858ZM199.282 86.0858C199.282 86.4753 199.344 86.8419 199.469 87.1864C199.593 87.5309 199.774 87.8296 200.014 88.0843C200.252 88.3391 200.541 88.5416 200.88 88.691C201.218 88.8404 201.596 88.9155 202.015 88.9155C202.433 88.9155 202.811 88.8404 203.149 88.691C203.488 88.5416 203.776 88.3391 204.016 88.0843C204.255 87.8295 204.436 87.5309 204.561 87.1864C204.685 86.8419 204.747 86.4753 204.747 86.0858C204.747 85.6974 204.685 85.3298 204.561 84.9853C204.436 84.6418 204.255 84.342 204.016 84.0873C203.776 83.8336 203.488 83.632 203.149 83.4817C202.811 83.3313 202.433 83.2571 202.015 83.2571C201.596 83.2571 201.218 83.3313 200.88 83.4817C200.541 83.632 200.252 83.8335 200.014 84.0873C199.774 84.3421 199.593 84.6418 199.469 84.9853C199.344 85.3298 199.282 85.6974 199.282 86.0858Z" fill="black"/>
<path d="M207.092 85.593H210.781V86.4012H207.092V85.593Z" fill="black"/>
<path d="M221.578 87.8819C221.07 88.571 220.483 89.0649 219.816 89.3646C219.148 89.6632 218.428 89.8136 217.65 89.8136C216.844 89.8136 216.105 89.6758 215.433 89.4022C214.761 89.1276 214.186 88.7433 213.708 88.2494C213.231 87.7556 212.857 87.1666 212.588 86.4827C212.319 85.7999 212.185 85.0533 212.185 84.245C212.185 83.4368 212.319 82.6934 212.588 82.0146C212.857 81.3359 213.231 80.7501 213.708 80.2552C214.186 79.7623 214.761 79.375 215.433 79.0962C216.105 78.8164 216.844 78.6765 217.65 78.6765C218.367 78.6765 219.037 78.8039 219.659 79.0586C220.281 79.3134 220.826 79.7395 221.294 80.3388L220.488 81.0112C220.16 80.5121 219.739 80.1488 219.226 79.919C218.713 79.6893 218.188 79.5745 217.65 79.5745C216.964 79.5745 216.344 79.6946 215.791 79.9336C215.239 80.1738 214.768 80.5027 214.381 80.9214C213.992 81.3411 213.693 81.8351 213.484 82.4042C213.275 82.9723 213.17 83.5862 213.17 84.2451C213.17 84.904 213.275 85.518 213.484 86.086C213.693 86.6551 213.992 87.149 214.381 87.5688C214.768 87.9875 215.239 88.3164 215.791 88.5566C216.344 88.7956 216.964 88.9157 217.65 88.9157C217.919 88.9157 218.198 88.8834 218.487 88.8176C218.775 88.7529 219.057 88.6537 219.331 88.519C219.605 88.3843 219.866 88.2141 220.115 88.0095C220.363 87.8059 220.583 87.5584 220.771 87.2692L221.578 87.8819Z" fill="black"/>
<path d="M228.492 86.6404C228.492 86.9797 228.494 87.2846 228.499 87.5541C228.504 87.8234 228.512 88.072 228.521 88.3017C228.532 88.5314 228.544 88.7464 228.559 88.9449C228.573 89.1454 228.596 89.3449 228.627 89.5443H227.79C227.73 89.2049 227.7 88.831 227.7 88.4218H227.67C227.411 88.8707 227.09 89.1996 226.707 89.4095C226.323 89.6194 225.838 89.7238 225.252 89.7238C224.953 89.7238 224.659 89.6862 224.37 89.611C224.081 89.5368 223.822 89.4168 223.593 89.2519C223.364 89.088 223.178 88.876 223.034 88.6159C222.889 88.357 222.817 88.0426 222.817 87.6731C222.817 87.1447 222.952 86.725 223.22 86.4158C223.489 86.1067 223.82 85.8749 224.213 85.7194C224.607 85.5648 225.024 85.4657 225.467 85.4196C225.911 85.3758 226.302 85.3528 226.64 85.3528H227.685V84.9331C227.685 84.3347 227.5 83.9056 227.133 83.6467C226.764 83.3867 226.302 83.2572 225.744 83.2572C224.947 83.2572 224.245 83.5173 223.638 84.0351L223.116 83.4211C223.444 83.1027 223.853 82.8604 224.34 82.6965C224.828 82.5315 225.296 82.448 225.744 82.448C226.58 82.448 227.247 82.6464 227.745 83.04C228.242 83.4337 228.492 84.0706 228.492 84.9488L228.492 86.6404ZM226.699 86.0713C226.321 86.0713 225.956 86.0964 225.602 86.1465C225.248 86.1966 224.93 86.2812 224.646 86.4013C224.363 86.5203 224.136 86.6801 223.967 86.8796C223.797 87.08 223.713 87.3285 223.713 87.6283C223.713 87.8382 223.76 88.025 223.855 88.189C223.949 88.354 224.071 88.4897 224.22 88.5942C224.37 88.6986 224.537 88.7779 224.721 88.8332C224.905 88.8886 225.092 88.9157 225.281 88.9157C225.759 88.9157 226.151 88.8458 226.461 88.7058C226.769 88.567 227.015 88.3843 227.199 88.1597C227.384 87.9352 227.511 87.6805 227.581 87.3964C227.65 87.1113 227.685 86.8252 227.685 86.5349V86.0713H226.699Z" fill="black"/>
<path d="M234.256 83.4368H232.284V87.9424C232.284 88.2515 232.369 88.4916 232.538 88.6608C232.708 88.831 232.941 88.9156 233.24 88.9156C233.409 88.9156 233.581 88.8927 233.756 88.8488C233.93 88.8029 234.096 88.7464 234.256 88.6755L234.33 89.4836C234.161 89.5442 233.967 89.5985 233.747 89.6486C233.529 89.6987 233.335 89.7238 233.165 89.7238C232.846 89.7238 232.573 89.6758 232.344 89.5818C232.115 89.4867 231.931 89.3604 231.791 89.1996C231.652 89.0409 231.551 88.853 231.485 88.6379C231.42 88.4249 231.388 88.192 231.388 87.9425V83.4369H229.895V82.6287H231.388V80.6375H232.284V82.6287H234.256L234.256 83.4368Z" fill="black"/>
<path d="M235.868 78.2274H236.764V83.8409H236.794C236.973 83.4619 237.271 83.135 237.69 82.8605C238.108 82.5858 238.595 82.448 239.153 82.448C239.691 82.448 240.128 82.5336 240.467 82.7028C240.805 82.873 241.072 83.0955 241.266 83.369C241.461 83.6447 241.595 83.96 241.669 84.3192C241.744 84.6795 241.782 85.048 241.782 85.4281V89.5442H240.886V85.4719C240.886 85.1931 240.861 84.9205 240.811 84.6574C240.761 84.3922 240.674 84.1552 240.549 83.9453C240.425 83.7365 240.25 83.5694 240.026 83.4441C239.802 83.3188 239.512 83.2571 239.153 83.2571C238.824 83.2571 238.514 83.3146 238.22 83.4295C237.926 83.5443 237.672 83.7187 237.459 83.9536C237.244 84.1875 237.075 84.482 236.95 84.8369C236.826 85.1899 236.764 85.6075 236.764 86.0857V89.5441H235.868L235.868 78.2274Z" fill="black"/>
<path d="M243.783 86.0858C243.783 85.5575 243.872 85.0709 244.051 84.6261C244.231 84.1834 244.48 83.7991 244.798 83.4744C245.117 83.1496 245.5 82.898 245.948 82.7183C246.396 82.5387 246.884 82.4479 247.412 82.4479C247.939 82.4479 248.424 82.5387 248.868 82.7183C249.311 82.898 249.694 83.1496 250.017 83.4744C250.341 83.7991 250.592 84.1834 250.771 84.6261C250.95 85.0709 251.04 85.5576 251.04 86.0858C251.04 86.6152 250.95 87.1018 250.771 87.5455C250.592 87.9903 250.341 88.3746 250.017 88.6983C249.694 89.022 249.311 89.2747 248.868 89.4543C248.424 89.634 247.939 89.7237 247.412 89.7237C246.884 89.7237 246.396 89.6339 245.948 89.4543C245.5 89.2748 245.117 89.0221 244.798 88.6983C244.48 88.3745 244.231 87.9904 244.051 87.5455C243.872 87.1018 243.783 86.6152 243.783 86.0858ZM244.679 86.0858C244.679 86.4753 244.741 86.8419 244.866 87.1864C244.99 87.5309 245.171 87.8296 245.411 88.0843C245.649 88.3391 245.938 88.5416 246.276 88.691C246.615 88.8404 246.993 88.9155 247.412 88.9155C247.83 88.9155 248.208 88.8404 248.546 88.691C248.885 88.5416 249.173 88.3391 249.413 88.0843C249.651 87.8295 249.833 87.5309 249.958 87.1864C250.082 86.8419 250.144 86.4753 250.144 86.0858C250.144 85.6974 250.082 85.3298 249.958 84.9853C249.833 84.6418 249.652 84.342 249.413 84.0873C249.173 83.8336 248.885 83.632 248.546 83.4817C248.208 83.3313 247.83 83.2571 247.412 83.2571C246.993 83.2571 246.615 83.3313 246.276 83.4817C245.938 83.632 245.649 83.8335 245.411 84.0873C245.171 84.3421 244.99 84.6418 244.866 84.9853C244.741 85.3298 244.679 85.6974 244.679 86.0858Z" fill="black"/>
<path d="M253.19 78.2274H254.086V89.5443H253.19V78.2274Z" fill="black"/>
<path d="M256.564 79.8897C256.564 79.6997 256.629 79.5399 256.759 79.4094C256.888 79.2799 257.047 79.2152 257.236 79.2152C257.425 79.2152 257.585 79.28 257.714 79.4094C257.843 79.5399 257.908 79.6997 257.908 79.8897C257.908 80.0787 257.843 80.2385 257.714 80.368C257.585 80.4975 257.425 80.5622 257.236 80.5622C257.047 80.5622 256.888 80.4974 256.759 80.368C256.629 80.2385 256.564 80.0788 256.564 79.8897ZM256.788 82.6286H257.684V89.5443H256.788V82.6286Z" fill="black"/>
<path d="M266.001 88.5261C265.663 88.9354 265.28 89.2372 264.851 89.4314C264.423 89.6267 263.961 89.7238 263.463 89.7238C262.935 89.7238 262.447 89.634 261.999 89.4544C261.552 89.2749 261.168 89.0222 260.849 88.6984C260.531 88.3746 260.282 87.9905 260.103 87.5456C259.923 87.1019 259.834 86.6153 259.834 86.0859C259.834 85.5576 259.923 85.071 260.103 84.6262C260.282 84.1835 260.531 83.7992 260.849 83.4745C261.168 83.1497 261.552 82.8981 261.999 82.7184C262.447 82.5388 262.935 82.448 263.463 82.448C263.97 82.448 264.441 82.5534 264.874 82.7634C265.307 82.9722 265.693 83.2667 266.032 83.6467L265.314 84.1855C265.056 83.8952 264.771 83.6686 264.463 83.5046C264.155 83.3396 263.821 83.2571 263.463 83.2571C263.044 83.2571 262.666 83.3313 262.328 83.4817C261.989 83.632 261.701 83.8335 261.462 84.0873C261.222 84.3422 261.041 84.6418 260.917 84.9853C260.792 85.3298 260.73 85.6974 260.73 86.0858C260.73 86.4753 260.792 86.8419 260.917 87.1864C261.041 87.5309 261.222 87.8296 261.462 88.0843C261.701 88.3392 261.989 88.5416 262.328 88.691C262.666 88.8404 263.044 88.9155 263.463 88.9155C263.841 88.9155 264.187 88.8278 264.501 88.6534C264.814 88.479 265.085 88.2472 265.314 87.9569L266.001 88.5261Z" fill="black"/>
<path d="M271.541 78.9458H274.587C274.956 78.9458 275.341 78.9886 275.744 79.0732C276.147 79.1588 276.516 79.3049 276.849 79.5148C277.183 79.7247 277.457 80.0108 277.671 80.3752C277.885 80.7396 277.992 81.197 277.992 81.7452C277.992 82.2244 277.905 82.6379 277.731 82.9878C277.556 83.3376 277.322 83.6237 277.028 83.8482C276.735 84.0726 276.396 84.2397 276.013 84.3504C275.63 84.4589 275.229 84.5143 274.811 84.5143H272.526V89.544H271.541L271.541 78.9458ZM272.526 83.6164H274.766C275.045 83.6164 275.319 83.584 275.588 83.5193C275.857 83.4545 276.095 83.3502 276.305 83.2039C276.513 83.0599 276.683 82.8677 276.812 82.6285C276.941 82.3893 277.007 82.0949 277.007 81.7452C277.007 81.4059 276.939 81.1166 276.805 80.8775C276.67 80.6373 276.496 80.4411 276.282 80.2855C276.068 80.1309 275.821 80.0192 275.543 79.9482C275.264 79.8793 274.985 79.8437 274.707 79.8437H272.527L272.526 83.6164Z" fill="black"/>
<path d="M285.22 86.6404C285.22 86.9797 285.222 87.2846 285.228 87.5541C285.232 87.8234 285.24 88.072 285.249 88.3017C285.26 88.5314 285.272 88.7464 285.287 88.9449C285.302 89.1454 285.324 89.3449 285.355 89.5443H284.518C284.458 89.2049 284.429 88.831 284.429 88.4218H284.398C284.139 88.8707 283.818 89.1996 283.435 89.4095C283.052 89.6194 282.566 89.7238 281.98 89.7238C281.681 89.7238 281.387 89.6862 281.098 89.611C280.809 89.5368 280.551 89.4168 280.321 89.2519C280.092 89.088 279.906 88.876 279.762 88.6159C279.617 88.357 279.545 88.0426 279.545 87.6731C279.545 87.1447 279.68 86.725 279.948 86.4158C280.217 86.1067 280.548 85.8749 280.941 85.7194C281.335 85.5648 281.753 85.4657 282.195 85.4196C282.639 85.3758 283.03 85.3528 283.368 85.3528H284.413V84.9331C284.413 84.3347 284.229 83.9056 283.861 83.6467C283.492 83.3867 283.03 83.2572 282.472 83.2572C281.675 83.2572 280.973 83.5173 280.366 84.0351L279.844 83.4211C280.172 83.1027 280.581 82.8604 281.068 82.6965C281.556 82.5315 282.024 82.448 282.472 82.448C283.308 82.448 283.976 82.6464 284.473 83.04C284.97 83.4337 285.22 84.0706 285.22 84.9488L285.22 86.6404ZM283.428 86.0713C283.049 86.0713 282.684 86.0964 282.33 86.1465C281.977 86.1966 281.658 86.2812 281.374 86.4013C281.091 86.5203 280.864 86.6801 280.695 86.8796C280.525 87.08 280.441 87.3285 280.441 87.6283C280.441 87.8382 280.488 88.025 280.583 88.189C280.678 88.354 280.799 88.4897 280.948 88.5942C281.098 88.6986 281.265 88.7779 281.449 88.8332C281.633 88.8886 281.82 88.9157 282.009 88.9157C282.487 88.9157 282.88 88.8458 283.189 88.7058C283.497 88.567 283.743 88.3843 283.927 88.1597C284.112 87.9352 284.239 87.6805 284.309 87.3964C284.378 87.1113 284.413 86.8252 284.413 86.5349V86.0713H283.428Z" fill="black"/>
<path d="M287.609 84.5739C287.609 84.4444 287.604 84.2878 287.594 84.103C287.584 83.9181 287.576 83.7313 287.571 83.5422C287.566 83.3522 287.559 83.1746 287.549 83.0098C287.539 82.8448 287.534 82.7184 287.534 82.6286H288.43C288.44 82.8887 288.447 83.1372 288.453 83.3773C288.458 83.6164 288.469 83.771 288.49 83.8409C288.718 83.4317 289.012 83.0975 289.371 82.8385C289.729 82.5785 290.167 82.448 290.685 82.448C290.774 82.448 290.862 82.4563 290.946 82.4709C291.031 82.4856 291.118 82.5043 291.208 82.5232L291.103 83.4065C290.984 83.3668 290.869 83.347 290.76 83.347C290.371 83.347 290.035 83.4086 289.751 83.5339C289.468 83.6592 289.234 83.8304 289.049 84.0497C288.865 84.2701 288.729 84.5269 288.639 84.8214C288.549 85.1159 288.505 85.4323 288.505 85.7727V89.5443H287.609V84.5739Z" fill="black"/>
<path d="M292.507 79.8897C292.507 79.6997 292.571 79.5399 292.702 79.4094C292.831 79.2799 292.99 79.2152 293.179 79.2152C293.368 79.2152 293.528 79.28 293.657 79.4094C293.786 79.5399 293.85 79.6997 293.85 79.8897C293.85 80.0787 293.786 80.2385 293.657 80.368C293.528 80.4975 293.368 80.5622 293.179 80.5622C292.99 80.5622 292.831 80.4974 292.702 80.368C292.571 80.2385 292.507 80.0788 292.507 79.8897ZM292.731 82.6286H293.626V89.5443H292.731V82.6286Z" fill="black"/>
<path d="M296.181 87.7774C296.37 88.147 296.648 88.429 297.017 88.6231C297.386 88.8173 297.773 88.9155 298.182 88.9155C298.371 88.9155 298.56 88.8853 298.749 88.8257C298.938 88.7652 299.108 88.6817 299.257 88.5709C299.407 88.4613 299.529 88.3286 299.623 88.1742C299.717 88.0196 299.765 87.8422 299.765 87.6437C299.765 87.3242 299.663 87.084 299.459 86.9243C299.255 86.7645 299.004 86.6403 298.705 86.5505C298.406 86.4606 298.078 86.3834 297.719 86.3176C297.361 86.2528 297.032 86.1537 296.734 86.019C296.435 85.8843 296.183 85.6974 295.98 85.4572C295.775 85.2182 295.673 84.8787 295.673 84.4402C295.673 84.0998 295.743 83.8054 295.882 83.5569C296.021 83.3073 296.204 83.0996 296.428 82.9346C296.652 82.7707 296.903 82.6485 297.182 82.5691C297.46 82.4887 297.744 82.448 298.033 82.448C298.6 82.448 299.09 82.5534 299.504 82.7634C299.916 82.9722 300.238 83.3021 300.467 83.7511L299.661 84.2294C299.491 83.9109 299.28 83.6686 299.025 83.5047C298.772 83.3397 298.441 83.2572 298.033 83.2572C297.873 83.2572 297.707 83.2823 297.533 83.3314C297.358 83.3815 297.202 83.4515 297.062 83.5423C296.922 83.6321 296.806 83.747 296.711 83.8859C296.616 84.0258 296.569 84.1856 296.569 84.3651C296.569 84.6741 296.671 84.9039 296.875 85.0533C297.079 85.2026 297.331 85.3206 297.63 85.4051C297.929 85.4907 298.257 85.5617 298.615 85.6223C298.973 85.683 299.302 85.7789 299.6 85.9147C299.899 86.0484 300.15 86.2436 300.355 86.4973C300.559 86.7521 300.661 87.1144 300.661 87.5832C300.661 87.9424 300.594 88.2547 300.459 88.5188C300.324 88.784 300.14 89.0054 299.907 89.185C299.672 89.3646 299.407 89.4993 299.108 89.5891C298.809 89.6789 298.495 89.7238 298.167 89.7238C297.569 89.7238 297.024 89.6089 296.532 89.3793C296.039 89.1496 295.658 88.7956 295.389 88.3163L296.181 87.7774Z" fill="black"/>
<path d="M302.528 78.2274H303.423V83.8409H303.454C303.633 83.4619 303.931 83.135 304.349 82.8605C304.767 82.5858 305.255 82.448 305.813 82.448C306.35 82.448 306.788 82.5336 307.126 82.7028C307.465 82.873 307.732 83.0955 307.925 83.369C308.12 83.6447 308.255 83.96 308.328 84.3192C308.403 84.6795 308.441 85.048 308.441 85.4281V89.5442H307.545V85.4719C307.545 85.1931 307.52 84.9205 307.47 84.6574C307.42 84.3922 307.334 84.1552 307.209 83.9453C307.085 83.7365 306.91 83.5694 306.686 83.4441C306.462 83.3188 306.171 83.2571 305.813 83.2571C305.484 83.2571 305.173 83.3146 304.88 83.4295C304.586 83.5443 304.332 83.7187 304.118 83.9536C303.903 84.1875 303.735 84.482 303.61 84.8369C303.486 85.1899 303.423 85.6075 303.423 86.0857V89.5441H302.527L302.528 78.2274Z" fill="black"/>
</g>
<defs>
<clipPath id="clip0_1_126">
<rect width="336" height="120" fill="white"/>
</clipPath>
</defs>
</svg>
