<?xml version="1.0" encoding="UTF-8"?><svg id="a" xmlns="http://www.w3.org/2000/svg" width="288" height="88" viewBox="0 0 288 88"><defs><style>.c{fill:#010101;}.d{fill:#005899;}.e{fill:#008445;}.f{fill:#fff;}.g{fill:#fdbb33;}.h{fill:#804099;}.i{fill:#d82f27;}.j{fill:#231f20;}</style></defs><g><g><rect class="g" x="1.0811" y="9.0811" width="77.8378" height="77.8378"/><path d="m80,88H0V8h80v80Zm-77.8378-2.1622h75.6757V10.1622H2.1622v75.6757Z"/></g><g><circle class="h" cx="40" cy="48" r="34.5946"/><path d="m40,83.6757c-19.6713,0-35.6757-16.0044-35.6757-35.6757S20.3287,12.3243,40,12.3243s35.6757,16.0044,35.6757,35.6757-16.0044,35.6757-35.6757,35.6757Zm0-69.1892C21.5203,14.4865,6.4865,29.5203,6.4865,48s15.0338,33.5135,33.5135,33.5135,33.5135-15.0338,33.5135-33.5135S58.4797,14.4865,40,14.4865Z"/></g><g><path class="g" d="m57.2973,30.7027c0-9.553-7.7443-17.2973-17.2973-17.2973s-17.2973,7.7443-17.2973,17.2973c-9.553,0-17.2973,7.7443-17.2973,17.2973s7.7443,17.2973,17.2973,17.2973c0,9.553,7.7443,17.2973,17.2973,17.2973s17.2973-7.7443,17.2973-17.2973c9.553,0,17.2973-7.7443,17.2973-17.2973s-7.7443-17.2973-17.2973-17.2973Z"/><path d="m40,83.6757c-9.7811,0-17.8026-7.6802-18.3488-17.3269-9.6467-.5462-17.3269-8.5677-17.3269-18.3488s7.6802-17.8026,17.3269-18.3488c.5462-9.6467,8.5677-17.3269,18.3488-17.3269s17.8026,7.6802,18.3488,17.3269c9.6467.5462,17.3269,8.5677,17.3269,18.3488s-7.6802,17.8026-17.3269,18.3488c-.5462,9.6467-8.5677,17.3269-18.3488,17.3269ZM22.7027,31.7838c-8.9414,0-16.2162,7.2748-16.2162,16.2162s7.2748,16.2162,16.2162,16.2162h1.0811v1.0811c0,8.9414,7.2748,16.2162,16.2162,16.2162s16.2162-7.2748,16.2162-16.2162v-1.0811h1.0811c8.9414,0,16.2162-7.2748,16.2162-16.2162s-7.2748-16.2162-16.2162-16.2162h-1.0811v-1.0811c0-8.9414-7.2748-16.2162-16.2162-16.2162s-16.2162,7.2748-16.2162,16.2162v1.0811h-1.0811Z"/></g><g><path class="d" d="m57.2973,35.027c-2.0153,0-3.9156.4729-5.6172,1.2929.82-1.7016,1.2929-3.6019,1.2929-5.6172,0-7.1648-5.8082-12.973-12.973-12.973s-12.973,5.8082-12.973,12.973c0,2.0153.4729,3.9156,1.2929,5.6172-1.7016-.82-3.6019-1.2929-5.6172-1.2929-7.1648,0-12.973,5.8082-12.973,12.973s5.8082,12.973,12.973,12.973c2.0153,0,3.9156-.4729,5.6172-1.2929-.82,1.7016-1.2929,3.6019-1.2929,5.6172,0,7.1648,5.8082,12.973,12.973,12.973s12.973-5.8082,12.973-12.973c0-2.0153-.4729-3.9156-1.2929-5.6172,1.7016.82,3.6019,1.2929,5.6172,1.2929,7.1648,0,12.973-5.8082,12.973-12.973s-5.8082-12.973-12.973-12.973Z"/><path d="m40,79.3514c-7.7492,0-14.0541-6.3049-14.0541-14.0541,0-1.281.1738-2.5387.518-3.7613-1.2226.3442-2.4803.518-3.7613.518-7.7492,0-14.0541-6.3049-14.0541-14.0541s6.3049-14.0541,14.0541-14.0541c1.281,0,2.5387.1738,3.7613.518-.3442-1.2226-.518-2.4803-.518-3.7613,0-7.7492,6.3049-14.0541,14.0541-14.0541s14.0541,6.3049,14.0541,14.0541c0,1.281-.1738,2.5387-.518,3.7613,1.2226-.3442,2.4803-.518,3.7613-.518,7.7492,0,14.0541,6.3049,14.0541,14.0541s-6.3049,14.0541-14.0541,14.0541c-1.281,0-2.5387-.1738-3.7613-.518.3442,1.2226.518,2.4803.518,3.7613,0,7.7492-6.3049,14.0541-14.0541,14.0541Zm-12.1495-20.6454l1.4436,1.4436c-.7869,1.6329-1.186,3.365-1.186,5.1478,0,6.5569,5.335,11.8919,11.8919,11.8919s11.8919-5.335,11.8919-11.8919c0-1.7828-.3991-3.5149-1.186-5.1478l1.4436-1.4436c1.6329.7869,3.365,1.186,5.1478,1.186,6.5569,0,11.8919-5.335,11.8919-11.8919s-5.335-11.8919-11.8919-11.8919c-1.7828,0-3.5149.3991-5.1478,1.186l-1.4436-1.4436c.7869-1.6329,1.186-3.365,1.186-5.1478,0-6.5569-5.335-11.8919-11.8919-11.8919s-11.8919,5.335-11.8919,11.8919c0,1.7828.3991,3.5149,1.186,5.1478l-1.4436,1.4436c-1.6329-.7869-3.365-1.186-5.1478-1.186-6.5569,0-11.8919,5.335-11.8919,11.8919s5.335,11.8919,11.8919,11.8919c1.7828,0,3.5149-.3991,5.1478-1.186Z"/></g><g><polygon class="e" points="20.3287 55.5676 40 24.0937 59.6713 55.5676 20.3287 55.5676"/><path d="m40,26.1336l17.7205,28.3529H22.2795l17.7205-28.3529m0-4.0796l-21.6216,34.5946h43.2432l-21.6216-34.5946h0Z"/></g><g><rect class="g" x="38.9189" y="43.6757" width="2.1622" height="30.2703"/><rect class="g" x="33.5135" y="49.0811" width="12.973" height="2.1622"/></g><path class="f" d="m41.0811,37.8134s0-1.6216,1.6216-2.1622c-1.0811-1.0811-2.1622-.5405-2.7027,0-.5405-.5405-1.6216-1.0811-2.7027,0,1.6216.5405,1.6216,2.1622,1.6216,2.1622-1.0811-1.0811-3.2432-1.0811-4.8649,0,2.1622.7919,1.6216,4.3243,4.8649,2.7027,0,0,0,1.0811,1.0811,1.6216,1.0811-.5405,1.0811-1.6216,1.0811-1.6216,3.2432,1.6216,2.7027-1.9108,4.8649-2.7027-1.6216-1.0811-3.7838-1.0811-4.8649,0Z"/><g><path class="i" d="m22.1772,13.4054H5.4054v16.7718c3.7093-7.185,9.5868-13.0625,16.7718-16.7718Z"/><path d="m4.3243,34.628V12.3243h22.3036l-3.9548,2.0418c-6.9355,3.5804-12.7266,9.3715-16.307,16.307l-2.0418,3.9548Zm2.1622-20.1415v11.6814c3.0434-4.6791,7.0024-8.6381,11.6814-11.6814H6.4865Z"/></g><g><path class="i" d="m57.8228,13.4054h16.7718v16.7718c-3.7093-7.185-9.5868-13.0625-16.7718-16.7718Z"/><path d="m75.6757,34.628l-2.0418-3.9548c-3.5804-6.9355-9.3715-12.7266-16.307-16.307l-3.9548-2.0418h22.3036v22.3036Zm-13.8436-20.1415c4.6791,3.0434,8.6381,7.0024,11.6814,11.6814v-11.6814h-11.6814Z"/></g><g><path class="i" d="m22.1772,82.5946H5.4054v-16.7718c3.7093,7.185,9.5868,13.0625,16.7718,16.7718Z"/><path d="m26.628,83.6757H4.3243v-22.3036l2.0418,3.9548c3.5804,6.9355,9.3715,12.7266,16.307,16.307l3.9548,2.0418Zm-20.1415-2.1622h11.6814c-4.6791-3.0434-8.6381-7.0024-11.6814-11.6814v11.6814Z"/></g><g><path class="i" d="m57.8228,82.5946h16.7718v-16.7718c-3.7093,7.185-9.5868,13.0625-16.7718,16.7718Z"/><path d="m75.6757,83.6757h-22.3036l3.9548-2.0418c6.9355-3.5804,12.7266-9.3715,16.307-16.307l2.0418-3.9548v22.3036Zm-13.8436-2.1622h11.6814v-11.6814c-3.0434,4.6791-7.0024,8.6381-11.6814,11.6814Z"/></g><g><path class="j" d="m50.4851,4.4537c-.3008.1311-.6478.1966-1.0406.1966-.3577,0-.6882-.0562-.9915-.1683-.3033-.1124-.5661-.2714-.7888-.477-.2224-.2055-.3971-.4519-.5235-.7387s-.1898-.6023-.1898-.9475c0-.3531.0645-.6732.193-.96.1289-.2865.3065-.5307.5335-.7323.2267-.2016.4931-.3563.7985-.4644.3054-.1081.6349-.1622.9883-.1622.3273,0,.6488.0551.9654.1654.3162.1099.5726.2711.7691.483l-.7591.7229c-.1049-.1371-.2424-.2388-.4125-.3054-.1701-.0662-.3448-.0995-.5235-.0995-.1966,0-.3763.034-.54.1028-.1636.0684-.3044.1629-.4222.2836s-.2095.2628-.275.4268c-.0655.1644-.0981.3441-.0981.5393,0,.1994.0326.3824.0981.5486s.1561.3087.2718.4272c.1153.1182.2539.2109.4154.2771.1615.0666.3384.0999.5303.0999.2224,0,.4164-.0415.5826-.1246.1658-.0831.2986-.1912.3993-.3244l.7788.6982c-.2052.2245-.4583.4021-.7595.5328Z"/><path class="j" d="m55.593,4.5318v-1.8451h-1.8065v1.8451h-1.1193V.1185h1.1193v1.6704h1.8065V.1185h1.119v4.4132h-1.119Z"/><path class="j" d="m62.4268,3.5936c-.0938.2181-.2281.4053-.4025.5611s-.3849.2771-.6316.3645c-.2464.0874-.5203.1311-.8214.1311-.3054,0-.5801-.0437-.8246-.1311-.2442-.0874-.4515-.2088-.6216-.3645s-.3011-.343-.3928-.5611-.1375-.4601-.1375-.7262V.1185h1.1129v2.6616c0,.1207.0161.2349.0491.343.0326.1081.0827.2048.1504.2897.0677.0852.1572.1529.2686.2027.111.0498.2453.0748.4025.0748.1568,0,.2911-.0251.4025-.0748s.2016-.1174.2714-.2027c.0698-.0849.12-.1815.1507-.2897.0304-.1081.0458-.2224.0458-.343V.1185h1.119v2.7489c0,.266-.0469.5081-.1407.7262Z"/><path class="j" d="m66.9238,4.5318l-1.0062-1.7517h-.3813v1.7517h-1.0932V.1185h1.7671c.2227,0,.4397.0218.6513.0655s.4014.1174.5693.2213.3022.241.4028.4114c.1003.1704.1504.3824.1504.6356,0,.2993-.0852.5507-.2553.7545s-.4057.3491-.7068.4361l1.211,1.8888h-1.3091Zm-.0458-3.0604c0-.1038-.0233-.188-.0691-.2524-.0462-.0645-.1053-.1142-.1776-.1497s-.1536-.0594-.2435-.0716c-.0899-.0125-.1765-.019-.2596-.019h-.5983v1.0287h.5325c.092,0,.1866-.0072.2829-.0218.0967-.0147.184-.0405.2632-.0781.0788-.0372.1436-.0913.1941-.1618.0501-.0709.0756-.1622.0756-.2743Z"/><path class="j" d="m72.9728,4.4537c-.3008.1311-.6478.1966-1.0406.1966-.3577,0-.6882-.0562-.9915-.1683-.3033-.1124-.5661-.2714-.7888-.477-.2224-.2055-.3971-.4519-.5235-.7387s-.1898-.6023-.1898-.9475c0-.3531.0645-.6732.193-.96.1289-.2865.3065-.5307.5335-.7323.2267-.2016.4931-.3563.7985-.4644.3054-.1081.6349-.1622.9883-.1622.3273,0,.6488.0551.9654.1654.3162.1099.5726.2711.7691.483l-.7591.7229c-.1049-.1371-.2424-.2388-.4125-.3054-.1701-.0662-.3448-.0995-.5235-.0995-.1966,0-.3763.034-.54.1028-.1636.0684-.3044.1629-.4222.2836s-.2095.2628-.275.4268c-.0655.1644-.0981.3441-.0981.5393,0,.1994.0326.3824.0981.5486s.1561.3087.2718.4272c.1153.1182.2539.2109.4154.2771.1615.0666.3384.0999.5303.0999.2224,0,.4164-.0415.5826-.1246.1658-.0831.2986-.1912.3993-.3244l.7788.6982c-.2052.2245-.4583.4021-.7595.5328Z"/><path class="j" d="m78.081,4.5318v-1.8451h-1.8065v1.8451h-1.1193V.1185h1.1193v1.6704h1.8065V.1185h1.119v4.4132h-1.119Z"/></g><g><path class="j" d="m2.4285,1.0287v3.503h-1.1193V1.0287H0V.1185h3.7372v.9102h-1.3088Z"/><path class="j" d="m8.1032,4.5318v-1.8451h-1.8065v1.8451h-1.1193V.1185h1.1193v1.6704h1.8065V.1185h1.119v4.4132h-1.119Z"/><path class="j" d="m11.1393,4.5318V.1185h3.1156v.8977h-2.0356v.8354h1.9243v.8536h-1.9243v.9163h2.1535v.9102h-3.2334Z"/></g><g><path class="j" d="m18.5435,4.5318V.1185h1.1258v3.4844h1.7932v.9288h-2.919Z"/><path class="j" d="m22.9095,4.5318V.1185h1.1258v4.4132h-1.1258Z"/><path class="j" d="m27.8975,1.0287v3.503h-1.1193V1.0287h-1.3091V.1185h3.7372v.9102h-1.3088Z"/><path class="j" d="m32.841,1.0287v3.503h-1.1193V1.0287h-1.3091V.1185h3.7372v.9102h-1.3088Z"/><path class="j" d="m35.5899,4.5318V.1185h1.1258v3.4844h1.7932v.9288h-2.919Z"/><path class="j" d="m39.9552,4.5318V.1185h3.1156v.8977h-2.0356v.8354h1.9243v.8536h-1.9243v.9163h2.1535v.9102h-3.2334Z"/></g><g><path class="j" d="m83.4682,12.5111l.8665-.3599v-1.7936l-.8665-.3402v-1.2174l4.4132,1.944v1.0864l-4.4132,1.9243v-1.2436Zm3.2352-1.2436l-1.5146-.589v1.1652l1.5146-.5761Z"/><path class="j" d="m83.4682,17.0303l1.7517-1.0062v-.3813h-1.7517v-1.0932h4.4132v1.7671c0,.2227-.0218.4397-.0655.6513s-.1174.4014-.2213.5693-.241.3022-.4114.4028c-.1704.1003-.3824.1504-.6356.1504-.2993,0-.5507-.0852-.7545-.2553s-.3491-.4057-.4361-.7068l-1.8888,1.211v-1.3091Zm3.0604-.0458c.1038,0,.188-.0233.2524-.0691.0645-.0462.1142-.1053.1497-.1776s.0594-.1536.0716-.2435c.0125-.0899.019-.1765.019-.2596v-.5983h-1.0287v.5325c0,.092.0072.1866.0218.2829.0147.0967.0405.184.0781.2632.0372.0788.0913.1436.1618.1941.0709.0501.1622.0756.2743.0756Z"/><path class="j" d="m85.6937,24.0156c-.3491,0-.6682-.0634-.9568-.1898-.289-.1268-.5364-.3022-.7419-.5271-.2055-.2245-.3645-.492-.477-.8017-.1121-.3097-.1683-.6456-.1683-1.008,0-.362.0562-.6968.1683-1.0044.1124-.3076.2714-.574.477-.7985.2055-.2249.453-.4007.7419-.5271.2886-.1264.6076-.1898.9568-.1898.3531,0,.6721.0634.9568.1898s.5267.3022.7262.5271c.1994.2245.3531.4909.4612.7985.1081.3076.1622.6424.1622,1.0044,0,.3624-.0541.6982-.1622,1.008s-.2618.5772-.4612.8017c-.1994.2249-.4415.4003-.7262.5271-.2847.1264-.6037.1898-.9568.1898Zm0-1.1978c.1909,0,.3695-.0329.536-.0981.1661-.0655.3083-.1561.4268-.2718s.212-.2553.2807-.4189c.0684-.1636.1028-.3434.1028-.54,0-.1962-.0344-.3753-.1028-.5368-.0687-.1611-.1622-.3008-.2807-.4186s-.2607-.2084-.4268-.2718c-.1665-.0634-.3452-.0949-.536-.0949-.1994,0-.3835.0326-.5518.0981s-.3126.1561-.4333.2718-.2148.2542-.2836.4154c-.0684.1615-.1028.3405-.1028.5368,0,.1966.0344.3753.1028.5368.0688.1615.1629.3011.2836.4189s.265.2095.4333.275c.1683.0652.3523.0981.5518.0981Z"/><path class="j" d="m84.4064,28.9008c-.2181-.0938-.4053-.2281-.5611-.4025s-.2771-.3849-.3645-.6316c-.0874-.2464-.1311-.5203-.1311-.8214,0-.3054.0437-.5801.1311-.8246.0874-.2442.2088-.4515.3645-.6216s.343-.3011.5611-.3928.4601-.1375.7262-.1375h2.7489v1.1129h-2.6616c-.1207,0-.2349.0161-.343.0491-.1081.0326-.2048.0827-.2897.1504-.0852.0677-.1529.1572-.2027.2686-.0498.111-.0748.2453-.0748.4025,0,.1568.0251.2911.0748.4025s.1174.2016.2027.2714c.0849.0698.1815.12.2897.1507.1081.0304.2224.0458.343.0458h2.6616v1.119h-2.7489c-.266,0-.5081-.0469-.7262-.1407Z"/><path class="j" d="m83.4682,33.2854l2.8861-1.8656v-.0197l-2.8861.0265v-1.0868h4.4132v1.2765l-2.88,1.8588v.0197l2.88-.0265v1.0868h-4.4132v-1.2697Z"/><path class="j" d="m85.6872,40.2195c-.3864,0-.7197-.0752-1.0005-.2256-.2804-.1507-.511-.3491-.6918-.5958-.1808-.2464-.3137-.5246-.3989-.8343-.0852-.3097-.1278-.6241-.1278-.9424v-1.7281h4.4132v1.6758c0,.3273-.0365.6499-.1092.9686-.0727.3183-.193.6019-.3613.8508s-.3939.4494-.6764.6023c-.2829.1525-.6316.2288-1.0474.2288Zm0-1.1648c.2496,0,.4562-.0426.6202-.1278.1644-.0849.2951-.1984.3928-.3402s.1672-.3033.2088-.4845.0623-.3674.0623-.5597v-.5561h-2.5806v.5299c0,.2009.0218.3939.0655.5794s.1153.3491.2152.4909c.0995.1418.2327.2553.3989.3402.1661.0852.3717.1278.617.1278Z"/></g><g><path class="j" d="m83.5463,62.1493c-.1311-.3008-.1966-.6478-.1966-1.0406,0-.3577.0562-.6882.1683-.9915.1124-.3033.2714-.5661.477-.7888.2055-.2224.4519-.3971.7387-.5235s.6023-.1898.9475-.1898c.3531,0,.6732.0645.96.193.2865.1289.5307.3065.7323.5335.2016.2267.3563.4931.4644.7985s.1622.6349.1622.9883c0,.3273-.0551.6488-.1654.9654-.1099.3162-.2711.5726-.483.7691l-.7229-.7591c.1371-.1049.2388-.2424.3054-.4125.0662-.1701.0995-.3448.0995-.5235,0-.1966-.034-.3763-.1028-.54-.0684-.1636-.1629-.3044-.2836-.4222s-.2628-.2095-.4268-.275c-.1644-.0655-.3441-.0981-.5393-.0981-.1994,0-.3824.0326-.5486.0981s-.3087.1561-.4272.2718c-.1182.1153-.2109.2539-.2771.4154-.0666.1615-.0999.3384-.0999.5303,0,.2224.0415.4164.1246.5826.0831.1658.1912.2986.3244.3993l-.6982.7788c-.2245-.2052-.4021-.4583-.5328-.7595Z"/><path class="j" d="m85.6937,68.4592c-.3491,0-.6682-.0634-.9568-.1898-.289-.1268-.5364-.3022-.7419-.5271-.2055-.2245-.3645-.492-.477-.8017-.1121-.3097-.1683-.6456-.1683-1.008,0-.362.0562-.6968.1683-1.0044.1124-.3076.2714-.574.477-.7985.2055-.2249.453-.4007.7419-.5271.2886-.1264.6076-.1898.9568-.1898.3531,0,.6721.0634.9568.1898s.5267.3022.7262.5271c.1994.2245.3531.4909.4612.7985.1081.3076.1622.6424.1622,1.0044,0,.3624-.0541.6982-.1622,1.008-.1081.3097-.2618.5772-.4612.8017-.1994.2249-.4415.4003-.7262.5271-.2847.1264-.6037.1898-.9568.1898Zm0-1.1978c.1909,0,.3695-.0329.536-.0981.1661-.0655.3083-.1561.4268-.2718s.212-.2553.2807-.4189c.0684-.1636.1028-.3434.1028-.54,0-.1962-.0344-.3753-.1028-.5368-.0687-.1611-.1622-.3008-.2807-.4186s-.2607-.2084-.4268-.2718c-.1665-.0634-.3452-.0949-.536-.0949-.1994,0-.3835.0326-.5518.0981s-.3126.1561-.4333.2718-.2148.2542-.2836.4154c-.0684.1615-.1028.3405-.1028.5368,0,.1966.0344.3753.1028.5368.0688.1615.1629.3011.2836.4189s.265.2095.4333.275c.1683.0652.3523.0981.5518.0981Z"/><path class="j" d="m83.4682,72.0432l1.7517-1.0062v-.3813h-1.7517v-1.0932h4.4132v1.7671c0,.2227-.0218.4397-.0655.6513s-.1174.4014-.2213.5693-.241.3022-.4114.4028c-.1704.1003-.3824.1504-.6356.1504-.2993,0-.5507-.0852-.7545-.2553s-.3491-.4057-.4361-.7068l-1.8888,1.211v-1.3091Zm3.0604-.0458c.1038,0,.188-.0233.2524-.0691.0645-.0462.1142-.1053.1497-.1776s.0594-.1536.0716-.2435c.0125-.0899.019-.1765.019-.2596v-.5983h-1.0287v.5325c0,.092.0072.1866.0218.2829.0147.0967.0405.184.0781.2632.0372.0788.0913.1436.1618.1941.0709.0501.1622.0756.2743.0756Z"/><path class="j" d="m83.4682,77.2109l2.8861-1.8656v-.0197l-2.8861.0265v-1.0868h4.4132v1.2765l-2.88,1.8588v.0197l2.88-.0265v1.0868h-4.4132v-1.2697Z"/><path class="j" d="m83.4682,79.8191h4.4132v3.1156h-.8977v-2.0356h-.8354v1.9243h-.8536v-1.9243h-.9163v2.1535h-.9102v-3.2334Z"/><path class="j" d="m83.4682,86.6909l1.7517-1.0062v-.3813h-1.7517v-1.0932h4.4132v1.7671c0,.2227-.0218.4397-.0655.6513s-.1174.4014-.2213.5693-.241.3022-.4114.4028c-.1704.1003-.3824.1504-.6356.1504-.2993,0-.5507-.0852-.7545-.2553-.2037-.1701-.3491-.4057-.4361-.7068l-1.8888,1.211v-1.3091Zm3.0604-.0458c.1038,0,.188-.0233.2524-.0691.0645-.0462.1142-.1053.1497-.1776s.0594-.1536.0716-.2435c.0125-.0899.019-.1765.019-.2596v-.5983h-1.0287v.5325c0,.092.0072.1866.0218.2829.0147.0967.0405.184.0781.2632.0372.0788.0913.1436.1618.1941.0709.0501.1622.0756.2743.0756Z"/></g><g><path class="j" d="m86.9713,45.1085h-3.503v-1.1193h3.503v-1.3091h.9102v3.7372h-.9102v-1.3088Z"/><path class="j" d="m83.4682,50.2074h1.8451v-1.8065h-1.8451v-1.1193h4.4132v1.1193h-1.6704v1.8065h1.6704v1.119h-4.4132v-1.119Z"/><path class="j" d="m83.4682,52.6674h4.4132v3.1156h-.8977v-2.0356h-.8354v1.9243h-.8536v-1.9243h-.9163v2.1535h-.9102v-3.2334Z"/></g></g><g><g><path class="c" d="m119.5069,20.3101v11.3724h-3.4593v-11.3724h-4.0477v-2.9543h11.5546v2.9543h-4.0477Z"/><path class="c" d="m131.7686,31.6825v-5.4633c0-.2832-.0198-.5533-.0604-.8096-.0406-.2558-.1186-.4819-.2327-.6779-.1142-.1954-.2668-.3508-.4556-.4655-.1888-.1142-.4314-.1718-.7279-.1718-.5808,0-1.0254.2058-1.3361.617-.3107.4117-.4655.9211-.4655,1.5282v5.443h-3.3176v-15.2977h3.3176v6.4953h.0406c.2294-.4045.5939-.7652,1.0934-1.0825.4984-.3167,1.0989-.4754,1.8004-.4754.6883,0,1.2647.1213,1.7302.3639.4655.2432.8431.5566,1.133.9408.2898.3848.4995.8267.628,1.3256.1273.499.1921.9985.1921,1.4974v6.2324h-3.3396Z"/><path class="c" d="m147.4543,26.7653v.4045c0,.135-.0066.2635-.0198.3848h-7.3049c.0263.2832.1109.5396.2525.769s.3239.4282.5467.5967c.2218.1691.4721.3003.7487.3947.2756.0944.5632.1416.8596.1416.5259,0,.9716-.0977,1.3361-.2937.3634-.1954.6609-.4479.8903-.7586l2.3065,1.4568c-.4721.6883-1.0967,1.2175-1.8718,1.5886-.7762.3711-1.6764.5566-2.7018.5566-.7553,0-1.47-.1186-2.1452-.354-.6741-.236-1.2647-.5802-1.7697-1.032-.5061-.4518-.9046-1.0084-1.1944-1.6698-.2898-.6603-.4347-1.4162-.4347-2.2659,0-.8228.1416-1.5682.4249-2.2363.2832-.6675.6675-1.2345,1.1538-1.6994.4852-.4655,1.0583-.8267,1.7192-1.083.6609-.2558,1.3767-.3842,2.1452-.3842.7421,0,1.4228.1246,2.0442.3744.6203.2498,1.1527.6104,1.5984,1.0825.4446.4726.7926,1.0457,1.0418,1.7203.2492.6746.3744,1.4436.3744,2.3065Zm-3.0553-1.2746c0-.5264-.1658-.9782-.4962-1.3558s-.8267-.5665-1.4876-.5665c-.3228,0-.6203.0505-.8903.1515-.269.101-.505.2399-.7081.415-.202.1751-.3634.3809-.4852.617-.1219.236-.1888.4825-.202.7388h4.2695Z"/><path class="c" d="m165.1261,31.4294c-.931.4249-2.0035.6373-3.2177.6373-1.1066,0-2.1287-.1817-3.0662-.5462-.9375-.3639-1.7499-.8799-2.4383-1.5479-.6872-.668-1.2274-1.4672-1.6182-2.3977-.3919-.931-.5873-1.9563-.5873-3.0761,0-1.1461.1987-2.1852.5972-3.1162.3974-.931.9474-1.723,1.6489-2.3773.7015-.6543,1.5249-1.1566,2.469-1.5079.9441-.3502,1.9629-.5259,3.0553-.5259,1.0122,0,2.0068.1789,2.985.5363.9782.3573,1.7708.8799,2.3779,1.5682l-2.3472,2.3472c-.3239-.4452-.7487-.7756-1.2757-.9913-.5259-.2157-1.066-.3239-1.6182-.3239-.6071,0-1.1637.1114-1.6698.3337-.5061.2229-.9408.5297-1.3053.9205-.3645.3914-.6477.8536-.8497,1.3866-.202.533-.303,1.1159-.303,1.7499,0,.6477.101,1.2416.303,1.7807.202.5401.4819,1.0018.8398,1.386.3568.3848.786.685,1.2845.9008.4995.2157,1.0462.3239,1.6391.3239.6883,0,1.2888-.135,1.8015-.4051.5127-.2695.9233-.6203,1.234-1.0517l2.4086,2.2659c-.6345.7284-1.4173,1.3053-2.3472,1.7302Z"/><path class="c" d="m175.809,31.6825v-5.4633c0-.2832-.0198-.5533-.0604-.8096-.0406-.2558-.1186-.4819-.2327-.6779-.1142-.1954-.2668-.3508-.4556-.4655-.1888-.1142-.4314-.1718-.7279-.1718-.5808,0-1.0254.2058-1.3361.617-.3107.4117-.4655.9211-.4655,1.5282v5.443h-3.3176v-15.2977h3.3176v6.4953h.0406c.2294-.4045.5939-.7652,1.0934-1.0825.4984-.3167,1.0989-.4754,1.8004-.4754.6883,0,1.2647.1213,1.7302.3639.4655.2432.8431.5566,1.133.9408.2898.3848.4995.8267.628,1.3256.1273.499.1921.9985.1921,1.4974v6.2324h-3.3396Z"/><path class="c" d="m188.6986,31.6825v-1.3964h-.0406c-.1208.23-.2799.4452-.4754.6477s-.4249.3777-.6872.5259c-.2635.1488-.5533.2701-.8706.3645-.3173.0944-.651.1416-1.0012.1416-.6752,0-1.2449-.1213-1.7104-.3639-.4655-.2432-.8431-.5566-1.133-.9414-.2898-.3842-.4995-.8223-.6269-1.3152-.1284-.4924-.1932-.9946-.1932-1.5073v-6.2324h3.3396v5.4633c0,.2832.0198.5533.0604.8096s.1175.4852.2327.6878c.1142.2025.2668.3612.4556.4754.1888.1147.438.1724.7487.1724.5797,0,1.0221-.2157,1.3251-.6477.3041-.4314.4556-.9375.4556-1.5177v-5.443h3.3187v10.077h-3.198Z"/><path class="c" d="m201.4257,24.3369c-.1482-.0401-.2931-.067-.4347-.0807-.1416-.0132-.2799-.0203-.415-.0203-.4446,0-.819.0812-1.1231.2421-.303.1619-.5467.3568-.7279.5851-.1822.2289-.314.4781-.3952.7471s-.1219.5045-.1219.7059v5.1664h-3.3176v-10.0649h3.1969v1.4568h.0406c.2558-.516.6203-.937,1.0923-1.2631.4721-.3261,1.0188-.4891,1.6391-.4891.135,0,.2668.0066.3952.0198.1273.0137.2316.034.3129.0609l-.1416,2.9339Z"/><path class="c" d="m210.0318,24.8633c-.1888-.2432-.4446-.4386-.7685-.5868s-.6543-.2229-.9913-.2229c-.3513,0-.6686.0708-.9518.2124-.2832.1416-.5259.331-.7279.567-.2031.236-.3612.5088-.4754.8195-.1153.3101-.1724.6406-.1724.9913s.0538.6812.1614.9913c.1087.3107.2668.5835.4765.8195.2086.236.4578.4221.7487.5566.2898.135.617.2025.9815.2025.337,0,.6708-.0642,1.0012-.1927.3304-.1279.5972-.3134.7992-.556l1.8411,2.2462c-.4183.4045-.9573.7218-1.6182.9507-.6609.2294-1.3635.3442-2.1045.3442-.7959,0-1.5392-.1213-2.2297-.3645-.6894-.2426-1.2888-.5967-1.7971-1.0621-.5094-.4655-.9101-1.0287-1.2021-1.6896-.2909-.6609-.4369-1.4096-.4369-2.2462,0-.8228.146-1.565.4369-2.2258.292-.6609.6927-1.2241,1.2021-1.6896.5083-.4655,1.1077-.8228,1.7971-1.0726.6905-.2498,1.4272-.3744,2.2088-.3744.3645,0,.7257.034,1.0825.101.3579.0675.7015.1586,1.0331.2734.3293.1147.6334.2563.9101.4249.2767.1691.516.354.718.5566l-1.9223,2.2258Z"/><path class="c" d="m220.4175,31.6825v-5.4633c0-.2832-.0198-.5533-.0604-.8096-.0406-.2558-.1186-.4819-.2327-.6779-.1142-.1954-.2668-.3508-.4556-.4655-.1888-.1142-.4314-.1718-.7279-.1718-.5808,0-1.0254.2058-1.3361.617-.3107.4117-.4655.9211-.4655,1.5282v5.443h-3.3176v-15.2977h3.3176v6.4953h.0406c.2294-.4045.5939-.7652,1.0934-1.0825.4984-.3167,1.0989-.4754,1.8004-.4754.6883,0,1.2647.1213,1.7302.3639.4655.2432.8431.5566,1.133.9408.2898.3848.4995.8267.628,1.3256.1273.499.1921.9985.1921,1.4974v6.2324h-3.3396Z"/><path class="c" d="m241.5012,26.6034c0,.8228-.1493,1.5682-.4457,2.2363-.2964.6675-.7015,1.234-1.2142,1.6994-.5127.4655-1.1055.8267-1.7807,1.0825-.6741.2563-1.3964.3848-2.1649.3848-.7553,0-1.4744-.1284-2.155-.3848-.6818-.2558-1.2746-.617-1.7807-1.0825-.5061-.4655-.9079-1.032-1.2043-1.6994-.2964-.668-.4446-1.4135-.4446-2.2363s.1482-1.5644.4446-2.2258c.2964-.6609.6982-1.2208,1.2043-1.6797.5061-.4583,1.0989-.8091,1.7807-1.0523.6807-.2426,1.3997-.3639,2.155-.3639.7685,0,1.4908.1213,2.1649.3639.6752.2432,1.268.5939,1.7807,1.0523.5127.4589.9178,1.0188,1.2142,1.6797.2964.6614.4457,1.403.4457,2.2258Zm-3.198,0c0-.3239-.0538-.6406-.1614-.9507-.1076-.3107-.2635-.5835-.4655-.8195-.202-.236-.4523-.4282-.7487-.5769-.2964-.1482-.6411-.2229-1.032-.2229s-.7355.0747-1.032.2229c-.2964.1488-.5434.3409-.7388.5769s-.3436.5088-.4446.8195c-.101.3101-.1515.6269-.1515.9507s.0505.6411.1515.9513.2525.5901.4545.8398c.2031.2498.4523.4485.7487.5967.2975.1488.6411.2229,1.0331.2229.3908,0,.7344-.0741,1.032-.2229.2964-.1482.5456-.3469.7487-.5967.202-.2498.3535-.5297.4545-.8398s.1515-.6274.1515-.9513Z"/><path class="c" d="m250.263,18.8329c-.1208-.0401-.2624-.0736-.4249-.101-.1614-.0269-.3239-.0406-.4852-.0406-.3107,0-.5599.0543-.7487.1619-.1899.1081-.3381.253-.4457.4353-.1076.1822-.1822.3881-.2229.617-.0395.2294-.0604.4589-.0604.6883v1.0116h2.2462v2.4685h-2.2462v7.6085h-3.3187v-7.6085h-1.8411v-2.4685h1.8411v-.9716c0-.6203.0681-1.2104.2031-1.7702.1339-.5599.3667-1.0523.6982-1.4771.3293-.4254.7751-.7624,1.335-1.0122.5599-.2492,1.2581-.3744,2.0947-.3744.2832,0,.5632.0176.8398.051.2756.0335.5292.084.7586.1515l-.2229,2.6304Z"/><path class="c" d="m261.08,24.074v3.8594c0,.4743.09.8294.2723,1.0665.1822.2371.5094.3557.9815.3557.1625,0,.3337-.0137.516-.0406s.3337-.0675.4556-.1213l.0406,2.4278c-.2294.0812-.5193.152-.8706.2124-.3502.0609-.7015.0911-1.0517.0911-.6752,0-1.2416-.0845-1.6994-.2536-.4589-.1685-.8267-.4122-1.1033-.7301s-.4754-.6966-.5972-1.1363c-.1208-.4391-.1822-.9299-.1822-1.4705v-4.2607h-1.6182v-2.4685h1.5984v-2.6507h3.2584v2.6507h2.3669v2.4685h-2.3669Z"/><path class="c" d="m272.3142,31.6825v-5.4633c0-.2832-.0198-.5533-.0604-.8096-.0406-.2558-.1186-.4819-.2327-.6779-.1142-.1954-.2668-.3508-.4556-.4655-.1888-.1142-.4314-.1718-.7279-.1718-.5808,0-1.0254.2058-1.3361.617-.3107.4117-.4655.9211-.4655,1.5282v5.443h-3.3176v-15.2977h3.3176v6.4953h.0406c.2294-.4045.5939-.7652,1.0934-1.0825.4984-.3167,1.0989-.4754,1.8004-.4754.6883,0,1.2647.1213,1.7302.3639.4655.2432.8431.5566,1.133.9408.2898.3848.4995.8267.628,1.3256.1273.499.1921.9985.1921,1.4974v6.2324h-3.3396Z"/><path class="c" d="m288,26.7653v.4045c0,.135-.0066.2635-.0198.3848h-7.3049c.0263.2832.1109.5396.2525.769s.3239.4282.5467.5967c.2218.1691.4721.3003.7487.3947.2756.0944.5632.1416.8596.1416.5259,0,.9716-.0977,1.3361-.2937.3634-.1954.6609-.4479.8903-.7586l2.3065,1.4568c-.4721.6883-1.0967,1.2175-1.8718,1.5886-.7762.3711-1.6764.5566-2.7018.5566-.7553,0-1.47-.1186-2.1452-.354-.6741-.236-1.2647-.5802-1.7697-1.032-.5061-.4518-.9046-1.0084-1.1944-1.6698-.2898-.6603-.4347-1.4162-.4347-2.2659,0-.8228.1416-1.5682.4249-2.2363.2832-.6675.6675-1.2345,1.1538-1.6994.4852-.4655,1.0583-.8267,1.7192-1.083.6609-.2558,1.3767-.3842,2.1452-.3842.7421,0,1.4228.1246,2.0442.3744.6203.2498,1.1527.6104,1.5984,1.0825.4446.4726.7926,1.0457,1.0418,1.7203.2492.6746.3744,1.4436.3744,2.3065Zm-3.0553-1.2746c0-.5264-.1658-.9782-.4962-1.3558s-.8267-.5665-1.4876-.5665c-.3228,0-.6203.0505-.8903.1515-.269.101-.505.2399-.7081.415-.202.1751-.3634.3809-.4852.617-.1219.236-.1888.4825-.202.7388h4.2695Z"/><path class="c" d="m119.5069,42.1797v11.3724h-3.4593v-11.3724h-4.0477v-2.9543h11.5546v2.9543h-4.0477Z"/><path class="c" d="m130.2108,46.2065c-.1482-.0401-.2931-.067-.4347-.0807-.1416-.0132-.2799-.0203-.415-.0203-.4446,0-.819.0812-1.1231.2421-.303.1619-.5467.3568-.7279.5851-.1822.2289-.314.4781-.3952.7471-.0812.269-.1219.5045-.1219.7059v5.1664h-3.3176v-10.0649h3.1969v1.4568h.0406c.2558-.516.6203-.937,1.0923-1.2631s1.0188-.4891,1.6391-.4891c.135,0,.2668.0066.3952.0198.1273.0137.2316.034.3129.0609l-.1416,2.9339Z"/><path class="c" d="m132.0345,44.8507c.5928-.5665,1.2845-.9913,2.0738-1.2746.7893-.2832,1.5951-.4249,2.4185-.4249.8497,0,1.5677.1048,2.155.3134.5862.2097,1.0616.533,1.4261.9716.3645.4386.6302.9913.7992,1.6594.1691.6675.2525,1.4601.2525,2.3773v5.0791h-3.0344v-1.0726h-.0615c-.2558.4183-.6444.7421-1.1626.9716-.5204.2289-1.0836.3436-1.6907.3436-.404,0-.8223-.0538-1.2537-.1619-.4325-.1076-.8267-.2832-1.1846-.5259-.3568-.2426-.651-.5665-.8794-.971-.2294-.4051-.3447-.9041-.3447-1.4974,0-.729.1987-1.3157.5972-1.7609.3974-.4452.9101-.7888,1.5381-1.032.6269-.2426,1.3251-.4045,2.0947-.4852.7685-.0812,1.5172-.1219,2.2451-.1219v-.1614c0-.499-.1746-.8667-.5259-1.1033-.3502-.2355-.7828-.354-1.2943-.354-.4732,0-.9277.1015-1.3668.3035-.438.2025-.8124.4452-1.1231.7284l-1.6786-1.801Zm6.0907,4.3106h-.4249c-.3645,0-.7323.017-1.1033.0505s-.7015.0977-.9913.1921c-.2909.0944-.5303.2327-.718.415-.1899.1817-.2843.4216-.2843.718,0,.1894.0439.3513.1317.4858.0878.135.1987.2426.3337.3239.135.0807.2909.1383.4655.1718.1757.034.3447.0505.5061.0505.6741,0,1.19-.185,1.5479-.556s.5368-.8733.5368-1.5079v-.3436Z"/><path class="c" d="m150.2147,53.5521v-5.504c0-.2832-.0242-.5528-.0714-.8096-.0472-.2558-.1241-.4819-.2327-.6779-.1076-.1949-.2591-.3502-.4545-.4649-.1965-.1147-.4424-.1724-.7388-.1724s-.5566.0576-.7795.1724c-.2218.1147-.4073.2728-.5566.4754-.1482.2025-.2591.4347-.3337.6982-.0736.2629-.1109.5363-.1109.8195v5.4633h-3.3385v-10.077h3.2166v1.3959h.0406c.1219-.2152.2799-.4282.4754-.6373s.4249-.3875.6883-.5363c.2635-.1482.55-.2695.8596-.3639.3107-.0944.6411-.1416.9924-.1416.6741,0,1.2471.1213,1.7192.3639.4721.2432.853.5566,1.1439.9408.2898.3848.4984.8267.6269,1.3256s.1921.9985.1921,1.4974v6.2324h-3.3385Z"/><path class="c" d="m162.3822,46.4497c-.2701-.2563-.5862-.4721-.9507-.6477-.3645-.1751-.7487-.2629-1.1538-.2629-.3107,0-.5961.0604-.8596.1822-.2635.1213-.3941.3304-.3941.6269,0,.2838.1438.4858.4347.6071.2898.1219.7586.2563,1.4063.4051.3777.0807.7586.1954,1.1428.3436.3842.1488.7323.3442,1.0418.5868.3107.2432.5599.5401.7487.8903.1888.3513.2843.769.2843,1.2548,0,.634-.1284,1.1703-.3853,1.6089-.2558.4386-.5895.7926-1.0012,1.0621-.4117.2701-.8739.4655-1.3866.5868s-1.0254.1822-1.5381.1822c-.8223,0-1.6281-.1317-2.4174-.3947-.7893-.2629-1.4469-.6505-1.9728-1.1637l1.8608-1.9629c.2975.3239.6609.5939,1.0934.8096.4314.2157.8903.3239,1.3756.3239.2701,0,.5368-.0637.7992-.1921.2635-.1284.3952-.354.3952-.6779,0-.3101-.1625-.5396-.4863-.6883-.3239-.1482-.8289-.3035-1.5172-.4655-.3513-.0807-.7015-.1883-1.0528-.3233-.3502-.135-.6642-.3173-.9408-.5467-.2767-.2289-.5028-.5121-.6774-.8497-.1757-.337-.2635-.7416-.2635-1.2142,0-.6071.1284-1.1231.3842-1.5479.2569-.4249.5873-.7718.9924-1.0418.404-.2701.853-.4688,1.3448-.5972.4929-.1279.9815-.1921,1.4678-.1921.7553,0,1.4941.118,2.2154.354.7213.236,1.3317.5901,1.8312,1.0621l-1.8213,1.8822Z"/><path class="c" d="m173.2092,40.7025c-.1208-.0401-.2624-.0736-.4249-.101-.1614-.0269-.3239-.0406-.4852-.0406-.3107,0-.5599.0543-.7487.1619-.1899.1081-.3381.253-.4457.4353s-.1822.3881-.2229.617c-.0395.2294-.0604.4589-.0604.6883v1.0116h2.2462v2.4685h-2.2462v7.6085h-3.3187v-7.6085h-1.8411v-2.4685h1.8411v-.9716c0-.6203.0681-1.2104.2031-1.7702.1339-.5599.3667-1.0523.6982-1.4771.3293-.4254.7751-.7624,1.335-1.0122.5599-.2492,1.2581-.3744,2.0947-.3744.2832,0,.5632.0176.8398.051.2756.0335.5292.084.7586.1515l-.2229,2.6304Z"/><path class="c" d="m192.6545,52.6008c0,.9848-.1416,1.8416-.4249,2.57-.2832.7284-.6818,1.3322-1.1944,1.8109-.5127.4792-1.1363.8365-1.8718,1.0726-.7355.236-1.5479.354-2.4383.354s-1.8037-.135-2.7413-.4045c-.9386-.2701-1.751-.6609-2.4383-1.1736l1.6588-2.3675c.4852.4314,1.0221.752,1.6083.9611.5873.2091,1.1637.3134,1.7302.3134.9716,0,1.6896-.2563,2.155-.769.4655-.5127.6982-1.1933.6982-2.0436v-.6071h-.0604c-.3107.4051-.729.7284-1.2548.9716-.5259.2426-1.1264.3639-1.8004.3639-.7696,0-1.4502-.1378-2.0442-.4144s-1.0956-.651-1.5073-1.1231-.7257-1.0221-.9408-1.6495c-.2163-.6274-.3239-1.2916-.3239-1.9931,0-.701.1076-1.369.3239-2.003.2152-.634.5292-1.1939.9408-1.6797.4117-.4858.9134-.8733,1.5073-1.1637.5939-.2898,1.268-.4347,2.0233-.4347.6345,0,1.2416.1279,1.8213.3842.5797.2563,1.0451.6543,1.3964,1.1939h.0406v-1.2949h3.1365v9.1257Zm-3.1574-4.1481c0-.337-.0571-.6609-.1713-.971-.1153-.3101-.2799-.5835-.4962-.8195-.2163-.236-.4721-.4216-.7685-.5566-.2975-.1345-.6345-.2025-1.0122-.2025s-.7114.0681-1.0012.2025c-.2909.135-.5368.3173-.7388.5462-.202.23-.3579.4995-.4655.8096-.1087.3107-.1614.6406-.1614.9913,0,.3376.0527.6614.1614.9716.1076.3101.2635.5835.4655.8195.202.236.4479.4249.7388.5665.2898.1416.6236.2124,1.0012.2124s.718-.0708,1.0221-.2124c.303-.1416.5599-.3272.7685-.5566.2097-.2289.3711-.499.4863-.8091.1142-.3101.1713-.6406.1713-.9919Z"/><path class="c" d="m201.8897,53.5521v-1.3964h-.0406c-.1208.23-.2799.4452-.4754.6477s-.4249.3777-.6872.5259c-.2635.1488-.5533.2701-.8706.3645-.3173.0944-.651.1416-1.0012.1416-.6752,0-1.2449-.1213-1.7104-.3639-.4655-.2432-.8431-.5566-1.133-.9414-.2898-.3842-.4995-.8223-.6269-1.3152-.1284-.4924-.1932-.9946-.1932-1.5073v-6.2324h3.3396v5.4633c0,.2832.0198.5533.0604.8096s.1175.4852.2327.6878c.1142.2025.2668.3612.4556.4754.1888.1147.438.1724.7487.1724.5797,0,1.0221-.2157,1.3251-.6477.3041-.4314.4556-.9375.4556-1.5177v-5.443h3.3187v10.077h-3.198Z"/><path class="c" d="m214.4633,46.2065c-.1482-.0401-.2931-.067-.4347-.0807-.1416-.0132-.2799-.0203-.415-.0203-.4446,0-.819.0812-1.1231.2421-.303.1619-.5467.3568-.7279.5851-.1822.2289-.314.4781-.3952.7471s-.1219.5045-.1219.7059v5.1664h-3.3176v-10.0649h3.1969v1.4568h.0406c.2558-.516.6203-.937,1.0923-1.2631.4721-.3261,1.0188-.4891,1.6391-.4891.135,0,.2668.0066.3952.0198.1273.0137.2316.034.3129.0609l-.1416,2.9339Z"/><path class="c" d="m216.0082,44.8507c.5928-.5665,1.2845-.9913,2.0738-1.2746.7893-.2832,1.5951-.4249,2.4185-.4249.8497,0,1.5677.1048,2.155.3134.5862.2097,1.0616.533,1.4261.9716.3645.4386.6302.9913.7992,1.6594.1691.6675.2525,1.4601.2525,2.3773v5.0791h-3.0344v-1.0726h-.0615c-.2558.4183-.6444.7421-1.1626.9716-.5204.2289-1.0836.3436-1.6907.3436-.404,0-.8223-.0538-1.2537-.1619-.4325-.1076-.8267-.2832-1.1846-.5259-.3568-.2426-.651-.5665-.8794-.971-.2294-.4051-.3447-.9041-.3447-1.4974,0-.729.1987-1.3157.5972-1.7609.3974-.4452.9101-.7888,1.5381-1.032.6269-.2426,1.3251-.4045,2.0947-.4852.7685-.0812,1.5172-.1219,2.2451-.1219v-.1614c0-.499-.1746-.8667-.5259-1.1033-.3502-.2355-.7828-.354-1.2943-.354-.4732,0-.9277.1015-1.3668.3035-.438.2025-.8124.4452-1.1231.7284l-1.6786-1.801Zm6.0907,4.3106h-.4249c-.3645,0-.7323.017-1.1033.0505s-.7015.0977-.9913.1921c-.2909.0944-.5303.2327-.718.415-.1899.1817-.2843.4216-.2843.718,0,.1894.0439.3513.1317.4858.0878.135.1987.2426.3337.3239.135.0807.2909.1383.4655.1718.1757.034.3447.0505.5061.0505.6741,0,1.19-.185,1.5479-.556s.5368-.8733.5368-1.5079v-.3436Z"/><path class="c" d="m231.4052,45.9436v3.8594c0,.4743.09.8294.2723,1.0665s.5094.3557.9815.3557c.1625,0,.3337-.0137.516-.0406s.3337-.0675.4556-.1213l.0406,2.4278c-.2294.0812-.5193.152-.8706.2124-.3502.0609-.7015.0911-1.0517.0911-.6752,0-1.2416-.0845-1.6994-.2536-.4589-.1685-.8267-.4122-1.1033-.7301-.2767-.3178-.4754-.6966-.5972-1.1363-.1208-.4391-.1822-.9299-.1822-1.4705v-4.2607h-1.6182v-2.4685h1.5984v-2.6507h3.2584v2.6507h2.3669v2.4685h-2.3669Z"/><path class="c" d="m239.7456,40.2574c0,.2563-.0516.4962-.1526.7185-.101.2229-.236.415-.404.5769-.1691.1619-.3711.2898-.6071.3842s-.483.1416-.7388.1416c-.5401,0-.9913-.1784-1.3558-.5363-.3645-.3573-.5467-.7855-.5467-1.285,0-.2426.0472-.4754.1416-.6977.0944-.2229.2294-.415.4051-.5769s.3777-.2937.6071-.3947.4787-.1515.7487-.1515c.2558,0,.5028.0472.7388.1416s.438.2223.6071.3842c.168.1619.303.354.404.5769.101.2223.1526.4622.1526.718Zm-3.5614,13.2947v-10.077h3.3176v10.077h-3.3176Z"/><path class="c" d="m252.9415,48.473c0,.8228-.1493,1.5682-.4457,2.2363-.2964.6675-.7015,1.234-1.2142,1.6994-.5127.4655-1.1055.8267-1.7807,1.0825-.6741.2563-1.3964.3848-2.1649.3848-.7553,0-1.4744-.1284-2.155-.3848-.6818-.2558-1.2746-.617-1.7807-1.0825s-.9079-1.032-1.2043-1.6994c-.2964-.668-.4446-1.4135-.4446-2.2363s.1482-1.5644.4446-2.2258c.2964-.6609.6982-1.2208,1.2043-1.6797.5061-.4583,1.0989-.8091,1.7807-1.0523.6807-.2426,1.3997-.3639,2.155-.3639.7685,0,1.4908.1213,2.1649.3639.6752.2432,1.268.5939,1.7807,1.0523.5127.4589.9178,1.0188,1.2142,1.6797.2964.6614.4457,1.403.4457,2.2258Zm-3.198,0c0-.3239-.0538-.6406-.1614-.9507-.1076-.3107-.2635-.5835-.4655-.8195s-.4523-.4282-.7487-.5769c-.2964-.1482-.6411-.2229-1.032-.2229s-.7355.0747-1.032.2229c-.2964.1488-.5434.3409-.7388.5769s-.3436.5088-.4446.8195c-.101.3101-.1515.6269-.1515.9507s.0505.6411.1515.9513.2525.5901.4545.8398c.2031.2498.4523.4485.7487.5967.2975.1488.6411.2229,1.0331.2229.3908,0,.7344-.0741,1.032-.2229.2964-.1482.5456-.3469.7487-.5967.202-.2498.3535-.5297.4545-.8398s.1515-.6274.1515-.9513Z"/><path class="c" d="m261.631,53.5521v-5.504c0-.2832-.0242-.5528-.0714-.8096-.0472-.2558-.1241-.4819-.2327-.6779-.1076-.1949-.2591-.3502-.4545-.4649-.1965-.1147-.4424-.1724-.7388-.1724s-.5566.0576-.7795.1724c-.2218.1147-.4073.2728-.5566.4754-.1482.2025-.2591.4347-.3337.6982-.0736.2629-.1109.5363-.1109.8195v5.4633h-3.3385v-10.077h3.2166v1.3959h.0406c.1219-.2152.2799-.4282.4754-.6373.1954-.2091.4249-.3875.6883-.5363.2635-.1482.55-.2695.8596-.3639.3107-.0944.6411-.1416.9924-.1416.6741,0,1.2471.1213,1.7192.3639.4721.2432.853.5566,1.1439.9408.2898.3848.4984.8267.6269,1.3256.1284.499.1921.9985.1921,1.4974v6.2324h-3.3385Z"/><path class="c" d="m179.3743,40.2574c0,.2563-.0505.4962-.1515.7185-.101.2229-.2404.415-.415.5769-.1757.1619-.3777.2898-.6071.3842-.2294.0944-.4721.1416-.729.1416-.539,0-.9913-.1784-1.3558-.5363-.3634-.3573-.5456-.7855-.5456-1.285,0-.2426.0472-.4754.1416-.6977.0944-.2229.2294-.415.404-.5769.1757-.1619.3777-.2937.6071-.3947s.4787-.1515.7487-.1515c.2569,0,.4995.0472.729.1416.2294.0944.4314.2223.6071.3842.1746.1619.314.354.415.5769.101.2223.1515.4622.1515.718Z"/><rect class="c" x="175.7921" y="43.4751" width="3.3396" height="10.077"/></g><g><path class="j" d="m116.23,63.6269h.931l4.0792,9.6918h-1.0131l-1.0542-2.5734h-5.1333l-1.0947,2.5734h-.9448l4.23-9.6918Zm.4244.9854l-2.2587,5.3109h4.4487l-2.19-5.3109Z"/><path class="j" d="m122.4037,68.7736c0-.1184-.0048-.2616-.0138-.4306s-.0162-.3399-.0205-.5128c-.0048-.1738-.0115-.3361-.0205-.487s-.0138-.2664-.0138-.3485h.8217c.0091.2378.0158.465.0205.6846.0043.2187.0158.36.0339.424h.0411c.1642-.3466.4383-.6455.8217-.8966s.8303-.3772,1.3416-.3772c.4927,0,.8942.0783,1.2046.233.3099.1556.5543.359.7324.6092.1776.2521.3008.5405.3695.8689.0683.3294.1026.6665.1026,1.0141v3.7641h-.8212v-3.724c0-.2549-.0229-.5042-.0687-.7448-.0458-.2425-.1256-.4593-.2397-.6512-.1141-.191-.2736-.3437-.4789-.4583s-.4722-.1709-.8007-.1709c-.3013,0-.5868.0525-.8556.1576-.2693.105-.5023.2645-.6985.4793-.1962.2139-.3514.4832-.4655.8078-.1141.3227-.1709.7047-.1709,1.142v3.1625h-.8212v-4.5451Z"/><path class="j" d="m136.7772,63.6269h.931l4.0792,9.6918h-1.0131l-1.0542-2.5734h-5.1333l-1.0947,2.5734h-.9448l4.23-9.6918Zm.4244.9854l-2.2587,5.3109h4.4487l-2.19-5.3109Z"/><path class="j" d="m142.9509,68.7736c0-.1184-.0048-.2616-.0138-.4306s-.0162-.3399-.0205-.5128c-.0048-.1738-.0115-.3361-.0205-.487s-.0138-.2664-.0138-.3485h.8217c.0091.2378.0158.465.0205.6846.0043.2187.0158.36.0339.424h.0411c.1642-.3466.4383-.6455.8217-.8966s.8303-.3772,1.3416-.3772c.4927,0,.8942.0783,1.2046.233.3099.1556.5543.359.7324.6092.1776.2521.3008.5405.3695.8689.0678.3294.1022.6665.1022,1.0141v3.7641h-.8207v-3.724c0-.2549-.0229-.5042-.0687-.7448-.0458-.2425-.1256-.4593-.2397-.6512-.1141-.191-.2736-.3437-.4789-.4583s-.4722-.1709-.8007-.1709c-.3013,0-.5868.0525-.8556.1576-.2693.105-.5023.2645-.6985.4793-.1962.2139-.3514.4832-.4655.8078-.1141.3227-.1709.7047-.1709,1.142v3.1625h-.8212v-4.5451Z"/><path class="j" d="m156.9133,72.9082c0,.7849-.1146,1.4189-.3428,1.9021-.2282.4841-.5128.8584-.8556,1.1229-.3418.2655-.7095.4431-1.1019.5347-.3924.0898-.7477.1356-1.0675.1356s-.6321-.0286-.9377-.0878c-.3056-.0602-.5958-.147-.8689-.2607-.274-.1136-.5223-.253-.7467-.4173-.2234-.1642-.4173-.3514-.5815-.5615l.6436-.6016c.2922.4106.6569.7104,1.0952.9033.4383.191.9033.2865,1.396.2865.4201,0,.7734-.0544,1.0609-.1642.2874-.1089.5252-.253.7123-.4306.1862-.1786.3323-.3743.4373-.5891.105-.2139.1824-.4287.233-.6436.0506-.2139.0802-.4163.0888-.6092.0095-.191.0143-.3457.0143-.4641v-.8766h-.0277c-.2378.3829-.5595.6837-.9654.9033s-.8823.3285-1.4304.3285c-.465,0-.9033-.084-1.3139-.253s-.7687-.402-1.0742-.698c-.3065-.297-.5481-.6417-.7257-1.0332-.1786-.3934-.2674-.8126-.2674-1.2604,0-.4469.0888-.867.2674-1.2585.1776-.3934.4192-.7352.7257-1.0274.3056-.2922.6636-.5242,1.0742-.698.4106-.1728.8489-.2607,1.3139-.2607.5481,0,1.0246.1108,1.4304.3294s.7276.5204.9654.9033h.0277v-1.0675h.8212v5.9135Zm-.7944-2.834c0-.3457-.0659-.6722-.1986-.9778-.1318-.3065-.3103-.571-.5338-.7944s-.4879-.401-.7935-.5338-.6321-.1986-.9787-.1986c-.3476,0-.6732.0659-.9787.1986-.3065.1327-.571.3103-.7944.5338s-.401.4879-.5338.7944c-.1318.3056-.1986.6321-.1986.9778,0,.3476.0668.6741.1986.9797.1327.3056.3103.5701.5338.7935s.4879.402.7944.5338c.3056.1318.6312.1986.9787.1986.3466,0,.6732-.0668.9787-.1986s.5701-.3103.7935-.5338.402-.4879.5338-.7935c.1327-.3056.1986-.6321.1986-.9797Z"/><path class="j" d="m159.0618,62.97h.8212v10.3488h-.8212v-10.3488Z"/><path class="j" d="m161.8538,70.1563c0-.4832.0821-.9281.2464-1.3349.1642-.4049.3924-.7562.6846-1.0532s.6436-.5271,1.0542-.6913.8575-.2473,1.3416-.2473c.4832,0,.9281.0831,1.3349.2473.4058.1642.7572.3944,1.0532.6913.297.297.5271.6484.6913,1.0532.1642.4068.2464.8517.2464,1.3349,0,.4841-.0821.9291-.2464,1.3349-.1642.4068-.3944.7582-.6913,1.0542-.296.296-.6474.5271-1.0532.6913-.4068.1642-.8517.2464-1.3349.2464-.4841,0-.931-.0821-1.3416-.2464s-.762-.3953-1.0542-.6913-.5204-.6474-.6846-1.0542c-.1642-.4058-.2464-.8508-.2464-1.3349Zm.8212,0c0,.3562.0573.6913.1719,1.0064.1136.3151.2798.5882.4994.8212.2187.233.4832.4182.7935.5548s.6569.2053,1.0408.2053c.3829,0,.7295-.0687,1.0398-.2053s.5748-.3218.7944-.5548c.2187-.233.3848-.5061.4994-.8212.1136-.3151.1709-.6503.1709-1.0064,0-.3552-.0573-.6913-.1709-1.0064-.1146-.3141-.2807-.5882-.4994-.8212-.2196-.232-.4841-.4163-.7944-.5538s-.6569-.2053-1.0398-.2053c-.3839,0-.7305.0678-1.0408.2053s-.5748.3218-.7935.5538c-.2196.233-.3858.507-.4994.8212-.1146.3151-.1719.6512-.1719,1.0064Z"/><path class="j" d="m169.8345,69.7056h3.3812v.7391h-3.3812v-.7391Z"/><path class="j" d="m183.1128,71.7986c-.465.6302-1.0036,1.0819-1.6147,1.3559-.6121.2731-1.2728.4106-1.9852.4106-.7391,0-1.417-.126-2.0329-.3762-.6159-.2511-1.143-.6025-1.5812-1.0542-.4373-.4516-.7801-.9902-1.0265-1.6156-.2464-.6245-.3695-1.3072-.3695-2.0463s.1232-1.4189.3695-2.0396.5891-1.1563,1.0265-1.6089c.4383-.4507.9654-.8049,1.5812-1.0599.6159-.2559,1.2938-.3839,2.0329-.3839.6569,0,1.2709.1165,1.841.3495s1.0704.6226,1.4991,1.1707l-.7391.6149c-.3008-.4564-.6865-.7887-1.1563-.9988-.4707-.2101-.952-.3151-1.4447-.3151-.6293,0-1.1974.1098-1.7044.3285-.5061.2196-.9377.5204-1.2929.9033-.3562.3839-.6302.8355-.8221,1.3559-.191.5194-.2874,1.0809-.2874,1.6834s.0964,1.164.2874,1.6834c.1919.5204.466.972.8221,1.3559.3552.3829.7868.6837,1.2929.9033.507.2187,1.0752.3285,1.7044.3285.2464,0,.5023-.0296.7668-.0898.2645-.0592.5223-.1499.7734-.2731s.4908-.2788.719-.466c.2273-.1862.4287-.4125.6016-.677l.7391.5605Z"/><path class="j" d="m189.4512,70.6633c0,.3103.0019.5891.0067.8355.0038.2464.0115.4736.0201.6837.0095.2101.021.4068.0344.5882.0134.1833.0344.3657.0621.5481h-.7668c-.0554-.3103-.0821-.6522-.0821-1.0265h-.0277c-.2378.4106-.5319.7114-.8832.9033s-.7964.2874-1.3339.2874c-.274,0-.5433-.0344-.8078-.1031-.2655-.0678-.5023-.1776-.7123-.3285-.2101-.1499-.381-.3437-.5128-.5815-.1327-.2368-.1986-.5242-.1986-.8622,0-.4832.1232-.867.3695-1.1497s.55-.4946.91-.6369c.3609-.1413.7438-.232,1.1497-.274.4068-.0401.7648-.0611,1.0752-.0611h.9577v-.3839c0-.5471-.169-.9396-.5061-1.1764-.338-.2378-.762-.3562-1.2728-.3562-.7305,0-1.374.2378-1.9307.7114l-.4784-.5615c.3008-.2912.6751-.5128,1.122-.6627.4469-.1509.8766-.2273,1.2872-.2273.7658,0,1.3779.1814,1.8343.5414.4555.36.6846.9424.6846,1.7455v1.5469Zm-1.6433-.5204c-.3466,0-.6818.0229-1.0064.0687-.3237.0458-.6159.1232-.8756.233-.2597.1089-.4679.2549-.6226.4373-.1556.1833-.233.4106-.233.6846,0,.1919.043.3628.1299.5128.0869.1509.1986.275.3352.3705.1375.0955.2903.1681.4593.2187.1681.0506.3399.0754.5128.0754.4383,0,.7983-.064,1.0819-.1919.2826-.127.508-.2941.677-.4994s.2855-.4383.3495-.698c.064-.2607.0955-.5223.0955-.7878v-.424h-.9033Z"/><path class="j" d="m194.7344,67.7338h-1.8076v4.1202c0,.2826.0783.5023.233.6569.1556.1556.3695.233.6436.233.1547,0,.3122-.021.4727-.0611.1595-.042.3122-.0936.4583-.1585l.0678.7391c-.1547.0554-.3323.105-.5338.1509-.2005.0458-.3781.0687-.5338.0687-.2922,0-.5424-.0439-.7524-.1299-.2101-.0869-.3791-.2024-.507-.3495-.128-.1451-.2206-.317-.2807-.5137-.0592-.1948-.0888-.4077-.0888-.6359v-4.1202h-1.3683v-.7391h1.3683v-1.8209h.8212v1.8209h1.8076v.7391Z"/><path class="j" d="m196.2125,62.97h.8212v5.1333h.0277c.1642-.3466.4373-.6455.8212-.8966.3829-.2511.8298-.3772,1.3416-.3772.4927,0,.8937.0783,1.2041.233.3103.1556.5548.359.7324.6092.1786.2521.3017.5405.3695.8689.0687.3294.1031.6665.1031,1.0141v3.7641h-.8212v-3.724c0-.2549-.0229-.5042-.0687-.7448-.0458-.2425-.1251-.4593-.2397-.6512-.1136-.191-.274-.3437-.4793-.4583s-.4717-.1709-.8002-.1709c-.3017,0-.5863.0525-.8556.1576s-.5023.2645-.698.4793c-.1967.2139-.3514.4832-.466.8078-.1136.3227-.1709.7047-.1709,1.142v3.1625h-.8212v-10.3488Z"/><path class="j" d="m203.4676,70.1563c0-.4832.0821-.9281.2464-1.3349.1642-.4049.3924-.7562.6846-1.0532s.6436-.5271,1.0542-.6913.8575-.2473,1.3416-.2473c.4832,0,.9281.0831,1.3349.2473.4058.1642.7572.3944,1.0532.6913.297.297.5271.6484.6913,1.0532.1642.4068.2464.8517.2464,1.3349,0,.4841-.0821.9291-.2464,1.3349-.1642.4068-.3944.7582-.6913,1.0542-.296.296-.6474.5271-1.0532.6913-.4068.1642-.8517.2464-1.3349.2464-.4841,0-.931-.0821-1.3416-.2464s-.762-.3953-1.0542-.6913-.5204-.6474-.6846-1.0542c-.1642-.4058-.2464-.8508-.2464-1.3349Zm.8212,0c0,.3562.0573.6913.1719,1.0064.1136.3151.2798.5882.4994.8212.2187.233.4832.4182.7935.5548s.6569.2053,1.0408.2053c.3829,0,.7295-.0687,1.0398-.2053s.5748-.3218.7944-.5548c.2187-.233.3848-.5061.4994-.8212.1136-.3151.1709-.6503.1709-1.0064,0-.3552-.0573-.6913-.1709-1.0064-.1146-.3141-.2807-.5882-.4994-.8212-.2196-.232-.4841-.4163-.7944-.5538s-.6569-.2053-1.0398-.2053c-.3839,0-.7305.0678-1.0408.2053s-.5748.3218-.7935.5538c-.2196.233-.3858.507-.4994.8212-.1146.3151-.1719.6512-.1719,1.0064Z"/><path class="j" d="m212.0909,62.97h.8212v10.3488h-.8212v-10.3488Z"/><path class="j" d="m215.1837,64.4901c0-.1738.0592-.3199.1786-.4392.1184-.1184.2645-.1776.4373-.1776.1738,0,.3199.0592.4383.1776.1184.1194.1776.2655.1776.4392,0,.1728-.0592.3189-.1776.4373s-.2645.1776-.4383.1776c-.1728,0-.3189-.0592-.4373-.1776-.1194-.1184-.1786-.2645-.1786-.4373Zm.2053,2.5046h.8212v6.324h-.8212v-6.324Z"/><path class="j" d="m223.8347,72.3878c-.3103.3743-.6617.6503-1.0542.8279-.3924.1786-.8164.2674-1.2728.2674-.4841,0-.931-.0821-1.3416-.2464s-.762-.3953-1.0542-.6913-.5204-.6474-.6846-1.0542c-.1642-.4058-.2464-.8508-.2464-1.3349,0-.4832.0821-.9281.2464-1.3349.1642-.4049.3924-.7562.6846-1.0532s.6436-.5271,1.0542-.6913.8575-.2473,1.3416-.2473c.465,0,.8966.0964,1.2938.2884.3963.191.7505.4602,1.0609.8078l-.6579.4927c-.2368-.2655-.4975-.4727-.7801-.6226-.2826-.1509-.5882-.2263-.9167-.2263-.3839,0-.7305.0678-1.0408.2053s-.5748.3218-.7935.5538c-.2196.233-.3858.507-.4994.8212-.1146.3151-.1719.6512-.1719,1.0064,0,.3562.0573.6913.1719,1.0064.1136.3151.2798.5882.4994.8212.2187.233.4832.4182.7935.5548s.6569.2053,1.0408.2053c.3466,0,.6636-.0802.951-.2397s.5357-.3714.7457-.6369l.6302.5204Z"/><path class="j" d="m228.9127,63.6269h2.792c.338,0,.6913.0391,1.0609.1165.3695.0783.7076.212,1.0131.4039s.5567.4536.7534.7868c.1957.3332.2941.7515.2941,1.2528,0,.4383-.0802.8164-.2397,1.1363s-.3743.5815-.6436.7868-.5796.3581-.931.4593c-.3514.0993-.7181.1499-1.1019.1499h-2.094v4.5996h-.9033v-9.6918Zm.9033,4.2711h2.053c.2559,0,.507-.0296.7534-.0888s.465-.1547.6569-.2884c.191-.1318.3466-.3075.465-.5261s.1786-.4879.1786-.8078c0-.3103-.0621-.5748-.1852-.7935-.1232-.2196-.2826-.3991-.4793-.5414-.1957-.1413-.422-.2435-.677-.3084-.2559-.063-.5118-.0955-.7668-.0955h-1.9985v3.4499Z"/><path class="j" d="m241.4519,70.6633c0,.3103.0019.5891.0067.8355.0038.2464.0115.4736.0201.6837.0095.2101.021.4068.0344.5882.0134.1833.0344.3657.0621.5481h-.7668c-.0554-.3103-.0821-.6522-.0821-1.0265h-.0277c-.2378.4106-.5319.7114-.8832.9033s-.7964.2874-1.3339.2874c-.274,0-.5433-.0344-.8078-.1031-.2655-.0678-.5023-.1776-.7123-.3285-.2101-.1499-.381-.3437-.5128-.5815-.1327-.2368-.1986-.5242-.1986-.8622,0-.4832.1232-.867.3695-1.1497s.55-.4946.91-.6369c.3609-.1413.7438-.232,1.1497-.274.4068-.0401.7648-.0611,1.0752-.0611h.9577v-.3839c0-.5471-.169-.9396-.5061-1.1764-.338-.2378-.762-.3562-1.2728-.3562-.7305,0-1.374.2378-1.9307.7114l-.4784-.5615c.3008-.2912.6751-.5128,1.122-.6627.4469-.1509.8766-.2273,1.2872-.2273.7658,0,1.3779.1814,1.8343.5414.4555.36.6846.9424.6846,1.7455v1.5469Zm-1.6433-.5204c-.3466,0-.6818.0229-1.0064.0687-.3237.0458-.6159.1232-.8756.233-.2597.1089-.4679.2549-.6226.4373-.1556.1833-.233.4106-.233.6846,0,.1919.043.3628.1299.5128.0869.1509.1986.275.3352.3705.1375.0955.2903.1681.4593.2187.1681.0506.3399.0754.5128.0754.4383,0,.7983-.064,1.0819-.1919.2826-.127.508-.2941.677-.4994s.2855-.4383.3495-.698c.064-.2607.0955-.5223.0955-.7878v-.424h-.9033Z"/><path class="j" d="m243.6414,68.7736c0-.1184-.0048-.2616-.0134-.4306-.0095-.169-.0162-.3399-.021-.5128-.0048-.1738-.0115-.3361-.0201-.487-.0095-.1509-.0143-.2664-.0143-.3485h.8212c.0095.2378.0162.465.021.6846.0048.2187.0153.36.0344.424.2091-.3743.4784-.6799.8078-.9167.3285-.2378.7295-.3571,1.2041-.3571.0821,0,.1623.0076.2397.021s.1576.0306.2397.0477l-.0955.8078c-.1098-.0363-.2148-.0544-.3151-.0544-.3562,0-.6646.0563-.9243.1709s-.4746.2712-.6436.4717c-.169.2015-.2941.4364-.3762.7056s-.1232.5586-.1232.8699v3.449h-.8212v-4.5451Z"/><path class="j" d="m248.1312,64.4901c0-.1738.0592-.3199.1786-.4392.1184-.1184.2645-.1776.4373-.1776.1738,0,.3199.0592.4383.1776.1184.1194.1776.2655.1776.4392,0,.1728-.0592.3189-.1776.4373s-.2645.1776-.4383.1776c-.1728,0-.3189-.0592-.4373-.1776-.1194-.1184-.1786-.2645-.1786-.4373Zm.2053,2.5046h.8212v6.324h-.8212v-6.324Z"/><path class="j" d="m251.499,71.7031c.1738.338.4287.5958.7668.7734s.6932.2674,1.0675.2674c.1738,0,.3466-.0277.5204-.0821.1728-.0554.3285-.1318.465-.233.1375-.1003.2492-.2215.3361-.3628.0859-.1413.1299-.3036.1299-.4851,0-.2922-.0936-.5118-.2807-.6579-.1871-.1461-.4173-.2597-.6913-.3418s-.5748-.1528-.9033-.2129c-.3285-.0592-.6302-.1499-.9033-.2731-.274-.1232-.5051-.2941-.6913-.5137-.1872-.2187-.2807-.529-.2807-.93,0-.3113.064-.5806.191-.8078.128-.2282.2951-.4182.5003-.5691.2053-.1499.4354-.2616.6913-.3342.2549-.0735.5156-.1108.7801-.1108.5204,0,.9692.0964,1.3483.2884.3781.191.6732.4927.8832.9033l-.7391.4373c-.1556-.2912-.3495-.5128-.5825-.6627-.232-.1509-.5357-.2263-.91-.2263-.1461,0-.2989.0229-.4583.0678-.1604.0458-.3036.1098-.4316.1929-.128.0821-.2349.1872-.3218.3141-.0869.128-.1299.274-.1299.4383,0,.2826.0936.4927.2807.6293s.4173.2444.6913.3218c.274.0783.5748.1432.9033.1986s.6293.1432.9033.2674c.274.1222.5042.3008.6913.5328.1872.233.2807.5643.2807.9931,0,.3285-.0611.614-.1852.8556-.1232.2425-.2922.445-.5061.6092-.2148.1642-.4583.2874-.7324.3695s-.5615.1232-.8622.1232c-.5481,0-1.0475-.105-1.4991-.3151s-.8011-.5338-1.0475-.972l.7257-.4927Z"/><path class="j" d="m257.3169,62.97h.8212v5.1333h.0277c.1642-.3466.4373-.6455.8212-.8966.3829-.2511.8298-.3772,1.3416-.3772.4927,0,.8937.0783,1.2041.233.3103.1556.5548.359.7324.6092.1786.2521.3017.5405.3695.8689.0687.3294.1031.6665.1031,1.0141v3.7641h-.8212v-3.724c0-.2549-.0229-.5042-.0687-.7448-.0458-.2425-.1251-.4593-.2397-.6512-.1136-.191-.274-.3437-.4793-.4583s-.4717-.1709-.8002-.1709c-.3017,0-.5863.0525-.8556.1576s-.5023.2645-.698.4793c-.1967.2139-.3514.4832-.466.8078-.1136.3227-.1709.7047-.1709,1.142v3.1625h-.8212v-10.3488Z"/></g></g></svg>