<svg width="247" height="88" viewBox="0 0 247 88" fill="none" xmlns="http://www.w3.org/2000/svg">
<g clip-path="url(#clip0_1_377)">
<path d="M78.6722 9.3277H1.0777V86.9222H78.6722V9.3277Z" fill="#FDBB33"/>
<path d="M79.7499 87.9999H0V8.25H79.7499V87.9999ZM2.15541 85.8445H77.5945V10.4054H2.15541V85.8445Z" fill="black"/>
<path d="M39.875 82.6114C58.9213 82.6114 74.3614 67.1713 74.3614 48.125C74.3614 29.0786 58.9213 13.6385 39.875 13.6385C20.8287 13.6385 5.38855 29.0786 5.38855 48.125C5.38855 67.1713 20.8287 82.6114 39.875 82.6114Z" fill="#804099"/>
<path d="M39.875 83.6891C20.2652 83.6891 4.31085 67.7348 4.31085 48.125C4.31085 28.5151 20.2652 12.5608 39.875 12.5608C59.4848 12.5608 75.4391 28.5151 75.4391 48.125C75.4391 67.7348 59.4848 83.6891 39.875 83.6891ZM39.875 14.7162C21.453 14.7162 6.46626 29.7029 6.46626 48.1249C6.46626 66.5469 21.453 81.5336 39.875 81.5336C58.297 81.5336 73.2837 66.5469 73.2837 48.1249C73.2837 29.7029 58.297 14.7162 39.875 14.7162Z" fill="black"/>
<path d="M57.1182 30.8817C57.1182 21.3586 49.3981 13.6385 39.875 13.6385C30.3519 13.6385 22.6318 21.3586 22.6318 30.8817C13.1086 30.8817 5.38855 38.6018 5.38855 48.125C5.38855 57.6481 13.1086 65.3682 22.6318 65.3682C22.6318 74.8913 30.3519 82.6114 39.875 82.6114C49.3981 82.6114 57.1182 74.8913 57.1182 65.3682C66.6413 65.3682 74.3614 57.6481 74.3614 48.125C74.3614 38.6018 66.6413 30.8817 57.1182 30.8817Z" fill="#FDBB33"/>
<path d="M39.875 83.6891C30.1245 83.6891 22.128 76.033 21.5835 66.4164C11.967 65.8719 4.31085 57.8755 4.31085 48.125C4.31085 38.3744 11.967 30.3779 21.5835 29.8335C22.128 20.217 30.1245 12.5608 39.875 12.5608C49.6255 12.5608 57.622 20.217 58.1664 29.8335C67.783 30.378 75.4391 38.3744 75.4391 48.125C75.4391 57.8755 67.783 65.872 58.1664 66.4164C57.6219 76.033 49.6255 83.6891 39.875 83.6891ZM22.6318 31.9595C13.7183 31.9595 6.46626 39.2114 6.46626 48.125C6.46626 57.0385 13.7183 64.2905 22.6318 64.2905H23.7095V65.3682C23.7095 74.2817 30.9615 81.5337 39.875 81.5337C48.7885 81.5337 56.0405 74.2817 56.0405 65.3682V64.2905H57.1182C66.0317 64.2905 73.2837 57.0385 73.2837 48.125C73.2837 39.2114 66.0317 31.9595 57.1182 31.9595H56.0405V30.8817C56.0405 21.9682 48.7885 14.7162 39.875 14.7162C30.9615 14.7162 23.7095 21.9682 23.7095 30.8817V31.9595H22.6318Z" fill="black"/>
<path d="M57.1182 35.1926C55.1091 35.1926 53.2148 35.664 51.5185 36.4814C52.336 34.7851 52.8074 32.8908 52.8074 30.8818C52.8074 23.7393 47.0173 17.9494 39.875 17.9494C32.7326 17.9494 26.9426 23.7394 26.9426 30.8818C26.9426 32.8908 27.4139 34.7851 28.2314 36.4814C26.5351 35.664 24.6408 35.1926 22.6317 35.1926C15.4894 35.1926 9.69934 40.9826 9.69934 48.125C9.69934 55.2673 15.4894 61.0574 22.6317 61.0574C24.6407 61.0574 26.5351 60.586 28.2314 59.7685C27.4139 61.4648 26.9426 63.3591 26.9426 65.3682C26.9426 72.5106 32.7326 78.3006 39.875 78.3006C47.0173 78.3006 52.8074 72.5106 52.8074 65.3682C52.8074 63.3591 52.336 61.4648 51.5185 59.7685C53.2148 60.586 55.1092 61.0574 57.1182 61.0574C64.2605 61.0574 70.0506 55.2673 70.0506 48.125C70.0506 40.9826 64.2605 35.1926 57.1182 35.1926Z" fill="#005899"/>
<path d="M39.875 79.3783C32.15 79.3783 25.8649 73.0931 25.8649 65.3682C25.8649 64.0912 26.0381 62.8374 26.3813 61.6187C25.1625 61.9618 23.9088 62.1351 22.6317 62.1351C14.9068 62.1351 8.62164 55.8499 8.62164 48.125C8.62164 40.4 14.9068 34.1149 22.6317 34.1149C23.9087 34.1149 25.1625 34.2881 26.3813 34.6313C26.0381 33.4125 25.8649 32.1588 25.8649 30.8817C25.8649 23.1568 32.15 16.8716 39.875 16.8716C47.5999 16.8716 53.8851 23.1568 53.8851 30.8817C53.8851 32.1587 53.7118 33.4125 53.3687 34.6313C54.5874 34.2881 55.8412 34.1149 57.1182 34.1149C64.8431 34.1149 71.1283 40.4 71.1283 48.125C71.1283 55.8499 64.8431 62.1351 57.1182 62.1351C55.8412 62.1351 54.5874 61.9618 53.3687 61.6187C53.7118 62.8374 53.8851 64.0912 53.8851 65.3682C53.8851 73.0931 47.5999 79.3783 39.875 79.3783ZM27.7635 58.7974L29.2025 60.2364C28.418 61.8642 28.0202 63.5909 28.0202 65.3681C28.0202 71.9045 33.3386 77.2228 39.8749 77.2228C46.4112 77.2228 51.7296 71.9045 51.7296 65.3681C51.7296 63.5909 51.3318 61.8642 50.5473 60.2364L51.9863 58.7974C53.6141 59.5818 55.3408 59.9797 57.118 59.9797C63.6544 59.9797 68.9727 54.6613 68.9727 48.125C68.9727 41.5886 63.6544 36.2703 57.118 36.2703C55.3408 36.2703 53.6141 36.6681 51.9863 37.4526L50.5473 36.0135C51.3318 34.3858 51.7296 32.6591 51.7296 30.8818C51.7296 24.3455 46.4112 19.0271 39.8749 19.0271C33.3386 19.0271 28.0202 24.3455 28.0202 30.8818C28.0202 32.6591 28.418 34.3858 29.2025 36.0135L27.7635 37.4526C26.1357 36.6681 24.409 36.2703 22.6317 36.2703C16.0954 36.2703 10.7771 41.5886 10.7771 48.125C10.7771 54.6613 16.0954 59.9797 22.6317 59.9797C24.409 59.9797 26.1357 59.5818 27.7635 58.7974Z" fill="black"/>
<path d="M20.2651 55.6689L39.875 24.2934L59.4848 55.6689H20.2651Z" fill="#008445"/>
<path d="M39.875 26.3269L57.5401 54.5912H22.2098L39.875 26.3269ZM39.875 22.2601L18.3209 56.7465H61.429L39.875 22.2601Z" fill="black"/>
<path d="M40.9527 43.8141H38.7973V73.9898H40.9527V43.8141Z" fill="#FDBB33"/>
<path d="M46.3411 49.2027H33.4088V51.3581H46.3411V49.2027Z" fill="#FDBB33"/>
<path d="M40.9527 37.9701C40.9527 37.9701 40.9527 36.3536 42.5692 35.8147C41.4915 34.737 40.4138 35.2759 39.875 35.8147C39.3361 35.2759 38.2584 34.737 37.1807 35.8147C38.7972 36.3536 38.7972 37.9701 38.7972 37.9701C37.7195 36.8924 35.5641 36.8924 33.9476 37.9701C36.103 38.7596 35.5641 42.281 38.7972 40.6644C38.7972 40.6644 38.7972 41.7421 39.875 42.281C40.9527 41.7421 40.9527 40.6644 40.9527 40.6644C44.1858 42.281 43.6469 38.7596 45.8023 37.9701C44.1858 36.8924 42.0304 36.8924 40.9527 37.9701Z" fill="white"/>
<path d="M22.1079 13.6385H5.38855V30.3578C9.08623 23.1953 14.9453 17.3362 22.1079 13.6385Z" fill="#D82F27"/>
<path d="M4.31085 34.7947V12.5608H26.5448L22.6023 14.5963C15.6884 18.1655 9.91542 23.9385 6.34629 30.8523L4.31085 34.7947ZM6.46626 14.7162V26.3612C9.50014 21.6968 13.4468 17.7501 18.1112 14.7162H6.46626Z" fill="black"/>
<path d="M57.6421 13.6385H74.3614V30.3578C70.6637 23.1953 64.8046 17.3362 57.6421 13.6385Z" fill="#D82F27"/>
<path d="M75.4391 34.7947L73.4037 30.8523C69.8345 23.9384 64.0615 18.1654 57.1477 14.5963L53.2052 12.5608H75.4391V34.7947ZM61.6388 14.7162C66.3032 17.7501 70.2498 21.6968 73.2837 26.3612V14.7162H61.6388Z" fill="black"/>
<path d="M22.1079 82.6114H5.38855V65.8921C9.08623 73.0546 14.9453 78.9137 22.1079 82.6114Z" fill="#D82F27"/>
<path d="M26.5448 83.6891H4.31085V61.4552L6.34629 65.3977C9.91549 72.3115 15.6885 78.0845 22.6023 81.6537L26.5448 83.6891ZM6.46626 81.5337H18.1112C13.4468 78.4998 9.50014 74.5532 6.46626 69.8887V81.5337Z" fill="black"/>
<path d="M57.6421 82.6114H74.3614V65.8921C70.6637 73.0546 64.8046 78.9137 57.6421 82.6114Z" fill="#D82F27"/>
<path d="M75.4391 83.6891H53.2052L57.1477 81.6537C64.0615 78.0845 69.8345 72.3114 73.4037 65.3977L75.4391 61.4552V83.6891ZM61.6388 81.5337H73.2837V69.8887C70.2498 74.5532 66.3032 78.4998 61.6388 81.5337Z" fill="black"/>
<path d="M50.485 4.45368C50.1842 4.58472 49.8373 4.65028 49.4445 4.65028C49.0868 4.65028 48.7563 4.59404 48.453 4.48198C48.1497 4.36956 47.8868 4.21058 47.6641 4.00502C47.4418 3.79947 47.267 3.55314 47.1406 3.26634C47.0142 2.97953 46.9508 2.66405 46.9508 2.31887C46.9508 1.96585 47.0153 1.64567 47.1438 1.35887C47.2727 1.07243 47.4504 0.828226 47.6773 0.626633C47.904 0.42504 48.1704 0.27038 48.4758 0.162213C48.7813 0.0540466 49.1107 0 49.4642 0C49.7914 0 50.113 0.0551466 50.4295 0.16544C50.7457 0.275366 51.0021 0.43648 51.1986 0.648486L50.4395 1.37141C50.3345 1.23427 50.197 1.13256 50.027 1.06597C49.8569 0.999753 49.6822 0.966459 49.5035 0.966459C49.3069 0.966459 49.1271 1.00049 48.9635 1.0692C48.7999 1.13762 48.6592 1.23215 48.5413 1.35278C48.4235 1.47341 48.3319 1.61561 48.2663 1.77958C48.2008 1.94392 48.1682 2.12366 48.1682 2.31887C48.1682 2.51834 48.2008 2.7013 48.2663 2.8674C48.3319 3.03358 48.4225 3.17606 48.5381 3.29457C48.6534 3.41271 48.792 3.50548 48.9535 3.5717C49.1149 3.63828 49.2918 3.67158 49.4837 3.67158C49.7061 3.67158 49.9002 3.63007 50.0663 3.54698C50.2321 3.4639 50.3649 3.3558 50.4655 3.22256L51.2443 3.92076C51.0391 4.14531 50.7861 4.32292 50.485 4.45368Z" fill="black"/>
<path d="M55.5929 4.53177V2.68663H53.7864V4.53177H52.6671V0.1185H53.7864V1.78888H55.5929V0.1185H56.7119V4.53177H55.5929Z" fill="black"/>
<path d="M62.4267 3.59362C62.3329 3.81171 62.1986 3.99893 62.0242 4.15469C61.8499 4.31045 61.6393 4.43182 61.3926 4.51923C61.1463 4.60657 60.8723 4.65028 60.5712 4.65028C60.2658 4.65028 59.9912 4.60657 59.7466 4.51923C59.5024 4.43189 59.2951 4.31045 59.1249 4.15469C58.9548 3.99893 58.8238 3.81164 58.7322 3.59362C58.6405 3.3756 58.5947 3.13352 58.5947 2.86747V0.1185H59.7076V2.78006C59.7076 2.90076 59.7237 3.01494 59.7566 3.12311C59.7892 3.23128 59.8393 3.32793 59.907 3.41278C59.9747 3.49799 60.0643 3.56568 60.1756 3.61547C60.2866 3.66526 60.4209 3.69034 60.578 3.69034C60.7349 3.69034 60.8692 3.66526 60.9805 3.61547C61.0918 3.56568 61.1821 3.49799 61.2519 3.41278C61.3217 3.32793 61.3719 3.2312 61.4027 3.12311C61.4331 3.01494 61.4485 2.90076 61.4485 2.78006V0.1185H62.5675V2.8674C62.5675 3.13345 62.5205 3.3756 62.4267 3.59362Z" fill="black"/>
<path d="M66.9238 4.53177L65.9176 2.78006H65.5362V4.53177H64.4431V0.1185H66.2102C66.4329 0.1185 66.6499 0.140353 66.8615 0.18406C67.0731 0.227766 67.2629 0.30154 67.4309 0.405379C67.5988 0.509219 67.7331 0.646353 67.8337 0.816779C67.9339 0.987206 67.9841 1.19921 67.9841 1.45236C67.9841 1.7517 67.8989 2.00309 67.7288 2.20681C67.5588 2.41053 67.3231 2.55595 67.022 2.64292L68.233 4.53177H66.9238ZM66.8779 1.47135C66.8779 1.36751 66.8547 1.2834 66.8089 1.21894C66.7627 1.15448 66.7036 1.10469 66.6312 1.06927C66.5589 1.03385 66.4776 1.00979 66.3878 0.997619C66.2979 0.985079 66.2113 0.978626 66.1282 0.978626H65.5299V2.00734H66.0623C66.1544 2.00734 66.2489 2.00016 66.3452 1.98549C66.4418 1.97082 66.5292 1.94501 66.6084 1.90746C66.6871 1.87021 66.752 1.81616 66.8024 1.74562C66.8526 1.6747 66.8779 1.58341 66.8779 1.47135Z" fill="black"/>
<path d="M72.9726 4.45368C72.6718 4.58472 72.3249 4.65028 71.9321 4.65028C71.5744 4.65028 71.2439 4.59404 70.9406 4.48198C70.6373 4.36956 70.3744 4.21058 70.1517 4.00502C69.9294 3.79947 69.7546 3.55314 69.6282 3.26634C69.5018 2.97953 69.4384 2.66405 69.4384 2.31887C69.4384 1.96585 69.5029 1.64567 69.6314 1.35887C69.7603 1.07243 69.938 0.828226 70.1649 0.626633C70.3916 0.42504 70.658 0.27038 70.9635 0.162213C71.2689 0.0540466 71.5983 0 71.9518 0C72.2791 0 72.6006 0.0551466 72.9171 0.16544C73.2333 0.275366 73.4897 0.43648 73.6862 0.648486L72.9271 1.37141C72.8222 1.23427 72.6847 1.13256 72.5146 1.06597C72.3445 0.999753 72.1698 0.966459 71.9911 0.966459C71.7945 0.966459 71.6147 1.00049 71.4511 1.0692C71.2875 1.13762 71.1468 1.23215 71.0289 1.35278C70.9111 1.47341 70.8195 1.61561 70.7539 1.77958C70.6884 1.94392 70.6558 2.12366 70.6558 2.31887C70.6558 2.51834 70.6884 2.7013 70.7539 2.8674C70.8195 3.03358 70.9101 3.17606 71.0257 3.29457C71.141 3.41271 71.2796 3.50548 71.4411 3.5717C71.6026 3.63828 71.7794 3.67158 71.9713 3.67158C72.1937 3.67158 72.3878 3.63007 72.5539 3.54698C72.7197 3.4639 72.8525 3.3558 72.9531 3.22256L73.7319 3.92076C73.5267 4.14531 73.2737 4.32292 72.9726 4.45368Z" fill="black"/>
<path d="M78.0809 4.53177V2.68663H76.2744V4.53177H75.1551V0.1185H76.2744V1.78888H78.0809V0.1185H79.1999V4.53177H78.0809Z" fill="black"/>
<path d="M2.42843 1.02871V4.53177H1.30907V1.02871H0V0.1185H3.73721V1.02871H2.42843Z" fill="black"/>
<path d="M8.10316 4.53177V2.68663H6.29667V4.53177H5.17731V0.1185H6.29667V1.78888H8.10316V0.1185H9.22215V4.53177H8.10316Z" fill="black"/>
<path d="M11.1392 4.53177V0.1185H14.2548V1.01617H12.2191V1.85158H14.1434V2.70526H12.2191V3.62156H14.3726V4.53177H11.1392Z" fill="black"/>
<path d="M18.5435 4.53177V0.1185H19.6693V3.60293H21.4625V4.53177H18.5435Z" fill="black"/>
<path d="M22.9095 4.53177V0.1185H24.0353V4.53177H22.9095Z" fill="black"/>
<path d="M27.8975 1.02871V4.53177H26.7781V1.02871H25.469V0.1185H29.2062V1.02871H27.8975Z" fill="black"/>
<path d="M32.841 1.02871V4.53177H31.7216V1.02871H30.4125V0.1185H34.1497V1.02871H32.841Z" fill="black"/>
<path d="M35.5899 4.53177V0.1185H36.7157V3.60293H38.5089V4.53177H35.5899Z" fill="black"/>
<path d="M39.9552 4.53177V0.1185H43.0708V1.01617H41.0351V1.85158H42.9594V2.70526H41.0351V3.62156H43.1886V4.53177H39.9552Z" fill="black"/>
<path d="M83.4682 12.511L84.3347 12.1512V10.3576L83.4682 10.0174V8.79991L87.8815 10.7439V11.8303L83.4682 13.7545V12.511ZM86.7034 11.2674L85.1887 10.6784V11.8436L86.7034 11.2674Z" fill="black"/>
<path d="M83.4682 17.0302L85.2199 16.024V15.6427H83.4682V14.5495H87.8815V16.3166C87.8815 16.5394 87.8596 16.7563 87.8159 16.968C87.7722 17.1796 87.6984 17.3694 87.5946 17.5373C87.4908 17.7053 87.3536 17.8396 87.1832 17.9402C87.0128 18.0404 86.8008 18.0906 86.5476 18.0906C86.2483 18.0906 85.9969 18.0054 85.7932 17.8353C85.5894 17.6652 85.444 17.4296 85.3571 17.1284L83.4682 18.3395V17.0302ZM86.5286 16.9844C86.6325 16.9844 86.7166 16.9612 86.781 16.9153C86.8455 16.8691 86.8953 16.81 86.9307 16.7377C86.9661 16.6654 86.9902 16.5841 87.0024 16.4943C87.0149 16.4043 87.0213 16.3177 87.0213 16.2347V15.6363H85.9926V16.1688C85.9926 16.2608 85.9998 16.3554 86.0145 16.4516C86.0291 16.5483 86.055 16.6357 86.0925 16.7148C86.1298 16.7936 86.1838 16.8584 86.2544 16.9089C86.3253 16.959 86.4166 16.9844 86.5286 16.9844Z" fill="black"/>
<path d="M85.6936 24.0155C85.3445 24.0155 85.0255 23.9522 84.7368 23.8257C84.4479 23.699 84.2005 23.5235 83.9949 23.2987C83.7894 23.0742 83.6304 22.8067 83.518 22.4969C83.4059 22.1872 83.3497 21.8513 83.3497 21.489C83.3497 21.1269 83.4059 20.7922 83.518 20.4846C83.6304 20.177 83.7894 19.9106 83.9949 19.6861C84.2005 19.4612 84.4479 19.2854 84.7368 19.159C85.0255 19.0325 85.3445 18.9692 85.6936 18.9692C86.0467 18.9692 86.3657 19.0325 86.6504 19.159C86.9351 19.2854 87.1772 19.4612 87.3765 19.6861C87.576 19.9106 87.7296 20.177 87.8377 20.4846C87.9459 20.7922 88 21.127 88 21.489C88 21.8513 87.9459 22.1872 87.8377 22.4969C87.7296 22.8067 87.576 23.0742 87.3765 23.2987C87.1771 23.5235 86.935 23.699 86.6504 23.8257C86.3657 23.9522 86.0467 24.0155 85.6936 24.0155ZM85.6936 22.8178C85.8845 22.8178 86.0631 22.7849 86.2297 22.7197C86.3959 22.6541 86.538 22.5635 86.6565 22.4479C86.775 22.3322 86.8685 22.1926 86.9372 22.0289C87.0056 21.8653 87.04 21.6855 87.04 21.489C87.04 21.2927 87.0056 21.1137 86.9372 20.9523C86.8685 20.7911 86.775 20.6514 86.6565 20.5337C86.538 20.4159 86.3958 20.3253 86.2297 20.2619C86.0631 20.1985 85.8845 20.167 85.6936 20.167C85.4942 20.167 85.3102 20.1996 85.1419 20.2651C84.9736 20.3307 84.8292 20.4212 84.7086 20.5369C84.588 20.6525 84.4937 20.7911 84.425 20.9523C84.3566 21.1137 84.3223 21.2928 84.3223 21.489C84.3223 21.6856 84.3567 21.8642 84.425 22.0257C84.4937 22.1872 84.588 22.3268 84.7086 22.4447C84.8292 22.5625 84.9736 22.6541 85.1419 22.7197C85.3102 22.7849 85.4942 22.8178 85.6936 22.8178Z" fill="black"/>
<path d="M84.4063 28.9008C84.1882 28.807 84.001 28.6727 83.8453 28.4983C83.6895 28.3239 83.5681 28.1134 83.4807 27.8667C83.3934 27.6204 83.3497 27.3464 83.3497 27.0453C83.3497 26.7399 83.3934 26.4652 83.4807 26.2207C83.5681 25.9765 83.6895 25.7692 83.8453 25.599C84.001 25.4289 84.1883 25.2979 84.4063 25.2063C84.6244 25.1146 84.8664 25.0688 85.1325 25.0688H87.8814V26.1817H85.2198C85.0991 26.1817 84.9849 26.1978 84.8768 26.2307C84.7686 26.2633 84.6719 26.3134 84.5871 26.3811C84.5019 26.4488 84.4342 26.5384 84.3844 26.6497C84.3346 26.7607 84.3095 26.895 84.3095 27.0521C84.3095 27.209 84.3346 27.3433 84.3844 27.4546C84.4342 27.566 84.5019 27.6562 84.5871 27.726C84.6719 27.7958 84.7687 27.846 84.8768 27.8768C84.9849 27.9072 85.0991 27.9226 85.2198 27.9226H87.8814V29.0416H85.1325C84.8664 29.0416 84.6244 28.9946 84.4063 28.9008Z" fill="black"/>
<path d="M83.4682 33.2854L86.3542 31.4199V31.4001L83.4682 31.4266V30.3399H87.8815V31.6164L85.0015 33.4752V33.4949L87.8815 33.4684V34.5551H83.4682V33.2854Z" fill="black"/>
<path d="M85.6872 40.2194C85.3008 40.2194 84.9675 40.1442 84.6867 39.9938C84.4064 39.8431 84.1757 39.6447 83.9949 39.398C83.814 39.1517 83.6812 38.8735 83.596 38.5637C83.5108 38.2539 83.4682 37.9396 83.4682 37.6212V35.8932H87.8815V37.569C87.8815 37.8963 87.845 38.2189 87.7723 38.5376C87.6996 38.8559 87.5793 39.1395 87.411 39.3884C87.2427 39.6373 87.0171 39.8378 86.7345 39.9907C86.4517 40.1432 86.1029 40.2194 85.6872 40.2194ZM85.6872 39.0546C85.9367 39.0546 86.1434 39.012 86.3074 38.9268C86.4717 38.8419 86.6024 38.7284 86.7001 38.5866C86.7979 38.4447 86.8673 38.2833 86.9089 38.1021C86.9504 37.9209 86.9713 37.7347 86.9713 37.5425V36.9864H84.3907V37.5163C84.3907 37.7172 84.4125 37.9102 84.4562 38.0957C84.4999 38.2811 84.5715 38.4448 84.6715 38.5866C84.771 38.7284 84.9042 38.8418 85.0703 38.9268C85.2365 39.012 85.4419 39.0546 85.6872 39.0546Z" fill="black"/>
<path d="M83.5463 62.1492C83.4152 61.8484 83.3497 61.5015 83.3497 61.1087C83.3497 60.751 83.4059 60.4205 83.518 60.1171C83.6304 59.8138 83.7894 59.551 83.9949 59.3283C84.2005 59.106 84.4468 58.9312 84.7336 58.8048C85.0204 58.6783 85.3359 58.615 85.6811 58.615C86.0341 58.615 86.3543 58.6794 86.6411 58.808C86.9275 58.9369 87.1717 59.1145 87.3733 59.3415C87.5749 59.5682 87.7296 59.8346 87.8377 60.14C87.9459 60.4455 88 60.7749 88 61.1283C88 61.4556 87.9448 61.7772 87.8345 62.0937C87.7246 62.4099 87.5635 62.6663 87.3515 62.8628L86.6285 62.1037C86.7657 61.9987 86.8674 61.8612 86.934 61.6912C87.0002 61.5211 87.0335 61.3464 87.0335 61.1676C87.0335 60.971 86.9995 60.7913 86.9308 60.6277C86.8623 60.4641 86.7678 60.3234 86.6472 60.2055C86.5265 60.0877 86.3844 59.9961 86.2204 59.9305C86.056 59.865 85.8763 59.8324 85.6811 59.8324C85.4816 59.8324 85.2986 59.865 85.1325 59.9305C84.9664 59.9961 84.8239 60.0866 84.7054 60.2023C84.5872 60.3176 84.4945 60.4562 84.4283 60.6176C84.3617 60.7791 84.3284 60.956 84.3284 61.1479C84.3284 61.3703 84.3699 61.5644 84.453 61.7305C84.5361 61.8963 84.6441 62.0291 84.7774 62.1297L84.0792 62.9085C83.8546 62.7033 83.677 62.4503 83.5463 62.1492Z" fill="black"/>
<path d="M85.6936 68.4592C85.3445 68.4592 85.0255 68.3958 84.7368 68.2694C84.4479 68.1426 84.2005 67.9672 83.9949 67.7423C83.7894 67.5177 83.6304 67.2503 83.518 66.9405C83.4059 66.6307 83.3497 66.2949 83.3497 65.9325C83.3497 65.5705 83.4059 65.2357 83.518 64.9282C83.6304 64.6206 83.7894 64.3542 83.9949 64.1296C84.2005 63.9048 84.4479 63.7289 84.7368 63.6025C85.0255 63.4761 85.3445 63.4127 85.6936 63.4127C86.0467 63.4127 86.3657 63.4761 86.6504 63.6025C86.9351 63.7289 87.1772 63.9047 87.3765 64.1296C87.576 64.3542 87.7296 64.6205 87.8377 64.9282C87.9459 65.2357 88 65.5706 88 65.9325C88 66.2949 87.9459 66.6307 87.8377 66.9405C87.7296 67.2503 87.576 67.5177 87.3765 67.7423C87.1771 67.9671 86.935 68.1426 86.6504 68.2694C86.3657 68.3958 86.0467 68.4592 85.6936 68.4592ZM85.6936 67.2614C85.8845 67.2614 86.0631 67.2285 86.2297 67.1633C86.3959 67.0977 86.538 67.0072 86.6565 66.8915C86.775 66.7759 86.8685 66.6362 86.9372 66.4726C87.0056 66.309 87.04 66.1291 87.04 65.9326C87.04 65.7364 87.0056 65.5574 86.9372 65.3959C86.8685 65.2348 86.775 65.0951 86.6565 64.9773C86.538 64.8595 86.3958 64.7689 86.2297 64.7055C86.0631 64.6422 85.8845 64.6106 85.6936 64.6106C85.4942 64.6106 85.3102 64.6432 85.1419 64.7088C84.9736 64.7743 84.8292 64.8649 84.7086 64.9805C84.588 65.0962 84.4937 65.2348 84.425 65.3959C84.3566 65.5574 84.3223 65.7364 84.3223 65.9326C84.3223 66.1292 84.3567 66.3079 84.425 66.4693C84.4937 66.6308 84.588 66.7704 84.7086 66.8883C84.8292 67.0061 84.9736 67.0977 85.1419 67.1633C85.3102 67.2285 85.4942 67.2614 85.6936 67.2614Z" fill="black"/>
<path d="M83.4682 72.0431L85.2199 71.0369V70.6556H83.4682V69.5624H87.8815V71.3295C87.8815 71.5522 87.8596 71.7692 87.8159 71.9808C87.7722 72.1925 87.6984 72.3823 87.5946 72.5502C87.4908 72.7181 87.3536 72.8524 87.1832 72.953C87.0128 73.0533 86.8008 73.1034 86.5476 73.1034C86.2483 73.1034 85.9969 73.0182 85.7932 72.8482C85.5894 72.6781 85.444 72.4425 85.3571 72.1413L83.4682 73.3523V72.0431ZM86.5286 71.9973C86.6325 71.9973 86.7166 71.974 86.781 71.9282C86.8455 71.882 86.8953 71.8229 86.9307 71.7506C86.9661 71.6783 86.9902 71.597 87.0024 71.5071C87.0149 71.4172 87.0213 71.3306 87.0213 71.2475V70.6492H85.9926V71.1817C85.9926 71.2737 85.9998 71.3682 86.0145 71.4645C86.0291 71.5612 86.055 71.6486 86.0925 71.7277C86.1298 71.8065 86.1838 71.8713 86.2544 71.9217C86.3253 71.9719 86.4166 71.9973 86.5286 71.9973Z" fill="black"/>
<path d="M83.4682 77.2108L86.3542 75.3453V75.3256L83.4682 75.3521V74.2653H87.8815V75.5418L85.0015 77.4006V77.4204L87.8815 77.3939V78.4806H83.4682V77.2108Z" fill="black"/>
<path d="M83.4682 79.819H87.8815V82.9346H86.9838V80.8989H86.1484V82.8232H85.2947V80.8989H84.3784V83.0524H83.4682V79.819Z" fill="black"/>
<path d="M83.4682 86.6908L85.2199 85.6846V85.3032H83.4682V84.2101H87.8815V85.9772C87.8815 86.1999 87.8596 86.4169 87.8159 86.6285C87.7722 86.8401 87.6984 87.0299 87.5946 87.1979C87.4908 87.3658 87.3536 87.5001 87.1832 87.6007C87.0128 87.7009 86.8008 87.7511 86.5476 87.7511C86.2483 87.7511 85.9969 87.6659 85.7932 87.4958C85.5894 87.3257 85.444 87.0901 85.3571 86.789L83.4682 88V86.6908ZM86.5286 86.6449C86.6325 86.6449 86.7166 86.6217 86.781 86.5759C86.8455 86.5297 86.8953 86.4706 86.9307 86.3982C86.9661 86.3259 86.9902 86.2446 87.0024 86.1548C87.0149 86.0649 87.0213 85.9783 87.0213 85.8952V85.2969H85.9926V85.8293C85.9926 85.9214 85.9998 86.0159 86.0145 86.1122C86.0291 86.2088 86.055 86.2962 86.0925 86.3754C86.1298 86.4541 86.1838 86.519 86.2544 86.5694C86.3253 86.6196 86.4166 86.6449 86.5286 86.6449Z" fill="black"/>
<path d="M86.9712 45.1084H83.4681V43.989H86.9712V42.6799H87.8814V46.4171H86.9712V45.1084Z" fill="black"/>
<path d="M83.4681 50.2073H85.3133V48.4008H83.4681V47.2815H87.8814V48.4008H86.211V50.2073H87.8814V51.3263H83.4681V50.2073Z" fill="black"/>
<path d="M83.4681 52.6673H87.8814V55.7829H86.9837V53.7472H86.1483V55.6715H85.2947V53.7472H84.3784V55.9006H83.4681V52.6673Z" fill="black"/>
<path d="M111.605 23.1565V32.2763H108.838V23.1565H105.6V20.7875H114.844V23.1565H111.605Z" fill="black"/>
<path d="M121.415 32.2763V27.8952C121.415 27.668 121.399 27.4514 121.366 27.2458C121.334 27.0407 121.272 26.8593 121.18 26.7022C121.089 26.5455 120.967 26.421 120.816 26.3289C120.665 26.2374 120.471 26.1912 120.234 26.1912C119.769 26.1912 119.413 26.3563 119.165 26.686C118.916 27.0161 118.792 27.4246 118.792 27.9115V32.2763H116.138V20.0087H118.792V25.2175H118.825C119.008 24.8931 119.3 24.6039 119.7 24.3494C120.098 24.0954 120.579 23.9682 121.14 23.9682C121.691 23.9682 122.152 24.0654 122.524 24.26C122.896 24.455 123.199 24.7064 123.43 25.0145C123.662 25.3231 123.83 25.6774 123.933 26.0775C124.035 26.4777 124.086 26.8782 124.086 27.2784V32.2763L121.415 32.2763Z" fill="black"/>
<path d="M133.963 28.3332V28.6576C133.963 28.7659 133.958 28.8689 133.948 28.9662H128.104C128.125 29.1934 128.192 29.3989 128.306 29.5829C128.419 29.7669 128.565 29.9263 128.743 30.0614C128.92 30.1969 129.121 30.3022 129.342 30.3778C129.563 30.4535 129.793 30.4914 130.03 30.4914C130.45 30.4914 130.807 30.413 131.099 30.2559C131.389 30.0991 131.627 29.8967 131.811 29.6475L133.656 30.8158C133.278 31.3678 132.779 31.7922 132.159 32.0897C131.538 32.3873 130.817 32.5361 129.997 32.5361C129.393 32.5361 128.821 32.441 128.281 32.2522C127.742 32.0629 127.269 31.7869 126.865 31.4246C126.46 31.0624 126.142 30.616 125.91 30.0855C125.678 29.556 125.562 28.9499 125.562 28.2685C125.562 27.6086 125.675 27.0108 125.902 26.4751C126.128 25.9398 126.436 25.4851 126.825 25.1123C127.213 24.739 127.671 24.4494 128.2 24.2438C128.729 24.0387 129.302 23.9356 129.916 23.9356C130.51 23.9356 131.055 24.0355 131.552 24.2358C132.048 24.4362 132.474 24.7253 132.83 25.1039C133.186 25.4829 133.465 25.9424 133.664 26.4835C133.863 27.0244 133.963 27.6413 133.963 28.3332ZM131.519 27.3111C131.519 26.889 131.387 26.5267 131.122 26.2238C130.858 25.921 130.461 25.7696 129.932 25.7696C129.674 25.7696 129.436 25.8101 129.22 25.8911C129.005 25.9721 128.816 26.0834 128.653 26.2238C128.492 26.3642 128.363 26.5294 128.265 26.7186C128.168 26.9079 128.114 27.1056 128.104 27.3111H131.519Z" fill="black"/>
<path d="M148.101 32.0735C147.356 32.4142 146.498 32.5845 145.527 32.5845C144.641 32.5845 143.824 32.4388 143.074 32.1465C142.323 31.8547 141.674 31.4409 141.123 30.9052C140.573 30.3694 140.141 29.7286 139.828 28.9825C139.515 28.2359 139.359 27.4136 139.359 26.5156C139.359 25.5965 139.518 24.7632 139.836 24.0166C140.154 23.2701 140.594 22.6349 141.155 22.1101C141.717 21.5854 142.375 21.1827 143.131 20.901C143.886 20.6202 144.701 20.4792 145.575 20.4792C146.385 20.4792 147.18 20.6227 147.963 20.9093C148.745 21.1958 149.38 21.6149 149.865 22.1669L147.988 24.0491C147.728 23.6922 147.389 23.4271 146.967 23.2541C146.546 23.0811 146.114 22.9944 145.672 22.9944C145.187 22.9944 144.741 23.0838 144.337 23.262C143.932 23.4407 143.584 23.6869 143.292 24.0002C143.001 24.3141 142.774 24.6848 142.613 25.1121C142.451 25.5395 142.37 26.0071 142.37 26.5155C142.37 27.0349 142.451 27.5111 142.613 27.9435C142.774 28.3766 142.998 28.7468 143.284 29.0549C143.57 29.3635 143.913 29.6043 144.312 29.7773C144.712 29.9503 145.149 30.037 145.623 30.037C146.174 30.037 146.654 29.9287 147.064 29.7122C147.475 29.4961 147.803 29.2147 148.052 28.8688L149.979 30.6859C149.471 31.27 148.845 31.7328 148.101 32.0735Z" fill="black"/>
<path d="M156.647 32.2763V27.8952C156.647 27.668 156.631 27.4514 156.599 27.2458C156.566 27.0407 156.504 26.8593 156.413 26.7022C156.321 26.5455 156.199 26.421 156.048 26.3289C155.897 26.2374 155.703 26.1912 155.466 26.1912C155.001 26.1912 154.646 26.3563 154.397 26.686C154.149 27.0161 154.025 27.4246 154.025 27.9115V32.2763H151.371V20.0087H154.025V25.2175H154.057C154.241 24.8931 154.532 24.6039 154.932 24.3494C155.331 24.0954 155.811 23.9682 156.372 23.9682C156.923 23.9682 157.384 24.0654 157.756 24.26C158.129 24.455 158.431 24.7064 158.663 25.0145C158.895 25.3231 159.062 25.6774 159.165 26.0775C159.267 26.4777 159.319 26.8782 159.319 27.2784V32.2763L156.647 32.2763Z" fill="black"/>
<path d="M166.959 32.2764V31.1565H166.926C166.83 31.3409 166.702 31.5135 166.546 31.6759C166.39 31.8384 166.206 31.9788 165.996 32.0977C165.785 32.217 165.554 32.3142 165.3 32.3899C165.046 32.4657 164.779 32.5035 164.499 32.5035C163.959 32.5035 163.503 32.4063 163.13 32.2117C162.758 32.0167 162.456 31.7653 162.224 31.4567C161.992 31.1486 161.825 30.7973 161.723 30.402C161.62 30.0072 161.568 29.6043 161.568 29.1933V24.1954H164.24V28.5766C164.24 28.8037 164.256 29.0203 164.288 29.2259C164.321 29.4315 164.382 29.6151 164.474 29.7775C164.566 29.9399 164.688 30.0671 164.839 30.1587C164.99 30.2507 165.189 30.2969 165.438 30.2969C165.901 30.2969 166.255 30.1239 166.498 29.7775C166.741 29.4314 166.862 29.0256 166.862 28.5604V24.1955H169.517V32.2764L166.959 32.2764Z" fill="black"/>
<path d="M177.141 26.3858C177.022 26.3536 176.906 26.332 176.793 26.3211C176.679 26.3105 176.569 26.3048 176.461 26.3048C176.105 26.3048 175.806 26.3699 175.562 26.4989C175.32 26.6288 175.125 26.785 174.98 26.9681C174.834 27.1517 174.729 27.3515 174.664 27.5672C174.599 27.7829 174.566 27.9718 174.566 28.1333V32.2764H171.912V24.205H174.47V25.3733H174.502C174.707 24.9595 174.999 24.6219 175.376 24.3604C175.754 24.0989 176.191 23.9682 176.687 23.9682C176.795 23.9682 176.901 23.9735 177.004 23.9841C177.105 23.9952 177.189 24.0114 177.254 24.033L177.141 26.3858Z" fill="black"/>
<path d="M184.025 26.8079C183.874 26.6129 183.67 26.4562 183.411 26.3374C183.152 26.2186 182.887 26.1587 182.618 26.1587C182.337 26.1587 182.083 26.2155 181.856 26.329C181.629 26.4426 181.435 26.5945 181.274 26.7838C181.111 26.973 180.985 27.1918 180.894 27.4409C180.801 27.6896 180.756 27.9546 180.756 28.2359C180.756 28.5173 180.799 28.7822 180.885 29.031C180.972 29.2801 181.098 29.4989 181.266 29.6881C181.433 29.8774 181.632 30.0267 181.865 30.1345C182.097 30.2428 182.359 30.297 182.65 30.297C182.92 30.297 183.187 30.2454 183.451 30.1424C183.715 30.0399 183.929 29.8911 184.09 29.6965L185.563 31.4978C185.229 31.8222 184.797 32.0766 184.269 32.2602C183.74 32.4442 183.178 32.5362 182.585 32.5362C181.948 32.5362 181.354 32.439 180.801 32.2439C180.25 32.0494 179.77 31.7655 179.364 31.3922C178.956 31.0189 178.636 30.5672 178.402 30.0372C178.169 29.5072 178.052 28.9068 178.052 28.2359C178.052 27.5761 178.169 26.981 178.402 26.451C178.636 25.921 178.956 25.4693 179.364 25.096C179.77 24.7228 180.25 24.4362 180.801 24.2359C181.354 24.0356 181.943 23.9357 182.568 23.9357C182.86 23.9357 183.149 23.963 183.434 24.0167C183.721 24.0709 183.996 24.1439 184.261 24.2359C184.524 24.3279 184.768 24.4414 184.989 24.5766C185.21 24.7122 185.402 24.8605 185.563 25.023L184.025 26.8079Z" fill="black"/>
<path d="M192.334 32.2763V27.8952C192.334 27.668 192.318 27.4514 192.286 27.2458C192.253 27.0407 192.191 26.8593 192.099 26.7022C192.008 26.5455 191.886 26.421 191.735 26.3289C191.584 26.2374 191.39 26.1912 191.153 26.1912C190.688 26.1912 190.332 26.3563 190.084 26.686C189.835 27.0161 189.711 27.4246 189.711 27.9115V32.2763H187.057V20.0087H189.711V25.2175H189.744C189.927 24.8931 190.219 24.6039 190.619 24.3494C191.017 24.0954 191.498 23.9682 192.059 23.9682C192.61 23.9682 193.071 24.0654 193.443 24.26C193.815 24.455 194.118 24.7064 194.35 25.0145C194.581 25.3231 194.749 25.6774 194.852 26.0775C194.954 26.4777 195.006 26.8782 195.006 27.2784V32.2763L192.334 32.2763Z" fill="black"/>
<path d="M209.201 28.2033C209.201 28.8631 209.082 29.4609 208.844 29.9967C208.607 30.532 208.283 30.9862 207.873 31.3595C207.463 31.7328 206.989 32.0224 206.448 32.2275C205.909 32.4331 205.331 32.5361 204.717 32.5361C204.112 32.5361 203.537 32.4332 202.993 32.2275C202.447 32.0225 201.973 31.7328 201.568 31.3595C201.163 30.9862 200.842 30.5319 200.605 29.9967C200.367 29.4609 200.249 28.8632 200.249 28.2033C200.249 27.5434 200.367 26.9488 200.605 26.4183C200.842 25.8883 201.163 25.4393 201.568 25.0713C201.973 24.7038 202.447 24.4225 202.993 24.2275C203.537 24.0329 204.112 23.9357 204.717 23.9357C205.331 23.9357 205.909 24.0329 206.448 24.2275C206.989 24.4225 207.463 24.7038 207.873 25.0713C208.283 25.4393 208.607 25.8883 208.844 26.4183C209.082 26.9488 209.201 27.5435 209.201 28.2033ZM206.643 28.2033C206.643 27.9436 206.6 27.6896 206.513 27.4409C206.427 27.1918 206.303 26.973 206.141 26.7838C205.979 26.5945 205.779 26.4404 205.542 26.3211C205.305 26.2022 205.029 26.1424 204.717 26.1424C204.404 26.1424 204.128 26.2022 203.891 26.3211C203.654 26.4404 203.456 26.5945 203.3 26.7838C203.144 26.973 203.025 27.1918 202.944 27.4409C202.863 27.6896 202.823 27.9436 202.823 28.2033C202.823 28.463 202.863 28.7174 202.944 28.9661C203.025 29.2148 203.146 29.4393 203.308 29.6396C203.47 29.8399 203.67 29.9992 203.907 30.1181C204.145 30.2374 204.42 30.2968 204.733 30.2968C205.046 30.2968 205.321 30.2374 205.559 30.1181C205.796 29.9992 205.995 29.8399 206.158 29.6396C206.319 29.4393 206.441 29.2148 206.521 28.9661C206.602 28.7174 206.643 28.463 206.643 28.2033Z" fill="black"/>
<path d="M216.21 21.972C216.114 21.9399 216.001 21.9131 215.871 21.891C215.741 21.8695 215.611 21.8584 215.482 21.8584C215.234 21.8584 215.034 21.902 214.883 21.9883C214.731 22.0751 214.613 22.1913 214.527 22.3374C214.441 22.4836 214.381 22.6487 214.348 22.8322C214.317 23.0162 214.3 23.2002 214.3 23.3842V24.1955H216.097V26.175H214.3V32.2765H211.645V26.175H210.172V24.1955H211.645V23.4163C211.645 22.9189 211.7 22.4457 211.808 21.9967C211.915 21.5477 212.101 21.1529 212.366 20.8122C212.63 20.471 212.986 20.2007 213.434 20.0005C213.882 19.8006 214.441 19.7003 215.11 19.7003C215.337 19.7003 215.561 19.7144 215.782 19.7412C216.002 19.768 216.205 19.8085 216.389 19.8627L216.21 21.972Z" fill="black"/>
<path d="M224.864 26.1749V29.2699C224.864 29.6503 224.936 29.9351 225.082 30.1252C225.228 30.3154 225.489 30.4105 225.867 30.4105C225.997 30.4105 226.134 30.3994 226.28 30.3779C226.426 30.3563 226.547 30.3237 226.644 30.2806L226.677 32.2276C226.493 32.2928 226.261 32.3496 225.98 32.3979C225.7 32.4468 225.419 32.471 225.139 32.471C224.599 32.471 224.146 32.4032 223.779 32.2676C223.412 32.1325 223.118 31.937 222.897 31.6822C222.675 31.4273 222.516 31.1236 222.419 30.771C222.322 30.4188 222.273 30.0253 222.273 29.5918V26.175H220.979V24.1955H222.257V22.0698H224.864V24.1955H226.758V26.175L224.864 26.1749Z" fill="black"/>
<path d="M233.851 32.2763V27.8952C233.851 27.668 233.836 27.4514 233.803 27.2458C233.771 27.0407 233.708 26.8593 233.617 26.7022C233.526 26.5455 233.403 26.421 233.252 26.3289C233.101 26.2374 232.907 26.1912 232.67 26.1912C232.206 26.1912 231.85 26.3563 231.601 26.686C231.353 27.0161 231.229 27.4246 231.229 27.9115V32.2763H228.575V20.0087H231.229V25.2175H231.261C231.445 24.8931 231.737 24.6039 232.136 24.3494C232.535 24.0954 233.015 23.9682 233.576 23.9682C234.127 23.9682 234.588 24.0654 234.961 24.26C235.333 24.455 235.635 24.7064 235.867 25.0145C236.099 25.3231 236.267 25.6774 236.369 26.0775C236.471 26.4777 236.523 26.8782 236.523 27.2784V32.2763L233.851 32.2763Z" fill="black"/>
<path d="M246.4 28.3332V28.6576C246.4 28.7659 246.395 28.8689 246.384 28.9662H240.54C240.561 29.1934 240.629 29.3989 240.742 29.5829C240.855 29.7669 241.001 29.9263 241.179 30.0614C241.357 30.1969 241.557 30.3022 241.778 30.3778C241.999 30.4535 242.229 30.4914 242.466 30.4914C242.887 30.4914 243.243 30.413 243.535 30.2559C243.826 30.0991 244.064 29.8967 244.247 29.6475L246.092 30.8158C245.715 31.3678 245.215 31.7922 244.595 32.0897C243.974 32.3873 243.254 32.5361 242.434 32.5361C241.829 32.5361 241.258 32.441 240.717 32.2522C240.178 32.0629 239.706 31.7869 239.302 31.4246C238.897 31.0624 238.578 30.616 238.346 30.0855C238.114 29.556 237.998 28.9499 237.998 28.2685C237.998 27.6086 238.112 27.0108 238.338 26.4751C238.565 25.9398 238.872 25.4851 239.261 25.1123C239.649 24.739 240.108 24.4494 240.637 24.2438C241.165 24.0387 241.738 23.9356 242.353 23.9356C242.946 23.9356 243.491 24.0355 243.988 24.2358C244.484 24.4362 244.91 24.7253 245.267 25.1039C245.622 25.4829 245.901 25.9424 246.1 26.4835C246.3 27.0244 246.4 27.6413 246.4 28.3332ZM243.956 27.3111C243.956 26.889 243.823 26.5267 243.559 26.2238C243.294 25.921 242.897 25.7696 242.369 25.7696C242.11 25.7696 241.872 25.8101 241.656 25.8911C241.441 25.9721 241.252 26.0834 241.09 26.2238C240.928 26.3642 240.799 26.5294 240.702 26.7186C240.604 26.9079 240.551 27.1056 240.54 27.3111H243.956Z" fill="black"/>
<path d="M111.605 40.6944V49.8142H108.838V40.6944H105.6V38.3253H114.844V40.6944H111.605Z" fill="black"/>
<path d="M120.169 43.9236C120.05 43.8915 119.934 43.8698 119.821 43.8589C119.707 43.8483 119.597 43.8426 119.489 43.8426C119.133 43.8426 118.834 43.9077 118.59 44.0367C118.348 44.1666 118.153 44.3228 118.008 44.5059C117.862 44.6895 117.757 44.8894 117.692 45.105C117.627 45.3207 117.594 45.5096 117.594 45.6711V49.8142H114.94V41.7428H117.498V42.9111H117.53C117.735 42.4973 118.027 42.1597 118.404 41.8982C118.782 41.6368 119.219 41.5061 119.715 41.5061C119.823 41.5061 119.929 41.5113 120.032 41.5219C120.133 41.533 120.217 41.5492 120.282 41.5708L120.169 43.9236Z" fill="black"/>
<path d="M121.628 42.8364C122.102 42.3821 122.655 42.0413 123.287 41.8143C123.918 41.5871 124.563 41.4736 125.221 41.4736C125.901 41.4736 126.476 41.5577 126.945 41.7249C127.414 41.893 127.795 42.1523 128.086 42.504C128.378 42.8558 128.59 43.299 128.726 43.8347C128.861 44.37 128.928 45.0056 128.928 45.7412V49.8142H126.5V48.9541H126.451C126.246 49.2895 125.935 49.5492 125.521 49.7332C125.105 49.9168 124.654 50.0088 124.168 50.0088C123.845 50.0088 123.51 49.9657 123.165 49.8789C122.819 49.7926 122.504 49.6518 122.218 49.4572C121.932 49.2626 121.697 49.0029 121.514 48.6785C121.331 48.3537 121.238 47.9535 121.238 47.4776C121.238 46.8931 121.397 46.4225 121.716 46.0655C122.034 45.7085 122.444 45.433 122.947 45.2379C123.448 45.0434 124.007 44.9135 124.622 44.8488C125.237 44.7836 125.836 44.7511 126.418 44.7511V44.6216C126.418 44.2215 126.279 43.9266 125.998 43.7369C125.718 43.548 125.372 43.453 124.962 43.453C124.584 43.453 124.22 43.5344 123.869 43.6964C123.518 43.8588 123.219 44.0533 122.97 44.2805L121.628 42.8364ZM126.5 46.2932H126.16C125.869 46.2932 125.574 46.3068 125.278 46.3337C124.981 46.3605 124.716 46.412 124.485 46.4877C124.252 46.5635 124.06 46.6744 123.91 46.8205C123.758 46.9662 123.683 47.1586 123.683 47.3963C123.683 47.5481 123.718 47.6779 123.788 47.7859C123.858 47.8941 123.947 47.9804 124.055 48.0456C124.163 48.1103 124.288 48.1565 124.427 48.1833C124.568 48.2106 124.703 48.2238 124.832 48.2238C125.372 48.2238 125.784 48.0755 126.071 47.7779C126.357 47.4804 126.5 47.0776 126.5 46.5688V46.2932Z" fill="black"/>
<path d="M136.172 49.8142V45.4005C136.172 45.1733 136.153 44.9572 136.115 44.7511C136.077 44.5461 136.016 44.3646 135.929 44.2075C135.842 44.0513 135.721 43.9267 135.565 43.8347C135.408 43.7427 135.211 43.6965 134.974 43.6965C134.737 43.6965 134.529 43.7427 134.35 43.8347C134.173 43.9267 134.025 44.0535 133.905 44.2159C133.786 44.3784 133.698 44.5646 133.638 44.7758C133.579 44.9867 133.549 45.2059 133.549 45.433V49.8142H130.879V41.7333H133.452V42.8527H133.484C133.582 42.6802 133.708 42.5093 133.865 42.3416C134.021 42.174 134.205 42.0308 134.415 41.9116C134.626 41.7927 134.855 41.6955 135.103 41.6198C135.351 41.5441 135.616 41.5062 135.897 41.5062C136.436 41.5062 136.895 41.6034 137.272 41.798C137.65 41.9931 137.955 42.2444 138.187 42.5525C138.419 42.8611 138.586 43.2155 138.689 43.6156C138.792 44.0157 138.843 44.4162 138.843 44.8164V49.8143L136.172 49.8142Z" fill="black"/>
<path d="M145.906 44.1186C145.69 43.9131 145.437 43.74 145.145 43.5992C144.854 43.4588 144.546 43.3884 144.222 43.3884C143.974 43.3884 143.745 43.4368 143.534 43.5345C143.324 43.6317 143.219 43.7995 143.219 44.0372C143.219 44.2647 143.334 44.4268 143.567 44.524C143.799 44.6217 144.174 44.7295 144.692 44.8489C144.994 44.9135 145.299 45.0056 145.606 45.1244C145.914 45.2437 146.192 45.4005 146.44 45.595C146.688 45.79 146.888 46.0281 147.039 46.309C147.19 46.5907 147.266 46.9257 147.266 47.3153C147.266 47.8237 147.164 48.2538 146.958 48.6054C146.753 48.9572 146.486 49.2411 146.157 49.4572C145.828 49.6738 145.458 49.8305 145.048 49.9277C144.638 50.025 144.227 50.0739 143.817 50.0739C143.16 50.0739 142.515 49.9682 141.883 49.7574C141.252 49.5466 140.726 49.2358 140.305 48.8242L141.794 47.2501C142.032 47.5098 142.323 47.7263 142.669 47.8994C143.014 48.0723 143.381 48.1591 143.769 48.1591C143.985 48.1591 144.198 48.108 144.408 48.005C144.619 47.902 144.725 47.7211 144.725 47.4614C144.725 47.2127 144.595 47.0287 144.335 46.9094C144.076 46.7905 143.672 46.666 143.122 46.5361C142.841 46.4714 142.56 46.3851 142.279 46.2769C141.999 46.1686 141.748 46.0224 141.527 45.8384C141.305 45.6549 141.125 45.4277 140.985 45.157C140.844 44.8867 140.774 44.5623 140.774 44.1833C140.774 43.6964 140.877 43.2826 141.082 42.9419C141.287 42.6012 141.551 42.323 141.876 42.1064C142.199 41.8899 142.558 41.7305 142.951 41.6275C143.346 41.5249 143.737 41.4734 144.126 41.4734C144.73 41.4734 145.321 41.568 145.898 41.7573C146.475 41.9466 146.963 42.2305 147.363 42.6091L145.906 44.1186Z" fill="black"/>
<path d="M154.567 39.5098C154.471 39.4777 154.357 39.4509 154.227 39.4288C154.098 39.4073 153.968 39.3963 153.839 39.3963C153.591 39.3963 153.391 39.4399 153.24 39.5262C153.088 39.6129 152.97 39.7291 152.884 39.8753C152.798 40.0214 152.738 40.1865 152.705 40.3701C152.674 40.554 152.657 40.738 152.657 40.922V41.7333H154.454V43.7129H152.657V49.8143H150.002V43.7129H148.529V41.7333H150.002V40.9542C150.002 40.4567 150.056 39.9835 150.165 39.5345C150.272 39.0855 150.458 38.6907 150.723 38.35C150.987 38.0088 151.343 37.7385 151.791 37.5383C152.239 37.3384 152.798 37.2381 153.467 37.2381C153.693 37.2381 153.917 37.2522 154.139 37.279C154.359 37.3059 154.562 37.3464 154.746 37.4005L154.567 39.5098Z" fill="black"/>
<path d="M170.124 49.0513C170.124 49.8411 170.01 50.5282 169.784 51.1123C169.557 51.6965 169.238 52.1807 168.828 52.5645C168.418 52.9488 167.919 53.2354 167.331 53.4247C166.742 53.614 166.092 53.7086 165.38 53.7086C164.668 53.7086 163.937 53.6003 163.187 53.3842C162.436 53.1676 161.786 52.8542 161.236 52.443L162.564 50.5445C162.952 50.8905 163.381 51.1476 163.85 51.3152C164.32 51.4829 164.781 51.5666 165.234 51.5666C166.012 51.5666 166.586 51.361 166.958 50.9499C167.331 50.5388 167.517 49.9929 167.517 49.3111V48.8242H167.469C167.22 49.149 166.885 49.4083 166.465 49.6033C166.044 49.7979 165.564 49.8952 165.024 49.8952C164.409 49.8952 163.864 49.7847 163.389 49.5628C162.914 49.341 162.513 49.0408 162.183 48.6622C161.854 48.2836 161.603 47.8425 161.431 47.3394C161.258 46.8363 161.171 46.3037 161.171 45.7411C161.171 45.179 161.258 44.6433 161.431 44.1348C161.603 43.6265 161.854 43.1775 162.183 42.7879C162.513 42.3982 162.914 42.0875 163.389 41.8546C163.864 41.6222 164.403 41.506 165.008 41.506C165.515 41.506 166.001 41.6085 166.465 41.8141C166.928 42.0197 167.301 42.3388 167.582 42.7715H167.614V41.7331H170.124L170.124 49.0513ZM167.598 45.7249C167.598 45.4546 167.552 45.1949 167.461 44.9462C167.368 44.6975 167.237 44.4783 167.064 44.289C166.891 44.0997 166.686 43.9509 166.449 43.8426C166.211 43.7348 165.941 43.6802 165.639 43.6802C165.337 43.6802 165.07 43.7348 164.838 43.8426C164.606 43.9509 164.409 44.0971 164.247 44.2806C164.086 44.4651 163.961 44.6812 163.875 44.9299C163.788 45.1791 163.746 45.4436 163.746 45.7249C163.746 45.9957 163.788 46.2554 163.875 46.5041C163.961 46.7528 164.086 46.972 164.247 47.1613C164.409 47.3505 164.606 47.502 164.838 47.6155C165.07 47.7291 165.337 47.7859 165.639 47.7859C165.941 47.7859 166.214 47.7291 166.457 47.6155C166.699 47.502 166.905 47.3532 167.072 47.1692C167.239 46.9856 167.369 46.7691 167.461 46.5203C167.552 46.2716 167.598 46.0066 167.598 45.7249Z" fill="black"/>
<path d="M177.512 49.8142V48.6944H177.479C177.383 48.8788 177.255 49.0514 177.099 49.2138C176.943 49.3763 176.759 49.5167 176.549 49.6355C176.338 49.7548 176.106 49.8521 175.853 49.9278C175.599 50.0035 175.332 50.0414 175.052 50.0414C174.512 50.0414 174.056 49.9441 173.683 49.7495C173.311 49.5545 173.009 49.3032 172.777 48.9946C172.545 48.6864 172.377 48.3352 172.276 47.9399C172.173 47.5451 172.121 47.1422 172.121 46.7311V41.7333H174.793V46.1145C174.793 46.3416 174.808 46.5582 174.841 46.7638C174.873 46.9694 174.935 47.153 175.027 47.3153C175.119 47.4778 175.241 47.605 175.392 47.6966C175.543 47.7886 175.742 47.8348 175.991 47.8348C176.454 47.8348 176.808 47.6618 177.051 47.3153C177.294 46.9693 177.415 46.5635 177.415 46.0982V41.7333H180.07V49.8143L177.512 49.8142Z" fill="black"/>
<path d="M187.571 43.9236C187.452 43.8915 187.336 43.8698 187.223 43.8589C187.11 43.8483 186.999 43.8426 186.891 43.8426C186.535 43.8426 186.236 43.9077 185.992 44.0367C185.75 44.1666 185.555 44.3228 185.41 44.5059C185.264 44.6895 185.159 44.8894 185.094 45.105C185.029 45.3207 184.996 45.5096 184.996 45.6711V49.8142H182.342V41.7428H184.9V42.9111H184.932C185.137 42.4973 185.429 42.1597 185.806 41.8982C186.184 41.6368 186.621 41.5061 187.118 41.5061C187.226 41.5061 187.331 41.5113 187.434 41.5219C187.536 41.533 187.619 41.5492 187.684 41.5708L187.571 43.9236Z" fill="black"/>
<path d="M188.807 42.8364C189.281 42.3821 189.834 42.0413 190.466 41.8143C191.097 41.5871 191.742 41.4736 192.4 41.4736C193.08 41.4736 193.655 41.5577 194.124 41.7249C194.593 41.893 194.974 42.1523 195.265 42.504C195.557 42.8558 195.769 43.299 195.905 43.8347C196.04 44.37 196.107 45.0056 196.107 45.7412V49.8142H193.679V48.9541H193.63C193.425 49.2895 193.114 49.5492 192.7 49.7332C192.284 49.9168 191.833 50.0088 191.347 50.0088C191.024 50.0088 190.69 49.9657 190.344 49.8789C189.998 49.7926 189.683 49.6518 189.397 49.4572C189.111 49.2626 188.876 49.0029 188.693 48.6785C188.51 48.3537 188.417 47.9535 188.417 47.4776C188.417 46.8931 188.576 46.4225 188.895 46.0655C189.213 45.7085 189.623 45.433 190.126 45.2379C190.627 45.0434 191.186 44.9135 191.801 44.8488C192.416 44.7836 193.015 44.7511 193.597 44.7511V44.6216C193.597 44.2215 193.458 43.9266 193.177 43.7369C192.897 43.548 192.551 43.453 192.141 43.453C191.763 43.453 191.399 43.5344 191.048 43.6964C190.697 43.8588 190.398 44.0533 190.149 44.2805L188.807 42.8364ZM193.679 46.2932H193.339C193.048 46.2932 192.753 46.3068 192.457 46.3337C192.16 46.3605 191.895 46.412 191.664 46.4877C191.431 46.5635 191.239 46.6744 191.089 46.8205C190.937 46.9662 190.862 47.1586 190.862 47.3963C190.862 47.5481 190.897 47.6779 190.967 47.7859C191.037 47.8941 191.126 47.9804 191.234 48.0456C191.342 48.1103 191.467 48.1565 191.606 48.1833C191.747 48.2106 191.882 48.2238 192.011 48.2238C192.551 48.2238 192.963 48.0755 193.25 47.7779C193.536 47.4804 193.679 47.0776 193.679 46.5688V46.2932Z" fill="black"/>
<path d="M201.124 43.7128V46.8078C201.124 47.1881 201.196 47.4729 201.342 47.6631C201.488 47.8532 201.749 47.9483 202.127 47.9483C202.257 47.9483 202.394 47.9373 202.54 47.9157C202.686 47.8942 202.807 47.8615 202.904 47.8185L202.937 49.7654C202.753 49.8306 202.521 49.8874 202.24 49.9358C201.96 49.9847 201.679 50.0088 201.399 50.0088C200.859 50.0088 200.406 49.9411 200.04 49.8054C199.672 49.6703 199.378 49.4749 199.157 49.22C198.936 48.9651 198.777 48.6614 198.679 48.3088C198.583 47.9567 198.533 47.5632 198.533 47.1296V43.7128H197.239V41.7333H198.517V39.6076H201.124V41.7333H203.018V43.7128L201.124 43.7128Z" fill="black"/>
<path d="M207.797 39.1529C207.797 39.3584 207.755 39.5508 207.674 39.729C207.594 39.9077 207.486 40.0618 207.351 40.1917C207.216 40.3216 207.054 40.4241 206.866 40.4999C206.677 40.5756 206.479 40.6134 206.274 40.6134C205.842 40.6134 205.481 40.4704 205.19 40.1834C204.898 39.8969 204.752 39.5535 204.752 39.1529C204.752 38.9584 204.79 38.7717 204.866 38.5935C204.941 38.4148 205.049 38.2607 205.19 38.1308C205.33 38.0009 205.492 37.8953 205.676 37.8143C205.859 37.7334 206.058 37.6928 206.274 37.6928C206.479 37.6928 206.677 37.7307 206.866 37.8064C207.054 37.8821 207.216 37.9846 207.351 38.1145C207.486 38.2444 207.594 38.3984 207.674 38.5772C207.755 38.7555 207.797 38.9478 207.797 39.1529ZM204.947 49.8142V41.7333H207.602V49.8142H204.947Z" fill="black"/>
<path d="M218.353 45.7411C218.353 46.401 218.234 46.9987 217.997 47.5345C217.76 48.0698 217.435 48.524 217.025 48.8973C216.615 49.2706 216.141 49.5602 215.601 49.7654C215.062 49.9709 214.484 50.074 213.869 50.074C213.265 50.074 212.689 49.971 212.145 49.7654C211.599 49.5603 211.125 49.2706 210.72 48.8973C210.315 48.524 209.994 48.0697 209.757 47.5345C209.52 46.9987 209.401 46.401 209.401 45.7411C209.401 45.0812 209.52 44.4866 209.757 43.9562C209.994 43.4262 210.315 42.9772 210.72 42.6092C211.125 42.2416 211.599 41.9603 212.145 41.7653C212.689 41.5708 213.265 41.4735 213.869 41.4735C214.484 41.4735 215.062 41.5708 215.601 41.7653C216.141 41.9604 216.615 42.2416 217.025 42.6092C217.435 42.9772 217.76 43.4262 217.997 43.9562C218.234 44.4866 218.353 45.0813 218.353 45.7411ZM215.795 45.7411C215.795 45.4814 215.752 45.2275 215.666 44.9788C215.58 44.7296 215.455 44.5109 215.293 44.3216C215.132 44.1323 214.931 43.9782 214.694 43.8589C214.457 43.74 214.181 43.6802 213.869 43.6802C213.556 43.6802 213.28 43.74 213.043 43.8589C212.806 43.9782 212.608 44.1323 212.452 44.3216C212.296 44.5109 212.177 44.7296 212.096 44.9788C212.016 45.2275 211.975 45.4814 211.975 45.7411C211.975 46.0009 212.016 46.2553 212.096 46.504C212.177 46.7526 212.298 46.9771 212.46 47.1774C212.623 47.3778 212.822 47.5371 213.059 47.6559C213.297 47.7752 213.572 47.8346 213.885 47.8346C214.198 47.8346 214.473 47.7752 214.711 47.6559C214.948 47.5371 215.148 47.3777 215.31 47.1774C215.472 46.9771 215.593 46.7526 215.674 46.504C215.754 46.2553 215.795 46.0009 215.795 45.7411Z" fill="black"/>
<path d="M225.305 49.8142V45.4005C225.305 45.1733 225.286 44.9572 225.248 44.7511C225.21 44.5461 225.149 44.3646 225.062 44.2075C224.976 44.0513 224.854 43.9267 224.698 43.8347C224.541 43.7427 224.344 43.6965 224.107 43.6965C223.87 43.6965 223.662 43.7427 223.483 43.8347C223.306 43.9267 223.158 44.0535 223.038 44.2159C222.92 44.3784 222.831 44.5646 222.771 44.7758C222.712 44.9867 222.682 45.2059 222.682 45.433V49.8142H220.012V41.7333H222.585V42.8527H222.617C222.715 42.6802 222.841 42.5093 222.998 42.3416C223.154 42.174 223.338 42.0308 223.548 41.9116C223.759 41.7927 223.988 41.6955 224.236 41.6198C224.485 41.5441 224.749 41.5062 225.03 41.5062C225.569 41.5062 226.028 41.6034 226.405 41.798C226.783 41.9931 227.088 42.2444 227.321 42.5525C227.552 42.8611 227.719 43.2155 227.822 43.6156C227.925 44.0157 227.976 44.4162 227.976 44.8164V49.8143L225.305 49.8142Z" fill="black"/>
<path d="M159.499 39.1529C159.499 39.3584 159.459 39.5508 159.378 39.729C159.297 39.9077 159.186 40.0618 159.046 40.1917C158.906 40.3216 158.744 40.4241 158.561 40.4999C158.377 40.5756 158.183 40.6134 157.977 40.6134C157.546 40.6134 157.184 40.4704 156.893 40.1834C156.602 39.8969 156.456 39.5535 156.456 39.1529C156.456 38.9584 156.494 38.7717 156.57 38.5935C156.645 38.4148 156.753 38.2607 156.893 38.1308C157.033 38.0009 157.195 37.8953 157.378 37.8143C157.562 37.7334 157.761 37.6928 157.977 37.6928C158.183 37.6928 158.377 37.7307 158.561 37.8064C158.744 37.8821 158.906 37.9846 159.046 38.1145C159.186 38.2444 159.297 38.3984 159.378 38.5772C159.459 38.7555 159.499 38.9478 159.499 39.1529Z" fill="black"/>
<path d="M159.305 41.7332H156.634V49.8142H159.305V41.7332Z" fill="black"/>
<path d="M108.984 57.8935H109.729L112.992 65.6657H112.182L111.338 63.602H107.232L106.356 65.6657H105.6L108.984 57.8935ZM109.323 58.6837L107.516 62.9427H111.075L109.323 58.6837Z" fill="black"/>
<path d="M113.923 62.0208C113.923 61.9258 113.919 61.811 113.912 61.6755C113.905 61.5399 113.899 61.4029 113.895 61.2642C113.892 61.1249 113.886 60.9947 113.879 60.8738C113.872 60.7528 113.868 60.6601 113.868 60.5943H114.525C114.533 60.785 114.538 60.9672 114.542 61.1433C114.545 61.3186 114.554 61.432 114.569 61.4833H114.602C114.733 61.2054 114.952 60.9656 115.259 60.7643C115.566 60.563 115.923 60.4618 116.332 60.4618C116.726 60.4618 117.048 60.5246 117.296 60.6487C117.544 60.7735 117.739 60.9366 117.882 61.1372C118.024 61.3394 118.122 61.5706 118.177 61.834C118.232 62.0982 118.26 62.3685 118.26 62.6472V65.6657H117.603V62.6793C117.603 62.4749 117.584 62.275 117.548 62.082C117.511 61.8875 117.447 61.7138 117.356 61.5598C117.265 61.4067 117.137 61.2842 116.973 61.1923C116.809 61.1004 116.595 61.0552 116.332 61.0552C116.091 61.0552 115.863 61.0973 115.648 61.1815C115.433 61.2658 115.246 61.3936 115.089 61.5659C114.932 61.7374 114.808 61.9534 114.717 62.2137C114.625 62.4725 114.58 62.7788 114.58 63.1295V65.6656H113.923L113.923 62.0208Z" fill="black"/>
<path d="M125.422 57.8935H126.166L129.43 65.6656H128.619L127.776 63.602H123.669L122.794 65.6656H122.038L125.422 57.8935ZM125.761 58.6837L123.954 62.9427H127.513L125.761 58.6837Z" fill="black"/>
<path d="M130.361 62.0208C130.361 61.9258 130.357 61.811 130.35 61.6755C130.342 61.5399 130.337 61.4029 130.333 61.2642C130.329 61.1249 130.324 60.9947 130.317 60.8738C130.309 60.7528 130.306 60.6601 130.306 60.5943H130.963C130.97 60.785 130.976 60.9672 130.979 61.1433C130.983 61.3186 130.992 61.432 131.007 61.4833H131.039C131.171 61.2054 131.39 60.9656 131.697 60.7643C132.004 60.563 132.361 60.4618 132.77 60.4618C133.164 60.4618 133.485 60.5246 133.734 60.6487C133.982 60.7735 134.177 60.9366 134.32 61.1372C134.462 61.3394 134.56 61.5706 134.615 61.834C134.67 62.0982 134.697 62.3685 134.697 62.6472V65.6657H134.04V62.6793C134.04 62.4749 134.022 62.275 133.985 62.082C133.949 61.8875 133.885 61.7138 133.794 61.5598C133.702 61.4067 133.575 61.2842 133.411 61.1923C133.246 61.1004 133.033 61.0552 132.77 61.0552C132.529 61.0552 132.301 61.0973 132.086 61.1815C131.87 61.2658 131.684 61.3936 131.527 61.5659C131.37 61.7374 131.246 61.9534 131.154 62.2137C131.063 62.4725 131.018 62.7788 131.018 63.1295V65.6656H130.361L130.361 62.0208Z" fill="black"/>
<path d="M141.531 65.3364C141.531 65.9658 141.439 66.4743 141.256 66.8617C141.074 67.2499 140.846 67.5502 140.572 67.7622C140.298 67.9751 140.004 68.1175 139.69 68.191C139.376 68.263 139.092 68.2997 138.836 68.2997C138.58 68.2997 138.331 68.2768 138.086 68.2293C137.842 68.1811 137.609 68.1114 137.391 68.0203C137.172 67.9291 136.973 67.8174 136.794 67.6856C136.615 67.5539 136.46 67.4039 136.328 67.2354L136.843 66.753C137.077 67.0823 137.369 67.3227 137.719 67.4774C138.07 67.6305 138.442 67.7071 138.836 67.7071C139.172 67.7071 139.455 67.6634 139.685 67.5754C139.915 67.4881 140.105 67.3725 140.255 67.23C140.404 67.0868 140.521 66.9299 140.605 66.7576C140.689 66.5861 140.751 66.4138 140.791 66.2415C140.832 66.07 140.855 65.9076 140.862 65.7529C140.87 65.5998 140.874 65.4757 140.874 65.3808V64.6779H140.851C140.661 64.9849 140.404 65.2261 140.079 65.4023C139.755 65.5784 139.373 65.6657 138.935 65.6657C138.563 65.6657 138.212 65.5982 137.884 65.4628C137.555 65.3273 137.269 65.1404 137.024 64.903C136.779 64.6648 136.586 64.3884 136.444 64.0745C136.301 63.7589 136.23 63.4228 136.23 63.0637C136.23 62.7053 136.301 62.3684 136.444 62.0545C136.586 61.739 136.779 61.4648 137.024 61.2306C137.269 60.9963 137.555 60.8102 137.884 60.6708C138.212 60.5322 138.563 60.4617 138.935 60.4617C139.373 60.4617 139.755 60.5505 140.079 60.7259C140.404 60.9013 140.661 61.1432 140.851 61.4503H140.874V60.5942H141.531V65.3364ZM140.895 63.0637C140.895 62.7865 140.842 62.5246 140.736 62.2796C140.631 62.0337 140.488 61.8217 140.309 61.6425C140.13 61.4632 139.919 61.3208 139.674 61.2144C139.43 61.108 139.169 61.0551 138.891 61.0551C138.613 61.0551 138.353 61.108 138.108 61.2144C137.863 61.3208 137.651 61.4632 137.473 61.6425C137.294 61.8217 137.152 62.0337 137.046 62.2796C136.94 62.5246 136.887 62.7865 136.887 63.0637C136.887 63.3424 136.94 63.6043 137.046 63.8493C137.152 64.0943 137.294 64.3065 137.473 64.4856C137.651 64.6647 137.863 64.8079 138.108 64.9136C138.353 65.0193 138.613 65.0729 138.891 65.0729C139.169 65.0729 139.43 65.0194 139.674 64.9136C139.919 64.8079 140.13 64.6648 140.309 64.4856C140.488 64.3064 140.631 64.0943 140.736 63.8493C140.842 63.6043 140.895 63.3424 140.895 63.0637Z" fill="black"/>
<path d="M143.249 57.3667H143.906V65.6657H143.249V57.3667Z" fill="black"/>
<path d="M145.483 63.1296C145.483 62.7421 145.549 62.3853 145.68 62.0591C145.811 61.7344 145.994 61.4526 146.228 61.2145C146.461 60.9763 146.743 60.7918 147.071 60.6601C147.399 60.5283 147.757 60.4617 148.144 60.4617C148.531 60.4617 148.887 60.5283 149.212 60.6601C149.537 60.7918 149.818 60.9763 150.055 61.2145C150.292 61.4526 150.476 61.7344 150.608 62.0591C150.739 62.3853 150.805 62.7422 150.805 63.1296C150.805 63.5178 150.739 63.8746 150.608 64.2C150.476 64.5262 150.292 64.808 150.055 65.0454C149.818 65.2827 149.537 65.4681 149.212 65.5998C148.887 65.7315 148.531 65.7973 148.144 65.7973C147.757 65.7973 147.399 65.7314 147.071 65.5998C146.743 65.4681 146.461 65.2828 146.228 65.0454C145.994 64.8079 145.811 64.5262 145.68 64.2C145.549 63.8746 145.483 63.5178 145.483 63.1296ZM146.14 63.1296C146.14 63.4151 146.186 63.684 146.277 63.9366C146.368 64.1893 146.501 64.4083 146.677 64.5951C146.852 64.782 147.063 64.9305 147.312 65.04C147.56 65.1495 147.837 65.2047 148.144 65.2047C148.451 65.2047 148.728 65.1495 148.976 65.04C149.224 64.9305 149.436 64.782 149.612 64.5951C149.787 64.4083 149.92 64.1893 150.011 63.9366C150.102 63.684 150.148 63.4151 150.148 63.1296C150.148 62.8447 150.102 62.5751 150.011 62.3225C149.92 62.0706 149.787 61.8508 149.612 61.664C149.436 61.4779 149.224 61.3301 148.976 61.2198C148.728 61.1096 148.451 61.0552 148.144 61.0552C147.837 61.0552 147.56 61.1096 147.312 61.2198C147.063 61.3301 146.852 61.4779 146.677 61.664C146.501 61.8508 146.368 62.0706 146.277 62.3225C146.186 62.5751 146.14 62.8447 146.14 63.1296Z" fill="black"/>
<path d="M151.868 62.7682H154.572V63.3608H151.868V62.7682Z" fill="black"/>
<path d="M162.49 64.4466C162.118 64.952 161.687 65.3142 161.198 65.534C160.709 65.753 160.18 65.8632 159.61 65.8632C159.019 65.8632 158.477 65.7622 157.984 65.5616C157.491 65.3601 157.07 65.0784 156.719 64.7162C156.369 64.354 156.095 63.9221 155.898 63.4206C155.701 62.9198 155.602 62.3723 155.602 61.7796C155.602 61.1869 155.701 60.6417 155.898 60.144C156.095 59.6463 156.369 59.2167 156.719 58.8538C157.07 58.4923 157.491 58.2083 157.984 58.0038C158.477 57.7986 159.019 57.6961 159.61 57.6961C160.136 57.6961 160.627 57.7895 161.083 57.9763C161.539 58.1631 161.939 58.4756 162.282 58.9151L161.691 59.4082C161.451 59.0422 161.142 58.7757 160.766 58.6072C160.389 58.4387 160.004 58.3546 159.61 58.3546C159.107 58.3546 158.652 58.4426 158.247 58.6179C157.842 58.7941 157.497 59.0353 157.212 59.3423C156.928 59.6501 156.708 60.0124 156.555 60.4297C156.402 60.8463 156.325 61.2965 156.325 61.7797C156.325 62.2629 156.402 62.7131 156.555 63.1297C156.708 63.547 156.927 63.9092 157.212 64.2171C157.497 64.5241 157.842 64.7653 158.247 64.9414C158.652 65.1167 159.107 65.2048 159.61 65.2048C159.807 65.2048 160.012 65.1811 160.224 65.1329C160.435 65.0854 160.642 65.0127 160.842 64.9139C161.043 64.8151 161.235 64.6902 161.418 64.5402C161.599 64.3909 161.761 64.2094 161.899 63.9973L162.49 64.4466Z" fill="black"/>
<path d="M167.561 63.5362C167.561 63.785 167.562 64.0087 167.566 64.2063C167.569 64.4038 167.575 64.5861 167.582 64.7545C167.59 64.923 167.599 65.0807 167.61 65.2262C167.621 65.3732 167.637 65.5195 167.659 65.6657H167.046C167.002 65.4169 166.98 65.1427 166.98 64.8426H166.958C166.768 65.1718 166.533 65.413 166.252 65.5669C165.971 65.7209 165.615 65.7974 165.184 65.7974C164.965 65.7974 164.75 65.7698 164.538 65.7147C164.326 65.6603 164.136 65.5723 163.968 65.4513C163.8 65.3311 163.664 65.1756 163.558 64.985C163.452 64.7951 163.399 64.5646 163.399 64.2935C163.399 63.906 163.498 63.5983 163.695 63.3716C163.892 63.1448 164.135 62.9749 164.423 62.8608C164.712 62.7475 165.018 62.6748 165.343 62.641C165.668 62.6089 165.954 62.592 166.203 62.592H166.969V62.2842C166.969 61.8454 166.834 61.5307 166.564 61.3408C166.294 61.1502 165.954 61.0553 165.546 61.0553C164.961 61.0553 164.447 61.2459 164.001 61.6257L163.618 61.1754C163.859 60.9419 164.159 60.7642 164.516 60.644C164.874 60.523 165.217 60.4618 165.546 60.4618C166.158 60.4618 166.648 60.6073 167.013 60.896C167.378 61.1846 167.561 61.6517 167.561 62.2957L167.561 63.5362ZM166.246 63.1189C165.969 63.1189 165.701 63.1373 165.441 63.174C165.182 63.2108 164.948 63.2728 164.741 63.3609C164.533 63.4482 164.366 63.5653 164.243 63.7116C164.118 63.8586 164.056 64.0409 164.056 64.2607C164.056 64.4146 164.091 64.5516 164.16 64.6719C164.23 64.7929 164.319 64.8924 164.428 64.969C164.538 65.0456 164.66 65.1037 164.796 65.1443C164.93 65.1849 165.067 65.2048 165.206 65.2048C165.556 65.2048 165.844 65.1535 166.071 65.0509C166.297 64.9491 166.478 64.8151 166.613 64.6504C166.748 64.4857 166.841 64.299 166.892 64.0906C166.944 63.8816 166.969 63.6718 166.969 63.4589V63.1189H166.246Z" fill="black"/>
<path d="M171.787 61.1869H170.341V64.491C170.341 64.7177 170.404 64.8938 170.528 65.0179C170.652 65.1427 170.823 65.2047 171.043 65.2047C171.166 65.2047 171.292 65.1879 171.421 65.1557C171.548 65.122 171.671 65.0807 171.787 65.0286L171.842 65.6213C171.718 65.6657 171.576 65.7055 171.415 65.7422C171.254 65.779 171.112 65.7974 170.988 65.7974C170.754 65.7974 170.554 65.7622 170.386 65.6932C170.218 65.6235 170.083 65.5309 169.98 65.413C169.878 65.2966 169.804 65.1588 169.756 65.001C169.708 64.8448 169.685 64.6741 169.685 64.4911V61.187H168.59V60.5943H169.685V59.1341H170.341V60.5943H171.788L171.787 61.1869Z" fill="black"/>
<path d="M172.97 57.3667H173.627V61.4833H173.649C173.78 61.2054 173.999 60.9656 174.306 60.7643C174.612 60.5629 174.97 60.4618 175.379 60.4618C175.773 60.4618 176.094 60.5246 176.342 60.6487C176.591 60.7735 176.786 60.9366 176.928 61.1372C177.071 61.3394 177.17 61.5706 177.224 61.834C177.279 62.0982 177.306 62.3685 177.306 62.6472V65.6657H176.649V62.6793C176.649 62.4749 176.631 62.275 176.594 62.082C176.558 61.8875 176.494 61.7138 176.403 61.5598C176.312 61.4067 176.183 61.2842 176.019 61.1923C175.855 61.1004 175.642 61.0552 175.379 61.0552C175.138 61.0552 174.91 61.0973 174.695 61.1815C174.479 61.2658 174.293 61.3936 174.136 61.5659C173.979 61.7374 173.855 61.9534 173.764 62.2137C173.673 62.4725 173.627 62.7788 173.627 63.1295V65.6656H172.97L172.97 57.3667Z" fill="black"/>
<path d="M178.774 63.1296C178.774 62.7421 178.84 62.3853 178.971 62.0591C179.102 61.7344 179.285 61.4526 179.519 61.2145C179.753 60.9763 180.034 60.7918 180.362 60.6601C180.691 60.5283 181.048 60.4617 181.435 60.4617C181.822 60.4617 182.178 60.5283 182.503 60.6601C182.828 60.7918 183.109 60.9763 183.346 61.2145C183.583 61.4526 183.767 61.7344 183.899 62.0591C184.03 62.3853 184.096 62.7422 184.096 63.1296C184.096 63.5178 184.03 63.8746 183.899 64.2C183.767 64.5262 183.583 64.808 183.346 65.0454C183.109 65.2827 182.828 65.4681 182.503 65.5998C182.178 65.7315 181.822 65.7973 181.435 65.7973C181.048 65.7973 180.691 65.7314 180.362 65.5998C180.034 65.4681 179.753 65.2828 179.519 65.0454C179.285 64.8079 179.102 64.5262 178.971 64.2C178.84 63.8746 178.774 63.5178 178.774 63.1296ZM179.431 63.1296C179.431 63.4151 179.477 63.684 179.568 63.9366C179.659 64.1893 179.792 64.4083 179.968 64.5951C180.143 64.782 180.354 64.9305 180.603 65.04C180.851 65.1495 181.128 65.2047 181.435 65.2047C181.742 65.2047 182.019 65.1495 182.267 65.04C182.516 64.9305 182.727 64.782 182.903 64.5951C183.078 64.4083 183.211 64.1893 183.302 63.9366C183.393 63.684 183.439 63.4151 183.439 63.1296C183.439 62.8447 183.393 62.5751 183.302 62.3225C183.211 62.0706 183.078 61.8508 182.903 61.664C182.727 61.4779 182.516 61.3301 182.267 61.2198C182.019 61.1096 181.742 61.0552 181.435 61.0552C181.128 61.0552 180.851 61.1096 180.603 61.2198C180.354 61.3301 180.143 61.4779 179.968 61.664C179.792 61.8508 179.659 62.0706 179.568 62.3225C179.477 62.5751 179.431 62.8447 179.431 63.1296Z" fill="black"/>
<path d="M185.673 57.3667H186.33V65.6657H185.673V57.3667Z" fill="black"/>
<path d="M188.147 58.5857C188.147 58.4464 188.194 58.3292 188.29 58.2335C188.384 58.1385 188.501 58.0911 188.64 58.0911C188.779 58.0911 188.896 58.1386 188.99 58.2335C189.085 58.3292 189.132 58.4464 189.132 58.5857C189.132 58.7243 189.085 58.8415 188.99 58.9365C188.896 59.0314 188.779 59.0788 188.64 59.0788C188.501 59.0788 188.384 59.0314 188.29 58.9365C188.194 58.8415 188.147 58.7244 188.147 58.5857ZM188.311 60.5943H188.968V65.6657H188.311V60.5943Z" fill="black"/>
<path d="M195.068 64.9191C194.82 65.2192 194.538 65.4406 194.224 65.583C193.911 65.7262 193.571 65.7974 193.206 65.7974C192.819 65.7974 192.461 65.7315 192.133 65.5999C191.805 65.4682 191.523 65.2829 191.29 65.0455C191.056 64.808 190.873 64.5263 190.742 64.2001C190.61 63.8747 190.545 63.5178 190.545 63.1296C190.545 62.7422 190.611 62.3853 190.742 62.0592C190.873 61.7345 191.056 61.4527 191.29 61.2146C191.523 60.9764 191.805 60.7919 192.133 60.6601C192.461 60.5284 192.819 60.4618 193.206 60.4618C193.578 60.4618 193.923 60.5391 194.241 60.6931C194.558 60.8462 194.842 61.0622 195.09 61.3408L194.564 61.736C194.374 61.5231 194.166 61.3569 193.94 61.2367C193.714 61.1157 193.469 61.0552 193.206 61.0552C192.899 61.0552 192.622 61.1096 192.374 61.2198C192.125 61.3301 191.914 61.4779 191.739 61.664C191.563 61.8509 191.43 62.0706 191.339 62.3225C191.248 62.5751 191.202 62.8447 191.202 63.1296C191.202 63.4151 191.248 63.684 191.339 63.9366C191.43 64.1893 191.563 64.4083 191.739 64.5951C191.914 64.782 192.125 64.9305 192.374 65.04C192.622 65.1495 192.899 65.2047 193.206 65.2047C193.484 65.2047 193.737 65.1404 193.967 65.0124C194.197 64.8845 194.396 64.7146 194.564 64.5017L195.068 64.9191Z" fill="black"/>
<path d="M199.13 57.8935H201.364C201.634 57.8935 201.917 57.9249 202.212 57.9869C202.508 58.0497 202.778 58.1569 203.023 58.3108C203.267 58.4648 203.468 58.6746 203.626 58.9418C203.782 59.209 203.861 59.5444 203.861 59.9464C203.861 60.2979 203.797 60.6011 203.669 60.8577C203.541 61.1142 203.37 61.324 203.154 61.4886C202.939 61.6532 202.691 61.7757 202.409 61.8569C202.128 61.9365 201.835 61.9771 201.528 61.9771H199.853V65.6656H199.13L199.13 57.8935ZM199.853 61.3186H201.495C201.7 61.3186 201.901 61.2949 202.098 61.2474C202.295 61.1999 202.47 61.1234 202.623 61.0161C202.776 60.9105 202.901 60.7696 202.995 60.5942C203.09 60.4188 203.138 60.2029 203.138 59.9464C203.138 59.6976 203.089 59.4854 202.99 59.3101C202.891 59.134 202.764 58.9901 202.607 58.876C202.45 58.7626 202.269 58.6807 202.065 58.6286C201.86 58.5781 201.656 58.552 201.452 58.552H199.853L199.853 61.3186Z" fill="black"/>
<path d="M209.161 63.5362C209.161 63.785 209.163 64.0087 209.167 64.2063C209.17 64.4038 209.176 64.5861 209.183 64.7545C209.19 64.923 209.2 65.0807 209.21 65.2262C209.221 65.3732 209.238 65.5195 209.26 65.6657H208.647C208.602 65.4169 208.581 65.1427 208.581 64.8426H208.559C208.368 65.1718 208.133 65.413 207.852 65.5669C207.571 65.7209 207.215 65.7974 206.785 65.7974C206.566 65.7974 206.35 65.7698 206.139 65.7147C205.926 65.6603 205.737 65.5723 205.569 65.4513C205.401 65.3311 205.264 65.1756 205.159 64.985C205.052 64.7951 205 64.5646 205 64.2935C205 63.906 205.098 63.5983 205.295 63.3716C205.492 63.1448 205.735 62.9749 206.023 62.8608C206.312 62.7475 206.618 62.6748 206.943 62.641C207.268 62.6089 207.555 62.592 207.803 62.592H208.569V62.2842C208.569 61.8454 208.434 61.5307 208.165 61.3408C207.894 61.1502 207.555 61.0553 207.146 61.0553C206.562 61.0553 206.047 61.2459 205.602 61.6257L205.219 61.1754C205.46 60.9419 205.759 60.7642 206.117 60.644C206.474 60.523 206.818 60.4618 207.146 60.4618C207.759 60.4618 208.249 60.6073 208.614 60.896C208.978 61.1846 209.162 61.6517 209.162 62.2957L209.161 63.5362ZM207.847 63.1189C207.57 63.1189 207.301 63.1373 207.042 63.174C206.783 63.2108 206.549 63.2728 206.341 63.3609C206.133 63.4482 205.967 63.5653 205.843 63.7116C205.719 63.8586 205.657 64.0409 205.657 64.2607C205.657 64.4146 205.691 64.5516 205.761 64.6719C205.83 64.7929 205.92 64.8924 206.029 64.969C206.139 65.0456 206.261 65.1037 206.396 65.1443C206.531 65.1849 206.668 65.2048 206.806 65.2048C207.157 65.2048 207.445 65.1535 207.672 65.0509C207.898 64.9491 208.078 64.8151 208.213 64.6504C208.349 64.4857 208.442 64.299 208.493 64.0906C208.544 63.8816 208.569 63.6718 208.569 63.4589V63.1189H207.847Z" fill="black"/>
<path d="M210.913 62.0208C210.913 61.9258 210.909 61.811 210.902 61.6755C210.895 61.5399 210.889 61.4029 210.886 61.2642C210.882 61.1249 210.876 60.9947 210.87 60.8738C210.862 60.7528 210.858 60.6601 210.858 60.5943H211.515C211.523 60.785 211.528 60.9672 211.532 61.1433C211.536 61.3186 211.544 61.432 211.559 61.4833C211.727 61.1832 211.942 60.9381 212.206 60.7482C212.468 60.5575 212.789 60.4618 213.169 60.4618C213.235 60.4618 213.299 60.4679 213.361 60.4786C213.422 60.4894 213.487 60.5031 213.552 60.5169L213.476 61.1647C213.388 61.1356 213.304 61.121 213.224 61.121C212.939 61.121 212.692 61.1663 212.484 61.2581C212.277 61.35 212.105 61.4756 211.97 61.6364C211.834 61.798 211.734 61.9863 211.669 62.2023C211.603 62.4183 211.57 62.6503 211.57 62.8999V65.6657H210.913V62.0208Z" fill="black"/>
<path d="M214.505 58.5857C214.505 58.4464 214.552 58.3292 214.648 58.2335C214.742 58.1385 214.859 58.0911 214.998 58.0911C215.137 58.0911 215.254 58.1386 215.348 58.2335C215.443 58.3292 215.49 58.4464 215.49 58.5857C215.49 58.7243 215.443 58.8415 215.348 58.9365C215.254 59.0314 215.137 59.0788 214.998 59.0788C214.859 59.0788 214.742 59.0314 214.648 58.9365C214.552 58.8415 214.505 58.7244 214.505 58.5857ZM214.669 60.5943H215.326V65.6657H214.669V60.5943Z" fill="black"/>
<path d="M217.199 64.37C217.338 64.6411 217.542 64.8479 217.813 64.9902C218.083 65.1326 218.367 65.2047 218.667 65.2047C218.806 65.2047 218.944 65.1825 219.083 65.1388C219.221 65.0944 219.346 65.0332 219.455 64.9519C219.565 64.8715 219.654 64.7743 219.724 64.661C219.793 64.5476 219.828 64.4175 219.828 64.272C219.828 64.0377 219.753 63.8616 219.603 63.7444C219.453 63.6272 219.269 63.5361 219.05 63.4703C218.831 63.4044 218.59 63.3477 218.327 63.2995C218.065 63.252 217.823 63.1793 217.605 63.0805C217.386 62.9817 217.201 62.8447 217.052 62.6686C216.902 62.4933 216.827 62.2443 216.827 61.9227C216.827 61.6731 216.878 61.4572 216.98 61.275C217.082 61.0919 217.216 60.9396 217.38 60.8186C217.544 60.6984 217.728 60.6088 217.933 60.5506C218.137 60.4916 218.346 60.4618 218.557 60.4618C218.974 60.4618 219.333 60.5391 219.636 60.6931C219.938 60.8462 220.174 61.0882 220.342 61.4174L219.751 61.7682C219.627 61.5346 219.472 61.3569 219.285 61.2367C219.1 61.1158 218.857 61.0553 218.557 61.0553C218.44 61.0553 218.318 61.0736 218.191 61.1097C218.062 61.1464 217.948 61.1977 217.845 61.2643C217.743 61.3302 217.658 61.4144 217.588 61.5162C217.518 61.6189 217.484 61.736 217.484 61.8677C217.484 62.0943 217.559 62.2628 217.709 62.3723C217.858 62.4819 218.042 62.5684 218.262 62.6304C218.481 62.6931 218.722 62.7452 218.984 62.7897C219.247 62.8341 219.488 62.9045 219.707 63.0041C219.926 63.1021 220.11 63.2453 220.26 63.4313C220.41 63.6182 220.485 63.8838 220.485 64.2277C220.485 64.491 220.436 64.72 220.336 64.9137C220.238 65.1082 220.103 65.2705 219.932 65.4023C219.76 65.534 219.565 65.6327 219.346 65.6986C219.126 65.7645 218.896 65.7974 218.656 65.7974C218.217 65.7974 217.818 65.7131 217.457 65.5447C217.095 65.3763 216.816 65.1167 216.619 64.7652L217.199 64.37Z" fill="black"/>
<path d="M221.854 57.3667H222.511V61.4833H222.533C222.664 61.2054 222.883 60.9656 223.19 60.7643C223.496 60.5629 223.853 60.4618 224.263 60.4618C224.657 60.4618 224.978 60.5246 225.226 60.6487C225.474 60.7735 225.67 60.9366 225.812 61.1372C225.955 61.3394 226.053 61.5706 226.108 61.834C226.163 62.0982 226.19 62.3685 226.19 62.6472V65.6657H225.533V62.6793C225.533 62.4749 225.515 62.275 225.478 62.082C225.442 61.8875 225.378 61.7138 225.286 61.5598C225.195 61.4067 225.067 61.2842 224.903 61.1923C224.739 61.1004 224.526 61.0552 224.263 61.0552C224.021 61.0552 223.794 61.0973 223.578 61.1815C223.363 61.2658 223.177 61.3936 223.02 61.5659C222.863 61.7374 222.739 61.9534 222.647 62.2137C222.556 62.4725 222.51 62.7788 222.51 63.1295V65.6656H221.854L221.854 57.3667Z" fill="black"/>
</g>
<defs>
<clipPath id="clip0_1_377">
<rect width="246.4" height="88" fill="white"/>
</clipPath>
</defs>
</svg>
