<?xml version="1.0" encoding="UTF-8"?><svg id="a" xmlns="http://www.w3.org/2000/svg" width="332" height="120" viewBox="0 0 332 120"><defs><style>.c{fill:#010101;}.d{fill:#005899;}.e{fill:#008445;}.f{fill:#fff;}.g{fill:#fdbb33;}.h{fill:#804099;}.i{fill:#d82f27;}.j{fill:#231f20;}</style></defs><g><g><path class="c" d="m148.1894,36.7019v12.4062h-3.7737v-12.4062h-4.4157v-3.2228h12.6051v3.2228h-4.4157Z"/><path class="c" d="m161.5657,49.1081v-5.96c0-.309-.0216-.6036-.0659-.8833-.0443-.279-.1293-.5258-.2539-.7395-.1246-.2132-.291-.3826-.497-.5078-.206-.1246-.4707-.1874-.794-.1874-.6335,0-1.1186.2246-1.4575.6731-.3389.4491-.5078,1.0048-.5078,1.6671v5.9378h-3.6192v-16.6884h3.6192v7.0858h.0443c.2503-.4413.6479-.8347,1.1928-1.1809.5437-.3455,1.1988-.5186,1.9641-.5186.7509,0,1.3797.1323,1.8875.397.5078.2653.9198.6072,1.236,1.0264.3162.4198.5449.9018.685,1.4461.1389.5443.2096,1.0892.2096,1.6336v6.7989h-3.6432Z"/><path class="c" d="m178.6775,43.744v.4413c0,.1473-.0072.2874-.0216.4198h-7.969c.0287.309.121.5886.2755.8389s.3533.4671.5964.6509c.2419.1844.515.3276.8168.4305.3006.103.6144.1545.9377.1545.5737,0,1.0599-.1066,1.4575-.3204.3964-.2132.721-.4886.9713-.8276l2.5162,1.5893c-.515.7509-1.1964,1.3282-2.042,1.733-.8467.4048-1.8288.6072-2.9474.6072-.824,0-1.6036-.1293-2.3402-.3862-.7353-.2575-1.3797-.6329-1.9306-1.1258-.5521-.4928-.9868-1.1-1.303-1.8216-.3162-.7204-.4743-1.5449-.4743-2.4719,0-.8976.1545-1.7108.4635-2.4396.309-.7282.7282-1.3467,1.2587-1.8539.5294-.5078,1.1545-.9018,1.8755-1.1815.721-.279,1.5018-.4192,2.3402-.4192.8096,0,1.5521.1359,2.23.4084.6767.2725,1.2575.6659,1.7437,1.1809.485.5156.8647,1.1407,1.1366,1.8767.2719.7359.4084,1.5749.4084,2.5162Zm-3.333-1.3904c0-.5743-.1808-1.0671-.5413-1.4791s-.9018-.618-1.6228-.618c-.3521,0-.6767.0551-.9713.1653-.2934.1102-.5509.2617-.7725.4527-.2204.191-.3964.4156-.5294.6731-.1329.2575-.206.5264-.2204.806h4.6576Z"/><path class="c" d="m197.9557,48.8321c-1.0156.4635-2.1857.6952-3.5103.6952-1.2072,0-2.3222-.1982-3.345-.5958-1.0228-.397-1.909-.9599-2.6599-1.6887-.7497-.7288-1.339-1.6006-1.7653-2.6156-.4276-1.0156-.6407-2.1342-.6407-3.3558,0-1.2503.2168-2.3839.6515-3.3995.4335-1.0156,1.0336-1.8797,1.7988-2.5935.7653-.7138,1.6635-1.2617,2.6935-1.6449,1.03-.382,2.1414-.5737,3.333-.5737,1.1042,0,2.1893.1952,3.2564.585,1.0671.3898,1.9318.9599,2.5941,1.7108l-2.5605,2.5605c-.3533-.4856-.8168-.8461-1.3916-1.0815-.5737-.2353-1.1629-.3533-1.7653-.3533-.6623,0-1.2695.1216-1.8216.3641-.5521.2431-1.0264.5779-1.424,1.0042-.3976.427-.7066.9312-.927,1.5126-.2204.5814-.3305,1.2174-.3305,1.909,0,.7066.1102,1.3545.3305,1.9426.2204.5892.5258,1.0928.9162,1.512.3892.4198.8575.7473,1.4012.9827.5449.2353,1.1413.3533,1.7881.3533.7509,0,1.406-.1473,1.9653-.4419.5593-.294,1.0072-.6767,1.3461-1.1473l2.6276,2.4719c-.6922.7946-1.5461,1.424-2.5605,1.8875Z"/><path class="c" d="m209.6098,49.1081v-5.96c0-.309-.0216-.6036-.0659-.8833-.0443-.279-.1293-.5258-.2539-.7395-.1246-.2132-.291-.3826-.497-.5078-.206-.1246-.4707-.1874-.794-.1874-.6335,0-1.1186.2246-1.4575.6731-.3389.4491-.5078,1.0048-.5078,1.6671v5.9378h-3.6192v-16.6884h3.6192v7.0858h.0443c.2503-.4413.6479-.8347,1.1928-1.1809.5437-.3455,1.1988-.5186,1.9641-.5186.7509,0,1.3797.1323,1.8875.397.5078.2653.9198.6072,1.236,1.0264.3162.4198.5449.9018.685,1.4461.1389.5443.2096,1.0892.2096,1.6336v6.7989h-3.6432Z"/><path class="c" d="m223.6712,49.1081v-1.5234h-.0443c-.1317.2509-.3054.4856-.5186.7066s-.4635.412-.7497.5737c-.2874.1623-.6036.2946-.9497.3976-.3461.103-.7102.1545-1.0922.1545-.7365,0-1.3581-.1323-1.8659-.397-.5078-.2653-.9198-.6072-1.236-1.027-.3162-.4192-.5449-.897-.6838-1.4348-.1401-.5371-.2108-1.0851-.2108-1.6443v-6.7989h3.6432v5.96c0,.309.0216.6036.0659.8833s.1281.5294.2539.7503c.1246.221.291.394.497.5186.206.1252.4779.188.8168.188.6323,0,1.115-.2353,1.4455-.7066.3317-.4707.497-1.0228.497-1.6557v-5.9378h3.6204v10.993h-3.4887Z"/><path class="c" d="m237.5553,41.0948c-.1617-.0437-.3198-.0731-.4743-.088-.1545-.0144-.3054-.0222-.4527-.0222-.485,0-.8934.0886-1.2252.2641-.3305.1767-.5964.3892-.794.6383-.1988.2497-.3425.5216-.4311.815s-.1329.5503-.1329.7701v5.636h-3.6192v-10.9799h3.4875v1.5893h.0443c.279-.5629.6767-1.0222,1.1916-1.3779.515-.3557,1.1114-.5335,1.7881-.5335.1473,0,.291.0072.4311.0216.1389.015.2527.0371.3413.0665l-.1545,3.2007Z"/><path class="c" d="m246.9438,41.6691c-.206-.2653-.485-.4785-.8383-.6401s-.7138-.2431-1.0815-.2431c-.3832,0-.7294.0772-1.0383.2317-.309.1545-.5737.3611-.794.6186-.2216.2575-.394.5551-.5186.894-.1258.3383-.188.6988-.188,1.0815s.0587.7431.1761,1.0815c.1186.3389.291.6365.5198.894.2275.2575.4994.4605.8168.6072.3162.1473.6731.221,1.0707.221.3677,0,.7318-.0701,1.0922-.2102.3605-.1395.6515-.3419.8719-.6066l2.0084,2.4504c-.4563.4413-1.0443.7874-1.7653,1.0371-.721.2503-1.4875.3755-2.2959.3755-.8683,0-1.6791-.1323-2.4324-.3976-.7521-.2647-1.406-.6509-1.9605-1.1587-.5557-.5078-.9928-1.1222-1.3114-1.8432-.3174-.721-.4767-1.5378-.4767-2.4504,0-.8976.1593-1.7072.4767-2.4282.3186-.721.7557-1.3354,1.3114-1.8432.5545-.5078,1.2084-.8976,1.9605-1.1701.7533-.2725,1.5569-.4084,2.4096-.4084.3976,0,.7916.0371,1.1809.1102.3904.0737.7653.1731,1.127.2982.3593.1252.691.2796.9928.4635.3018.1844.5629.3862.7832.6072l-2.0971,2.4282Z"/><path class="c" d="m258.2736,49.1081v-5.96c0-.309-.0216-.6036-.0659-.8833-.0443-.279-.1293-.5258-.2539-.7395-.1246-.2132-.291-.3826-.497-.5078-.206-.1246-.4707-.1874-.794-.1874-.6335,0-1.1186.2246-1.4575.6731-.3389.4491-.5078,1.0048-.5078,1.6671v5.9378h-3.6192v-16.6884h3.6192v7.0858h.0443c.2503-.4413.6479-.8347,1.1928-1.1809.5437-.3455,1.1988-.5186,1.9641-.5186.7509,0,1.3797.1323,1.8875.397.5078.2653.9198.6072,1.236,1.0264.3162.4198.5449.9018.685,1.4461.1389.5443.2096,1.0892.2096,1.6336v6.7989h-3.6432Z"/><path class="c" d="m281.2741,43.5673c0,.8976-.1629,1.7108-.4862,2.4396-.3234.7282-.7653,1.3461-1.3246,1.8539-.5593.5078-1.206.9018-1.9426,1.1809-.7353.2796-1.5234.4198-2.3617.4198-.824,0-1.6084-.1401-2.3509-.4198-.7437-.279-1.3904-.6731-1.9426-1.1809-.5521-.5078-.9904-1.1258-1.3138-1.8539-.3234-.7288-.485-1.5419-.485-2.4396s.1617-1.7066.485-2.4282c.3234-.721.7617-1.3318,1.3138-1.8324.5521-.5,1.1988-.8827,1.9426-1.1479.7425-.2647,1.527-.397,2.3509-.397.8383,0,1.6264.1323,2.3617.397.7365.2653,1.3833.6479,1.9426,1.1479.5593.5006,1.0012,1.1114,1.3246,1.8324.3234.7216.4862,1.5306.4862,2.4282Zm-3.4887,0c0-.3533-.0587-.6988-.1761-1.0371-.1174-.3389-.2874-.6365-.5078-.894-.2204-.2575-.4934-.4671-.8168-.6294-.3234-.1617-.6994-.2431-1.1258-.2431s-.8024.0814-1.1258.2431c-.3234.1623-.5928.3719-.806.6294s-.3749.5551-.485.894c-.1102.3383-.1653.6838-.1653,1.0371s.0551.6994.1653,1.0377.2755.6437.4958.9162c.2216.2725.4934.4892.8168.6509.3246.1623.6994.2431,1.127.2431.4264,0,.8012-.0808,1.1258-.2431.3234-.1617.5952-.3785.8168-.6509.2204-.2725.3856-.5779.4958-.9162s.1653-.6844.1653-1.0377Z"/><path class="c" d="m290.8324,35.0905c-.1317-.0437-.2862-.0802-.4635-.1102-.1761-.0293-.3533-.0443-.5294-.0443-.3389,0-.6108.0593-.8168.1767-.2072.118-.3689.2761-.4862.4749-.1174.1988-.1988.4234-.2431.6731-.0431.2503-.0659.5006-.0659.7509v1.1036h2.4504v2.6929h-2.4504v8.3002h-3.6204v-8.3002h-2.0084v-2.6929h2.0084v-1.0599c0-.6767.0743-1.3204.2216-1.9312.1461-.6108.4-1.1479.7617-1.6114.3593-.4641.8455-.8318,1.4563-1.1042.6108-.2719,1.3725-.4084,2.2851-.4084.309,0,.6144.0192.9162.0557.3006.0365.5773.0916.8276.1653l-.2431,2.8695Z"/><path class="c" d="m302.6327,40.808v4.2103c0,.5174.0982.9048.297,1.1635.1988.2587.5557.388,1.0707.388.1772,0,.3641-.015.5629-.0443s.3641-.0737.497-.1323l.0443,2.6486c-.2503.0886-.5665.1659-.9497.2317-.382.0665-.7653.0994-1.1473.0994-.7365,0-1.3545-.0922-1.8539-.2767-.5006-.1838-.9018-.4497-1.2036-.7964s-.5186-.7599-.6515-1.2395c-.1317-.4791-.1988-1.0144-.1988-1.6042v-4.648h-1.7653v-2.6929h1.7437v-2.8917h3.5546v2.8917h2.5821v2.6929h-2.5821Z"/><path class="c" d="m314.8883,49.1081v-5.96c0-.309-.0216-.6036-.0659-.8833-.0443-.279-.1293-.5258-.2539-.7395-.1246-.2132-.291-.3826-.497-.5078-.206-.1246-.4707-.1874-.794-.1874-.6335,0-1.1186.2246-1.4575.6731-.3389.4491-.5078,1.0048-.5078,1.6671v5.9378h-3.6192v-16.6884h3.6192v7.0858h.0443c.2503-.4413.6479-.8347,1.1928-1.1809.5437-.3455,1.1988-.5186,1.9641-.5186.7509,0,1.3797.1323,1.8875.397.5078.2653.9198.6072,1.236,1.0264.3162.4198.5449.9018.685,1.4461.1389.5443.2096,1.0892.2096,1.6336v6.7989h-3.6432Z"/><path class="c" d="m332,43.744v.4413c0,.1473-.0072.2874-.0216.4198h-7.969c.0287.309.121.5886.2755.8389s.3533.4671.5964.6509c.2419.1844.515.3276.8168.4305.3006.103.6144.1545.9377.1545.5737,0,1.0599-.1066,1.4575-.3204.3964-.2132.721-.4886.9713-.8276l2.5162,1.5893c-.515.7509-1.1964,1.3282-2.042,1.733-.8467.4048-1.8288.6072-2.9474.6072-.824,0-1.6036-.1293-2.3402-.3862-.7353-.2575-1.3797-.6329-1.9306-1.1258-.5521-.4928-.9868-1.1-1.303-1.8216-.3162-.7204-.4743-1.5449-.4743-2.4719,0-.8976.1545-1.7108.4635-2.4396.309-.7282.7282-1.3467,1.2587-1.8539.5294-.5078,1.1545-.9018,1.8755-1.1815.721-.279,1.5018-.4192,2.3402-.4192.8096,0,1.5521.1359,2.23.4084.6767.2725,1.2575.6659,1.7437,1.1809.485.5156.8647,1.1407,1.1366,1.8767.2719.7359.4084,1.5749.4084,2.5162Zm-3.333-1.3904c0-.5743-.1808-1.0671-.5413-1.4791s-.9018-.618-1.6228-.618c-.3521,0-.6767.0551-.9713.1653-.2934.1102-.5509.2617-.7725.4527-.2204.191-.3964.4156-.5294.6731-.1329.2575-.206.5264-.2204.806h4.6576Z"/><path class="c" d="m148.1894,60.5596v12.4062h-3.7737v-12.4062h-4.4157v-3.2228h12.6051v3.2228h-4.4157Z"/><path class="c" d="m159.8663,64.9525c-.1617-.0437-.3198-.0731-.4743-.088-.1545-.0144-.3054-.0222-.4527-.0222-.485,0-.8934.0886-1.2252.2641-.3305.1767-.5964.3892-.794.6383-.1988.2497-.3425.5216-.4311.815-.0886.2934-.1329.5503-.1329.7701v5.636h-3.6192v-10.9799h3.4875v1.5893h.0443c.279-.5629.6767-1.0222,1.1916-1.3779s1.1114-.5335,1.7881-.5335c.1473,0,.291.0072.4311.0216.1389.015.2527.0371.3413.0665l-.1545,3.2007Z"/><path class="c" d="m161.8558,63.4735c.6467-.618,1.4012-1.0815,2.2623-1.3904.8611-.309,1.7402-.4635,2.6384-.4635.927,0,1.7102.1144,2.3509.3419.6395.2287,1.1581.5814,1.5557,1.0599.3976.4785.6874,1.0815.8719,1.8102.1844.7282.2755,1.5928.2755,2.5935v5.5408h-3.3102v-1.1701h-.0671c-.279.4563-.703.8096-1.2683,1.0599-.5677.2497-1.1821.3749-1.8444.3749-.4407,0-.897-.0587-1.3677-.1767-.4719-.1174-.9018-.309-1.2922-.5737-.3892-.2647-.7102-.618-.9593-1.0593-.2503-.4419-.3761-.9862-.3761-1.6336,0-.7952.2168-1.4354.6515-1.921.4335-.4856.9928-.8605,1.6779-1.1258.6838-.2647,1.4455-.4413,2.2851-.5294.8383-.0886,1.6551-.1329,2.4492-.1329v-.1761c0-.5443-.1904-.9455-.5737-1.2036-.382-.2569-.8539-.3862-1.412-.3862-.5162,0-1.012.1108-1.491.3311-.4779.221-.8862.4856-1.2252.7946l-1.8312-1.9647Zm6.6445,4.7025h-.4635c-.3976,0-.7988.0186-1.2036.0551s-.7653.1066-1.0815.2096c-.3174.103-.5785.2539-.7832.4527-.2072.1982-.3102.4599-.3102.7832,0,.2066.0479.3832.1437.53.0958.1473.2168.2647.3641.3533.1473.088.3174.1509.5078.1874.1916.0371.3761.0551.5521.0551.7353,0,1.2982-.2018,1.6887-.6066s.5856-.9527.5856-1.6449v-.3749Z"/><path class="c" d="m181.6888,72.9659v-6.0043c0-.309-.0263-.603-.0778-.8833-.0515-.279-.1353-.5258-.2539-.7395-.1174-.2126-.2826-.382-.4958-.5072-.2144-.1252-.4826-.188-.806-.188s-.6072.0629-.8503.188c-.2419.1252-.4443.2976-.6072.5186-.1617.221-.2826.4743-.3641.7617-.0802.2868-.121.585-.121.894v5.96h-3.642v-10.993h3.5091v1.5228h.0443c.1329-.2347.3054-.4671.5186-.6952.2132-.2281.4635-.4228.7509-.585.2874-.1617.6-.294.9377-.397.3389-.103.6994-.1545,1.0827-.1545.7353,0,1.3605.1323,1.8755.397.515.2653.9306.6072,1.2479,1.0264.3162.4198.5437.9018.6838,1.4461s.2096,1.0892.2096,1.6336v6.7989h-3.642Z"/><path class="c" d="m194.9624,65.2178c-.2946-.2796-.6395-.515-1.0371-.7066-.3976-.191-.8168-.2868-1.2587-.2868-.3389,0-.6503.0659-.9377.1988-.2874.1323-.4299.3605-.4299.6838,0,.3096.1569.53.4743.6623.3162.1329.8276.2796,1.5342.4419.412.088.8276.2132,1.2467.3749.4192.1623.7988.3755,1.1366.6401.3389.2653.6108.5892.8168.9713.206.3832.3102.8389.3102,1.3689,0,.6916-.1401,1.2767-.4204,1.7551-.279.4785-.6431.8647-1.0922,1.1587-.4491.2946-.9533.5078-1.5126.6401s-1.1186.1988-1.6779.1988c-.897,0-1.7761-.1437-2.6372-.4305s-1.5785-.7096-2.1521-1.2695l2.03-2.1414c.3246.3533.721.6479,1.1928.8833.4707.2353.9713.3533,1.5006.3533.2946,0,.5856-.0695.8719-.2096.2874-.1401.4311-.3862.4311-.7395,0-.3383-.1772-.5886-.5306-.7509-.3533-.1617-.9042-.3311-1.6551-.5078-.3832-.088-.7653-.2054-1.1485-.3527-.382-.1473-.7246-.3461-1.0264-.5964-.3018-.2497-.5485-.5587-.7389-.927-.1916-.3677-.2874-.809-.2874-1.3246,0-.6623.1401-1.2252.4192-1.6887.2802-.4635.6407-.8419,1.0827-1.1366.4407-.2946.9306-.5114,1.4671-.6515.5377-.1395,1.0707-.2096,1.6012-.2096.824,0,1.63.1287,2.4168.3862.7868.2575,1.4527.6437,1.9976,1.1587l-1.9869,2.0533Z"/><path class="c" d="m206.7736,58.9482c-.1317-.0437-.2862-.0802-.4635-.1102-.1761-.0293-.3533-.0443-.5294-.0443-.3389,0-.6108.0593-.8168.1767-.2072.118-.3689.2761-.4862.4749s-.1988.4234-.2431.6731c-.0431.2503-.0659.5006-.0659.7509v1.1036h2.4504v2.6929h-2.4504v8.3002h-3.6204v-8.3002h-2.0084v-2.6929h2.0084v-1.0599c0-.6767.0743-1.3204.2216-1.9312.1461-.6108.4-1.1479.7617-1.6114.3593-.4641.8455-.8318,1.4563-1.1042.6108-.2719,1.3725-.4084,2.2851-.4084.309,0,.6144.0192.9162.0557.3006.0365.5773.0916.8276.1653l-.2431,2.8695Z"/><path class="c" d="m227.9868,71.9281c0,1.0743-.1545,2.009-.4635,2.8037-.309.7946-.7437,1.4533-1.303,1.9755-.5593.5228-1.2395.9126-2.042,1.1701-.8024.2575-1.6887.3862-2.6599.3862s-1.9677-.1473-2.9905-.4413c-1.024-.2946-1.9102-.721-2.6599-1.2803l1.8096-2.5827c.5294.4707,1.115.8204,1.7545,1.0485.6407.2281,1.2695.3419,1.8875.3419,1.0599,0,1.8432-.2796,2.3509-.8389.5078-.5593.7617-1.3018.7617-2.2294v-.6623h-.0659c-.3389.4419-.7952.7946-1.3689,1.0599-.5737.2647-1.2288.397-1.9641.397-.8395,0-1.5821-.1503-2.23-.4521-.6479-.3018-1.1952-.7102-1.6443-1.2252-.4491-.515-.7916-1.115-1.0264-1.7994-.2359-.6844-.3533-1.409-.3533-2.1743,0-.7647.1174-1.4934.3533-2.1851.2347-.6916.5773-1.3024,1.0264-1.8324.4491-.53.9964-.9527,1.6443-1.2695.6479-.3162,1.3833-.4743,2.2072-.4743.6922,0,1.3545.1395,1.9869.4192.6323.2796,1.1401.7138,1.5234,1.3024h.0443v-1.4126h3.4216v9.9553Zm-3.4444-4.5252c0-.3677-.0623-.721-.1868-1.0593-.1258-.3383-.3054-.6365-.5413-.894-.2359-.2575-.515-.4599-.8383-.6072-.3246-.1467-.6922-.221-1.1042-.221s-.7761.0743-1.0922.221c-.3174.1473-.5856.3461-.806.5958-.2204.2509-.3904.5449-.5078.8833-.1186.3389-.1761.6988-.1761,1.0815,0,.3683.0575.7216.1761,1.0599.1174.3383.2874.6365.5078.894.2204.2575.4886.4635.806.618.3162.1545.6803.2317,1.0922.2317s.7832-.0772,1.115-.2317c.3305-.1545.6108-.3569.8383-.6072.2287-.2497.4048-.5443.5306-.8827.1246-.3383.1868-.6988.1868-1.0821Z"/><path class="c" d="m238.0615,72.9659v-1.5234h-.0443c-.1317.2509-.3054.4856-.5186.7066s-.4635.412-.7497.5737c-.2874.1623-.6036.2946-.9497.3976-.3461.103-.7102.1545-1.0922.1545-.7365,0-1.3581-.1323-1.8659-.397-.5078-.2653-.9198-.6072-1.236-1.027-.3162-.4192-.5449-.897-.6838-1.4348-.1401-.5371-.2108-1.0851-.2108-1.6443v-6.7989h3.6432v5.96c0,.309.0216.6036.0659.8833s.1281.5294.2539.7503c.1246.221.291.394.497.5186.206.1252.4779.188.8168.188.6323,0,1.115-.2353,1.4455-.7066.3317-.4707.497-1.0228.497-1.6557v-5.9378h3.6204v10.993h-3.4887Z"/><path class="c" d="m251.7782,64.9525c-.1617-.0437-.3198-.0731-.4743-.088-.1545-.0144-.3054-.0222-.4527-.0222-.485,0-.8934.0886-1.2252.2641-.3305.1767-.5964.3892-.794.6383-.1988.2497-.3425.5216-.4311.815s-.1329.5503-.1329.7701v5.636h-3.6192v-10.9799h3.4875v1.5893h.0443c.279-.5629.6767-1.0222,1.1916-1.3779.515-.3557,1.1114-.5335,1.7881-.5335.1473,0,.291.0072.4311.0216.1389.015.2527.0371.3413.0665l-.1545,3.2007Z"/><path class="c" d="m253.4635,63.4735c.6467-.618,1.4012-1.0815,2.2623-1.3904.8611-.309,1.7402-.4635,2.6384-.4635.927,0,1.7102.1144,2.3509.3419.6395.2287,1.1581.5814,1.5557,1.0599.3976.4785.6874,1.0815.8719,1.8102.1844.7282.2755,1.5928.2755,2.5935v5.5408h-3.3102v-1.1701h-.0671c-.279.4563-.703.8096-1.2683,1.0599-.5677.2497-1.1821.3749-1.8444.3749-.4407,0-.897-.0587-1.3677-.1767-.4719-.1174-.9018-.309-1.2922-.5737-.3892-.2647-.7102-.618-.9593-1.0593-.2503-.4419-.3761-.9862-.3761-1.6336,0-.7952.2168-1.4354.6515-1.921.4335-.4856.9928-.8605,1.6779-1.1258.6838-.2647,1.4455-.4413,2.2851-.5294.8383-.0886,1.6551-.1329,2.4492-.1329v-.1761c0-.5443-.1904-.9455-.5737-1.2036-.382-.2569-.8539-.3862-1.412-.3862-.5162,0-1.012.1108-1.491.3311-.4779.221-.8862.4856-1.2252.7946l-1.8312-1.9647Zm6.6445,4.7025h-.4635c-.3976,0-.7988.0186-1.2036.0551s-.7653.1066-1.0815.2096c-.3174.103-.5785.2539-.7832.4527-.2072.1982-.3102.4599-.3102.7832,0,.2066.0479.3832.1437.53.0958.1473.2168.2647.3641.3533.1473.088.3174.1509.5078.1874.1916.0371.3761.0551.5521.0551.7353,0,1.2982-.2018,1.6887-.6066.3904-.4048.5856-.9527.5856-1.6449v-.3749Z"/><path class="c" d="m270.2602,64.6657v4.2103c0,.5174.0982.9048.297,1.1635s.5557.388,1.0707.388c.1772,0,.3641-.015.5629-.0443s.3641-.0737.497-.1323l.0443,2.6486c-.2503.0886-.5665.1659-.9497.2317-.382.0665-.7653.0994-1.1473.0994-.7365,0-1.3545-.0922-1.8539-.2767-.5006-.1838-.9018-.4497-1.2036-.7964-.3018-.3467-.5186-.7599-.6515-1.2395-.1317-.4791-.1988-1.0144-.1988-1.6042v-4.648h-1.7653v-2.6929h1.7437v-2.8917h3.5546v2.8917h2.5821v2.6929h-2.5821Z"/><path class="c" d="m279.3589,58.4626c0,.2796-.0563.5413-.1665.7838-.1102.2431-.2575.4527-.4407.6294-.1844.1767-.4048.3162-.6623.4192s-.527.1545-.806.1545c-.5892,0-1.0815-.1946-1.4791-.585-.3976-.3898-.5964-.8569-.5964-1.4018,0-.2647.0515-.5186.1545-.7611.103-.2431.2503-.4527.4419-.6294.1916-.1767.412-.3204.6623-.4305s.5222-.1653.8168-.1653c.279,0,.5485.0515.806.1545.2575.103.4779.2425.6623.4192.1832.1767.3305.3862.4407.6294.1102.2425.1665.5042.1665.7832Zm-3.8851,14.5033v-10.993h3.6192v10.993h-3.6192Z"/><path class="c" d="m293.7544,67.425c0,.8976-.1629,1.7108-.4862,2.4396-.3234.7282-.7653,1.3461-1.3246,1.8539-.5593.5078-1.206.9018-1.9426,1.1809-.7353.2796-1.5234.4198-2.3617.4198-.824,0-1.6084-.1401-2.3509-.4198-.7437-.279-1.3904-.6731-1.9426-1.1809s-.9904-1.1258-1.3138-1.8539c-.3234-.7288-.485-1.5419-.485-2.4396s.1617-1.7066.485-2.4282c.3234-.721.7617-1.3318,1.3138-1.8324.5521-.5,1.1988-.8827,1.9426-1.1479.7425-.2647,1.527-.397,2.3509-.397.8383,0,1.6264.1323,2.3617.397.7365.2653,1.3833.6479,1.9426,1.1479.5593.5006,1.0012,1.1114,1.3246,1.8324.3234.7216.4862,1.5306.4862,2.4282Zm-3.4887,0c0-.3533-.0587-.6988-.1761-1.0371-.1174-.3389-.2874-.6365-.5078-.894s-.4934-.4671-.8168-.6294c-.3234-.1617-.6994-.2431-1.1258-.2431s-.8024.0814-1.1258.2431c-.3234.1623-.5928.3719-.806.6294s-.3749.5551-.485.894c-.1102.3383-.1653.6838-.1653,1.0371s.0551.6994.1653,1.0377c.1102.3383.2755.6437.4958.9162.2216.2725.4934.4892.8168.6509.3246.1623.6994.2431,1.127.2431.4264,0,.8012-.0808,1.1258-.2431.3234-.1617.5952-.3785.8168-.6509.2204-.2725.3856-.5779.4958-.9162s.1653-.6844.1653-1.0377Z"/><path class="c" d="m303.2338,72.9659v-6.0043c0-.309-.0263-.603-.0778-.8833-.0515-.279-.1353-.5258-.2539-.7395-.1174-.2126-.2826-.382-.4958-.5072-.2144-.1252-.4826-.188-.806-.188s-.6072.0629-.8503.188c-.2419.1252-.4443.2976-.6072.5186-.1617.221-.2826.4743-.3641.7617-.0802.2868-.121.585-.121.894v5.96h-3.642v-10.993h3.5091v1.5228h.0443c.1329-.2347.3054-.4671.5186-.6952.2132-.2281.4635-.4228.7509-.585.2874-.1617.6-.294.9377-.397.3389-.103.6994-.1545,1.0827-.1545.7353,0,1.3605.1323,1.8755.397.515.2653.9306.6072,1.2479,1.0264.3162.4198.5437.9018.6838,1.4461.1401.5443.2096,1.0892.2096,1.6336v6.7989h-3.642Z"/><path class="c" d="m213.4993,58.4626c0,.2796-.0551.5413-.1653.7838-.1102.2431-.2623.4527-.4527.6294-.1916.1767-.412.3162-.6623.4192-.2503.103-.515.1545-.7952.1545-.588,0-1.0815-.1946-1.4791-.585-.3964-.3898-.5952-.8569-.5952-1.4018,0-.2647.0515-.5186.1545-.7611.103-.2431.2503-.4527.4407-.6294.1916-.1767.412-.3204.6623-.4305s.5222-.1653.8168-.1653c.2802,0,.5449.0515.7952.1545.2503.103.4707.2425.6623.4192.1904.1767.3425.3862.4527.6294.1102.2425.1653.5042.1653.7832Z"/><rect class="c" x="209.5914" y="61.9728" width="3.6432" height="10.993"/></g><g><path class="j" d="m144.6146,83.9566h1.0156l4.45,10.5729h-1.1052l-1.15-2.8073h-5.6l-1.1943,2.8073h-1.0307l4.6146-10.5729Zm.463,1.075l-2.4641,5.7937h4.8531l-2.3891-5.7937Z"/><path class="j" d="m151.3495,89.5712c0-.1292-.0052-.2854-.0151-.4698s-.0177-.3708-.0224-.5594c-.0052-.1896-.0125-.3667-.0224-.5312s-.0151-.2906-.0151-.3802h.8964c.0099.2594.0172.5073.0224.7469.0047.2385.0172.3927.037.4625h.0448c.1792-.3781.4781-.7042.8964-.9781s.9057-.4115,1.4635-.4115c.5375,0,.9755.0854,1.3141.2542.338.1698.6047.3917.799.6646.1937.275.3281.5896.4031.9479.0745.3594.112.7271.112,1.1062v4.1062h-.8958v-4.0625c0-.2781-.025-.55-.075-.8125-.05-.2646-.137-.501-.2615-.7104-.1245-.2083-.2984-.375-.5224-.5s-.5151-.1865-.8734-.1865c-.3286,0-.6401.0573-.9333.1719-.2937.1146-.5479.2885-.762.5229-.2141.2333-.3833.5271-.5078.8812-.1245.3521-.1865.7687-.1865,1.2458v3.45h-.8958v-4.9583Z"/><path class="j" d="m167.0297,83.9566h1.0156l4.45,10.5729h-1.1052l-1.15-2.8073h-5.6l-1.1943,2.8073h-1.0307l4.6146-10.5729Zm.463,1.075l-2.4641,5.7937h4.8531l-2.3891-5.7937Z"/><path class="j" d="m173.7646,89.5712c0-.1292-.0052-.2854-.0151-.4698s-.0177-.3708-.0224-.5594c-.0052-.1896-.0125-.3667-.0224-.5312s-.0151-.2906-.0151-.3802h.8964c.0099.2594.0172.5073.0224.7469.0047.2385.0172.3927.037.4625h.0448c.1792-.3781.4781-.7042.8964-.9781s.9057-.4115,1.4635-.4115c.5375,0,.9755.0854,1.3141.2542.338.1698.6047.3917.799.6646.1937.275.3281.5896.4031.9479.074.3594.1115.7271.1115,1.1062v4.1062h-.8953v-4.0625c0-.2781-.025-.55-.075-.8125-.05-.2646-.137-.501-.2615-.7104-.1245-.2083-.2984-.375-.5224-.5s-.5151-.1865-.8734-.1865c-.3286,0-.6401.0573-.9333.1719-.2937.1146-.5479.2885-.762.5229-.2141.2333-.3833.5271-.5078.8812-.1245.3521-.1865.7687-.1865,1.2458v3.45h-.8958v-4.9583Z"/><path class="j" d="m188.9963,94.0816c0,.8562-.125,1.5479-.374,2.075-.249.5281-.5594.9365-.9333,1.225-.3729.2896-.774.4833-1.2021.5833-.4281.0979-.8156.1479-1.1646.1479s-.6896-.0312-1.0229-.0958c-.3333-.0656-.65-.1604-.9479-.2844-.299-.124-.5698-.276-.8146-.4552-.2437-.1792-.4552-.3833-.6344-.6125l.7021-.6562c.3187.4479.7167.775,1.1948.9854.4781.2083.9854.3125,1.5229.3125.4583,0,.8437-.0594,1.1573-.1792.3135-.1187.5729-.276.7771-.4698.2031-.1948.3625-.4083.4771-.6427.1146-.2333.199-.4677.2542-.7021.0552-.2333.0875-.4542.0969-.6646.0104-.2083.0156-.3771.0156-.5062v-.9562h-.0302c-.2594.4177-.6104.7458-1.0531.9854s-.9625.3583-1.5604.3583c-.5073,0-.9854-.0917-1.4333-.276s-.8385-.4385-1.1719-.7615c-.3344-.324-.5979-.7-.7917-1.1271-.1948-.4292-.2917-.8865-.2917-1.375,0-.4875.0969-.9458.2917-1.3729.1937-.4292.4573-.8021.7917-1.1208.3333-.3187.724-.5719,1.1719-.7615.4479-.1885.926-.2844,1.4333-.2844.5979,0,1.1177.1208,1.5604.3594s.7937.5677,1.0531.9854h.0302v-1.1646h.8958v6.451Zm-.8667-3.0917c0-.3771-.0719-.7333-.2167-1.0667-.1437-.3344-.3385-.6229-.5823-.8667s-.5323-.4375-.8656-.5823-.6896-.2167-1.0677-.2167c-.3792,0-.7344.0719-1.0677.2167-.3344.1448-.6229.3385-.8667.5823s-.4375.5323-.5823.8667c-.1437.3333-.2167.6896-.2167,1.0667,0,.3792.0729.7354.2167,1.0687.1448.3333.3385.6219.5823.8656s.5323.4385.8667.5823c.3333.1437.6885.2167,1.0677.2167.3781,0,.7344-.0729,1.0677-.2167s.6219-.3385.8656-.5823.4385-.5323.5823-.8656c.1448-.3333.2167-.6896.2167-1.0687Z"/><path class="j" d="m191.3401,83.24h.8958v11.2896h-.8958v-11.2896Z"/><path class="j" d="m194.3859,91.0795c0-.5271.0896-1.0125.2687-1.4562.1792-.4417.4281-.825.7469-1.149s.7021-.575,1.15-.7542.9354-.2698,1.4635-.2698c.5271,0,1.0125.0906,1.4562.2698.4427.1792.826.4302,1.149.7542.324.324.575.7073.7542,1.149.1792.4437.2687.9292.2687,1.4562,0,.5281-.0896,1.0135-.2687,1.4562-.1792.4437-.4302.8271-.7542,1.15-.3229.3229-.7062.575-1.149.7542-.4437.1792-.9292.2687-1.4562.2687-.5281,0-1.0156-.0896-1.4635-.2687s-.8312-.4312-1.15-.7542-.5677-.7062-.7469-1.15c-.1792-.4427-.2687-.9281-.2687-1.4562Zm.8958,0c0,.3885.0625.7542.1875,1.0979.124.3437.3052.6417.5448.8958.2385.2542.5271.4562.8656.6052s.7167.224,1.1354.224c.4177,0,.7958-.075,1.1344-.224s.6271-.351.8667-.6052c.2385-.2542.4198-.5521.5448-.8958.124-.3437.1865-.7094.1865-1.0979,0-.3875-.0625-.7542-.1865-1.0979-.125-.3427-.3062-.6417-.5448-.8958-.2396-.2531-.5281-.4542-.8667-.6042s-.7167-.224-1.1344-.224c-.4187,0-.7969.074-1.1354.224s-.6271.351-.8656.6042c-.2396.2542-.4208.5531-.5448.8958-.125.3437-.1875.7104-.1875,1.0979Z"/><path class="j" d="m203.0922,90.5879h3.6885v.8062h-3.6885v-.8062Z"/><path class="j" d="m217.5776,92.8712c-.5073.6875-1.0948,1.1802-1.7615,1.4792-.6677.2979-1.3885.4479-2.1656.4479-.8062,0-1.5458-.1375-2.2177-.4104-.6719-.274-1.2469-.6573-1.725-1.15-.4771-.4927-.851-1.0802-1.1198-1.7625-.2687-.6812-.4031-1.426-.4031-2.2323s.1344-1.5479.4031-2.225.6427-1.2615,1.1198-1.7552c.4781-.4917,1.0531-.8781,1.725-1.1562.6719-.2792,1.4115-.4187,2.2177-.4187.7167,0,1.3865.1271,2.0083.3812s1.1677.6792,1.6354,1.2771l-.8062.6708c-.3281-.4979-.749-.8604-1.2615-1.0896-.5135-.2292-1.0385-.3437-1.576-.3437-.6865,0-1.3062.1198-1.8594.3583-.5521.2396-1.0229.5677-1.4104.9854-.3885.4187-.6875.9115-.8969,1.4792-.2083.5667-.3135,1.1792-.3135,1.8365s.1052,1.2698.3135,1.8365c.2094.5677.5083,1.0604.8969,1.4792.3875.4177.8583.7458,1.4104.9854.5531.2385,1.1729.3583,1.8594.3583.2687,0,.5479-.0323.8365-.0979.2885-.0646.5698-.1635.8437-.2979s.5354-.3042.7844-.5083c.2479-.2031.4677-.45.6562-.7385l.8062.6115Z"/><path class="j" d="m224.4922,91.6327c0,.3385.0021.6427.0073.9115.0042.2687.0125.5167.0219.7458.0104.2292.0229.4437.0375.6417.0146.2.0375.399.0677.5979h-.8365c-.0604-.3385-.0896-.7115-.0896-1.1198h-.0302c-.2594.4479-.5802.776-.9635.9854s-.8687.3135-1.4552.3135c-.299,0-.5927-.0375-.8812-.1125-.2896-.074-.5479-.1937-.7771-.3583-.2292-.1635-.4156-.375-.5594-.6344-.1448-.2583-.2167-.5719-.2167-.9406,0-.5271.1344-.9458.4031-1.2542s.6-.5396.9927-.6948c.3937-.1542.8115-.2531,1.2542-.299.4437-.0437.8344-.0667,1.1729-.0667h1.0448v-.4187c0-.5969-.1844-1.025-.5521-1.2833-.3687-.2594-.8312-.3885-1.3885-.3885-.7969,0-1.499.2594-2.1062.776l-.5219-.6125c.3281-.3177.7365-.5594,1.224-.7229.4875-.1646.9562-.2479,1.4042-.2479.8354,0,1.5031.1979,2.001.5906.4969.3927.7469,1.0281.7469,1.9042v1.6875Zm-1.7927-.5677c-.3781,0-.7437.025-1.0979.075-.3531.05-.6719.1344-.9552.2542-.2833.1187-.5104.2781-.6792.4771-.1698.2-.2542.4479-.2542.7469,0,.2094.0469.3958.1417.5594.0948.1646.2167.3.3656.4042.15.1042.3167.1833.501.2385.1833.0552.3708.0823.5594.0823.4781,0,.8708-.0698,1.1802-.2094.3083-.1385.5542-.3208.7385-.5448s.3115-.4781.3812-.7615c.0698-.2844.1042-.5698.1042-.8594v-.4625h-.9854Z"/><path class="j" d="m230.2557,88.4368h-1.9719v4.4948c0,.3083.0854.5479.2542.7167.1698.1698.4031.2542.7021.2542.1687,0,.3406-.0229.5156-.0667.174-.0458.3406-.1021.5-.1729l.074.8062c-.1687.0604-.3625.1146-.5823.1646-.2187.05-.4125.075-.5823.075-.3187,0-.5917-.0479-.8208-.1417-.2292-.0948-.4135-.2208-.5531-.3812-.1396-.1583-.2406-.3458-.3062-.5604-.0646-.2125-.0969-.4448-.0969-.6937v-4.4948h-1.4927v-.8062h1.4927v-1.9865h.8958v1.9865h1.9719v.8062Z"/><path class="j" d="m231.8682,83.24h.8958v5.6h.0302c.1792-.3781.4771-.7042.8958-.9781.4177-.274.9052-.4115,1.4635-.4115.5375,0,.975.0854,1.3135.2542.3385.1698.6052.3917.799.6646.1948.275.3292.5896.4031.9479.075.3594.1125.7271.1125,1.1062v4.1062h-.8958v-4.0625c0-.2781-.025-.55-.075-.8125-.05-.2646-.1365-.501-.2615-.7104-.124-.2083-.299-.375-.5229-.5s-.5146-.1865-.8729-.1865c-.3292,0-.6396.0573-.9333.1719s-.5479.2885-.7615.5229c-.2146.2333-.3833.5271-.5083.8812-.124.3521-.1865.7687-.1865,1.2458v3.45h-.8958v-11.2896Z"/><path class="j" d="m239.7828,91.0795c0-.5271.0896-1.0125.2687-1.4562.1792-.4417.4281-.825.7469-1.149s.7021-.575,1.15-.7542.9354-.2698,1.4635-.2698c.5271,0,1.0125.0906,1.4562.2698.4427.1792.826.4302,1.149.7542.324.324.575.7073.7542,1.149.1792.4437.2687.9292.2687,1.4562,0,.5281-.0896,1.0135-.2687,1.4562-.1792.4437-.4302.8271-.7542,1.15-.3229.3229-.7062.575-1.149.7542-.4437.1792-.9292.2687-1.4562.2687-.5281,0-1.0156-.0896-1.4635-.2687s-.8312-.4312-1.15-.7542-.5677-.7062-.7469-1.15c-.1792-.4427-.2687-.9281-.2687-1.4562Zm.8958,0c0,.3885.0625.7542.1875,1.0979.124.3437.3052.6417.5448.8958.2385.2542.5271.4562.8656.6052s.7167.224,1.1354.224c.4177,0,.7958-.075,1.1344-.224s.6271-.351.8667-.6052c.2385-.2542.4198-.5521.5448-.8958.124-.3437.1865-.7094.1865-1.0979,0-.3875-.0625-.7542-.1865-1.0979-.125-.3427-.3062-.6417-.5448-.8958-.2396-.2531-.5281-.4542-.8667-.6042s-.7167-.224-1.1344-.224c-.4187,0-.7969.074-1.1354.224s-.6271.351-.8656.6042c-.2396.2542-.4208.5531-.5448.8958-.125.3437-.1875.7104-.1875,1.0979Z"/><path class="j" d="m249.1901,83.24h.8958v11.2896h-.8958v-11.2896Z"/><path class="j" d="m252.564,84.8983c0-.1896.0646-.349.1948-.4792.1292-.1292.2885-.1937.4771-.1937.1896,0,.349.0646.4781.1937.1292.1302.1937.2896.1937.4792,0,.1885-.0646.3479-.1937.4771s-.2885.1937-.4781.1937c-.1885,0-.3479-.0646-.4771-.1937-.1302-.1292-.1948-.2885-.1948-.4771Zm.224,2.7323h.8958v6.899h-.8958v-6.899Z"/><path class="j" d="m262.0015,93.5139c-.3385.4083-.7219.7094-1.15.9031-.4281.1948-.8906.2917-1.3885.2917-.5281,0-1.0156-.0896-1.4635-.2687s-.8312-.4312-1.15-.7542-.5677-.7062-.7469-1.15c-.1792-.4427-.2687-.9281-.2687-1.4562,0-.5271.0896-1.0125.2687-1.4562.1792-.4417.4281-.825.7469-1.149s.7021-.575,1.15-.7542.9354-.2698,1.4635-.2698c.5073,0,.9781.1052,1.4115.3146.4323.2083.8187.5021,1.1573.8812l-.7177.5375c-.2583-.2896-.5427-.5156-.851-.6792-.3083-.1646-.6417-.2469-1-.2469-.4187,0-.7969.074-1.1354.224s-.6271.351-.8656.6042c-.2396.2542-.4208.5531-.5448.8958-.125.3437-.1875.7104-.1875,1.0979,0,.3885.0625.7542.1875,1.0979.124.3437.3052.6417.5448.8958.2385.2542.5271.4562.8656.6052s.7167.224,1.1354.224c.3781,0,.724-.0875,1.0375-.2615s.5844-.4052.8135-.6948l.6875.5677Z"/><path class="j" d="m267.5411,83.9566h3.0458c.3687,0,.7542.0427,1.1573.1271.4031.0854.7719.2312,1.1052.4406s.6073.4948.8219.8583c.2135.3635.3208.8198.3208,1.3667,0,.4781-.0875.8906-.2615,1.2396s-.4083.6344-.7021.8583-.6323.3906-1.0156.501c-.3833.1083-.7833.1635-1.2021.1635h-2.2844v5.0177h-.9854v-10.5729Zm.9854,4.6594h2.2396c.2792,0,.5531-.0323.8219-.0969s.5073-.1687.7167-.3146c.2083-.1437.3781-.3354.5073-.574s.1948-.5323.1948-.8812c0-.3385-.0677-.6271-.2021-.8656-.1344-.2396-.3083-.4354-.5229-.5906-.2135-.1542-.4604-.2656-.7385-.3365-.2792-.0687-.5583-.1042-.8365-.1042h-2.1802v3.7635Z"/><path class="j" d="m281.2203,91.6327c0,.3385.0021.6427.0073.9115.0042.2687.0125.5167.0219.7458.0104.2292.0229.4437.0375.6417.0146.2.0375.399.0677.5979h-.8365c-.0604-.3385-.0896-.7115-.0896-1.1198h-.0302c-.2594.4479-.5802.776-.9635.9854s-.8687.3135-1.4552.3135c-.299,0-.5927-.0375-.8812-.1125-.2896-.074-.5479-.1937-.7771-.3583-.2292-.1635-.4156-.375-.5594-.6344-.1448-.2583-.2167-.5719-.2167-.9406,0-.5271.1344-.9458.4031-1.2542s.6-.5396.9927-.6948c.3937-.1542.8115-.2531,1.2542-.299.4437-.0437.8344-.0667,1.1729-.0667h1.0448v-.4187c0-.5969-.1844-1.025-.5521-1.2833-.3687-.2594-.8312-.3885-1.3885-.3885-.7969,0-1.499.2594-2.1062.776l-.5219-.6125c.3281-.3177.7365-.5594,1.224-.7229.4875-.1646.9562-.2479,1.4042-.2479.8354,0,1.5031.1979,2.001.5906.4969.3927.7469,1.0281.7469,1.9042v1.6875Zm-1.7927-.5677c-.3781,0-.7437.025-1.0979.075-.3531.05-.6719.1344-.9552.2542-.2833.1187-.5104.2781-.6792.4771-.1698.2-.2542.4479-.2542.7469,0,.2094.0469.3958.1417.5594.0948.1646.2167.3.3656.4042.15.1042.3167.1833.501.2385.1833.0552.3708.0823.5594.0823.4781,0,.8708-.0698,1.1802-.2094.3083-.1385.5542-.3208.7385-.5448s.3115-.4781.3812-.7615c.0698-.2844.1042-.5698.1042-.8594v-.4625h-.9854Z"/><path class="j" d="m283.6088,89.5712c0-.1292-.0052-.2854-.0146-.4698-.0104-.1844-.0177-.3708-.0229-.5594-.0052-.1896-.0125-.3667-.0219-.5312-.0104-.1646-.0156-.2906-.0156-.3802h.8958c.0104.2594.0177.5073.0229.7469.0052.2385.0167.3927.0375.4625.2281-.4083.5219-.7417.8812-1,.3583-.2594.7958-.3896,1.3135-.3896.0896,0,.1771.0083.2615.0229s.1719.0333.2615.0521l-.1042.8812c-.1198-.0396-.2344-.0594-.3437-.0594-.3885,0-.725.0615-1.0083.1865s-.5177.2958-.7021.5146c-.1844.2198-.3208.476-.4104.7698s-.1344.6094-.1344.949v3.7625h-.8958v-4.9583Z"/><path class="j" d="m288.5067,84.8983c0-.1896.0646-.349.1948-.4792.1292-.1292.2885-.1937.4771-.1937.1896,0,.349.0646.4781.1937.1292.1302.1937.2896.1937.4792,0,.1885-.0646.3479-.1937.4771s-.2885.1937-.4781.1937c-.1885,0-.3479-.0646-.4771-.1937-.1302-.1292-.1948-.2885-.1948-.4771Zm.224,2.7323h.8958v6.899h-.8958v-6.899Z"/><path class="j" d="m292.1807,92.767c.1896.3687.4677.65.8365.8437s.7562.2917,1.1646.2917c.1896,0,.3781-.0302.5677-.0896.1885-.0604.3583-.1437.5073-.2542.15-.1094.2719-.2417.3667-.3958.0937-.1542.1417-.3312.1417-.5292,0-.3187-.1021-.5583-.3063-.7177-.2042-.1594-.4552-.2833-.7542-.3729s-.6271-.1667-.9854-.2323c-.3583-.0646-.6875-.1635-.9854-.2979-.299-.1344-.551-.3208-.7542-.5604-.2042-.2385-.3062-.5771-.3062-1.0146,0-.3396.0698-.6333.2083-.8812.1396-.249.3219-.4562.5458-.6208.224-.1635.475-.2854.7542-.3646.2781-.0802.5625-.1208.851-.1208.5677,0,1.0573.1052,1.4708.3146.4125.2083.7344.5375.9635.9854l-.8062.4771c-.1698-.3177-.3812-.5594-.6354-.7229-.2531-.1646-.5844-.2469-.9927-.2469-.1594,0-.326.025-.5.074-.175.05-.3312.1198-.4708.2104-.1396.0896-.2562.2042-.351.3427-.0948.1396-.1417.299-.1417.4781,0,.3083.1021.5375.3062.6865s.4552.2667.7542.351c.299.0854.6271.1562.9854.2167s.6865.1562.9854.2917c.299.1333.55.3281.7542.5812.2042.2542.3062.6156.3062,1.0833,0,.3583-.0667.6698-.2021.9333-.1344.2646-.3187.4854-.5521.6646-.2344.1792-.5.3135-.799.4031s-.6125.1344-.9406.1344c-.5979,0-1.1427-.1146-1.6354-.3437s-.874-.5823-1.1427-1.0604l.7917-.5375Z"/><path class="j" d="m298.5276,83.24h.8958v5.6h.0302c.1792-.3781.4771-.7042.8958-.9781.4177-.274.9052-.4115,1.4635-.4115.5375,0,.975.0854,1.3135.2542.3385.1698.6052.3917.799.6646.1948.275.3292.5896.4031.9479.075.3594.1125.7271.1125,1.1062v4.1062h-.8958v-4.0625c0-.2781-.025-.55-.075-.8125-.05-.2646-.1365-.501-.2615-.7104-.124-.2083-.299-.375-.5229-.5s-.5146-.1865-.8729-.1865c-.3292,0-.6396.0573-.9333.1719s-.5479.2885-.7615.5229c-.2146.2333-.3833.5271-.5083.8812-.124.3521-.1865.7687-.1865,1.2458v3.45h-.8958v-11.2896Z"/></g></g><g><g><rect class="g" x="1.4696" y="12.7196" width="105.8108" height="105.8108"/><path d="m108.75,120H0V11.25h108.75v108.75Zm-105.8108-2.9392h102.8716V14.1892H2.9392v102.8716Z"/></g><g><circle class="h" cx="54.375" cy="65.625" r="47.027"/><path d="m54.375,114.1216c-26.7407,0-48.4966-21.7559-48.4966-48.4966S27.6343,17.1284,54.375,17.1284s48.4966,21.7559,48.4966,48.4966-21.7559,48.4966-48.4966,48.4966Zm0-94.0541c-25.1209,0-45.5574,20.4365-45.5574,45.5574s20.4365,45.5574,45.5574,45.5574,45.5574-20.4365,45.5574-45.5574-20.4365-45.5574-45.5574-45.5574Z"/></g><g><path class="g" d="m77.8885,42.1115c0-12.9861-10.5274-23.5135-23.5135-23.5135s-23.5135,10.5274-23.5135,23.5135c-12.9861,0-23.5135,10.5274-23.5135,23.5135s10.5274,23.5135,23.5135,23.5135c0,12.9861,10.5274,23.5135,23.5135,23.5135s23.5135-10.5274,23.5135-23.5135c12.9861,0,23.5135-10.5274,23.5135-23.5135s-10.5274-23.5135-23.5135-23.5135Z"/><path d="m54.375,114.1216c-13.2962,0-24.2005-10.4402-24.9429-23.5537-13.1135-.7425-23.5537-11.6467-23.5537-24.9429s10.4402-24.2005,23.5537-24.9429c.7425-13.1135,11.6467-23.5537,24.9429-23.5537s24.2005,10.4402,24.9429,23.5537c13.1135.7425,23.5537,11.6467,23.5537,24.9429s-10.4402,24.2005-23.5537,24.9429c-.7425,13.1135-11.6467,23.5537-24.9429,23.5537ZM30.8615,43.5811c-12.1548,0-22.0439,9.8891-22.0439,22.0439s9.8891,22.0439,22.0439,22.0439h1.4696v1.4696c0,12.1548,9.8891,22.0439,22.0439,22.0439s22.0439-9.8891,22.0439-22.0439v-1.4696h1.4696c12.1548,0,22.0439-9.8891,22.0439-22.0439s-9.8891-22.0439-22.0439-22.0439h-1.4696v-1.4696c0-12.1548-9.8891-22.0439-22.0439-22.0439s-22.0439,9.8891-22.0439,22.0439v1.4696h-1.4696Z"/></g><g><path class="d" d="m77.8885,47.9899c-2.7396,0-5.3228.6428-7.6359,1.7575,1.1147-2.3131,1.7575-4.8963,1.7575-7.6359,0-9.7397-7.8955-17.6351-17.6351-17.6351s-17.6351,7.8955-17.6351,17.6351c0,2.7396.6428,5.3228,1.7575,7.6359-2.3131-1.1147-4.8963-1.7575-7.6359-1.7575-9.7396,0-17.6351,7.8955-17.6351,17.6351s7.8955,17.6351,17.6351,17.6351c2.7395,0,5.3228-.6428,7.6359-1.7575-1.1147,2.3131-1.7575,4.8963-1.7575,7.6359,0,9.7396,7.8955,17.6351,17.6351,17.6351s17.6351-7.8955,17.6351-17.6351c0-2.7396-.6428-5.3228-1.7575-7.6359,2.3131,1.1147,4.8964,1.7575,7.6359,1.7575,9.7396,0,17.6351-7.8955,17.6351-17.6351s-7.8955-17.6351-17.6351-17.6351Z"/><path d="m54.375,108.2432c-10.534,0-19.1047-8.5707-19.1047-19.1047,0-1.7413.2363-3.4511.7042-5.113-1.6619.4679-3.3716.7042-5.113.7042-10.534,0-19.1047-8.5707-19.1047-19.1047s8.5707-19.1047,19.1047-19.1047c1.7413,0,3.4511.2363,5.113.7042-.4679-1.6619-.7042-3.3716-.7042-5.113,0-10.534,8.5707-19.1047,19.1047-19.1047s19.1047,8.5707,19.1047,19.1047c0,1.7413-.2363,3.4511-.7042,5.113,1.6619-.4679,3.3716-.7042,5.113-.7042,10.534,0,19.1047,8.5707,19.1047,19.1047s-8.5707,19.1047-19.1047,19.1047c-1.7413,0-3.4511-.2363-5.113-.7042.4679,1.6619.7042,3.3716.7042,5.113,0,10.534-8.5707,19.1047-19.1047,19.1047Zm-16.5157-28.0649l1.9623,1.9623c-1.0697,2.2197-1.6122,4.5743-1.6122,6.9978,0,8.9132,7.2523,16.1655,16.1655,16.1655s16.1655-7.2523,16.1655-16.1655c0-2.4235-.5425-4.7781-1.6122-6.9978l1.9623-1.9623c2.2197,1.0697,4.5743,1.6122,6.9978,1.6122,8.9132,0,16.1655-7.2523,16.1655-16.1655s-7.2523-16.1655-16.1655-16.1655c-2.4235,0-4.7781.5425-6.9978,1.6122l-1.9623-1.9623c1.0697-2.2197,1.6122-4.5743,1.6122-6.9978,0-8.9132-7.2523-16.1655-16.1655-16.1655s-16.1655,7.2523-16.1655,16.1655c0,2.4235.5425,4.7781,1.6122,6.9978l-1.9623,1.9623c-2.2197-1.0697-4.5743-1.6122-6.9978-1.6122-8.9132,0-16.1655,7.2523-16.1655,16.1655s7.2523,16.1655,16.1655,16.1655c2.4235,0,4.7781-.5425,6.9978-1.6122Z"/></g><g><polygon class="e" points="27.6343 75.9122 54.375 33.1274 81.1157 75.9122 27.6343 75.9122"/><path d="m54.375,35.9004l24.0889,38.5422H30.2861l24.0889-38.5422m0-5.5457l-29.3919,47.027h58.7838l-29.3919-47.027h0Z"/></g><g><rect class="g" x="52.9054" y="59.7466" width="2.9392" height="41.1486"/><rect class="g" x="45.5574" y="67.0946" width="17.6351" height="2.9392"/></g><path class="f" d="m55.8446,51.7775s0-2.2044,2.2044-2.9392c-1.4696-1.4696-2.9392-.7348-3.674,0-.7348-.7348-2.2044-1.4696-3.674,0,2.2044.7348,2.2044,2.9392,2.2044,2.9392-1.4696-1.4696-4.4088-1.4696-6.6132,0,2.9392,1.0765,2.2044,5.8784,6.6132,3.674,0,0,0,1.4696,1.4696,2.2044,1.4696-.7348,1.4696-2.2044,1.4696-2.2044,4.4088,2.2044,3.674-2.5974,6.6132-3.674-2.2044-1.4696-5.1436-1.4696-6.6132,0Z"/><g><path class="i" d="m30.1471,18.598H7.348v22.7991c5.0423-9.7671,13.032-17.7568,22.7991-22.7991Z"/><path d="m5.8784,47.4474v-30.319h30.319l-5.3761,2.7756c-9.428,4.8671-17.3003,12.7394-22.1673,22.1673l-2.7756,5.3761Zm2.9392-27.3798v15.8795c4.1371-6.3606,9.5189-11.7424,15.8795-15.8795h-15.8795Z"/></g><g><path class="i" d="m78.6029,18.598h22.7991v22.7991c-5.0423-9.7671-13.032-17.7568-22.7991-22.7991Z"/><path d="m102.8716,47.4474l-2.7756-5.3761c-4.8671-9.428-12.7394-17.3003-22.1673-22.1673l-5.3761-2.7756h30.319v30.319Zm-18.8187-27.3798c6.3606,4.1371,11.7424,9.5189,15.8795,15.8795v-15.8795h-15.8795Z"/></g><g><path class="i" d="m30.1471,112.652H7.348v-22.7991c5.0423,9.7671,13.032,17.7568,22.7991,22.7991Z"/><path d="m36.1974,114.1216H5.8784v-30.319l2.7756,5.3761c4.8671,9.428,12.7394,17.3003,22.1673,22.1673l5.3761,2.7756Zm-27.3798-2.9392h15.8795c-6.3606-4.1371-11.7424-9.5189-15.8795-15.8795v15.8795Z"/></g><g><path class="i" d="m78.6029,112.652h22.7991v-22.7991c-5.0423,9.7671-13.032,17.7568-22.7991,22.7991Z"/><path d="m102.8716,114.1216h-30.319l5.3761-2.7756c9.428-4.8671,17.3003-12.7394,22.1673-22.1673l2.7756-5.3761v30.319Zm-18.8187-2.9392h15.8795v-15.8795c-4.1371,6.3606-9.5189,11.7424-15.8795,15.8795Z"/></g><g><path class="j" d="m68.8433,6.0732c-.4102.1787-.8833.2681-1.4189.2681-.4878,0-.9385-.0767-1.3521-.2295-.4136-.1533-.772-.3701-1.0757-.6504-.3032-.2803-.5415-.6162-.7139-1.0073-.1724-.3911-.2588-.8213-.2588-1.292,0-.4814.0879-.918.2632-1.3091.1758-.3906.418-.7236.7275-.9985.3091-.2749.6724-.4858,1.0889-.6333.4165-.1475.8657-.2212,1.3477-.2212.4463,0,.8848.0752,1.3164.2256.4312.1499.7808.3696,1.0488.6587l-1.0352.9858c-.1431-.187-.3306-.3257-.5625-.4165-.2319-.0903-.4702-.1357-.7139-.1357-.2681,0-.5132.0464-.7363.1401-.2231.0933-.415.2222-.5757.3867s-.2856.3584-.375.582c-.0894.2241-.1338.4692-.1338.7354,0,.272.0444.5215.1338.748.0894.2266.2129.4209.3706.5825.1572.1611.3462.2876.5664.3779.2202.0908.4614.1362.7231.1362.3032,0,.5679-.0566.7944-.1699.2261-.1133.4072-.2607.5444-.4424l1.062.9521c-.2798.3062-.625.5483-1.0356.7266Z"/><path class="j" d="m75.8086,6.1797v-2.5161h-2.4634v2.5161h-1.5264V.1616h1.5264v2.2778h2.4634V.1616h1.5259v6.0181h-1.5259Z"/><path class="j" d="m85.1274,4.9004c-.1279.2974-.311.5527-.5488.7651s-.5249.3779-.8613.4971c-.3359.1191-.7095.1787-1.1201.1787-.4165,0-.791-.0596-1.1245-.1787-.333-.1191-.6157-.2847-.8477-.4971s-.4106-.4678-.5356-.7651-.1875-.6274-.1875-.9902V.1616h1.5176v3.6294c0,.1646.022.3203.0669.4678.0444.1475.1128.2793.2051.395.0923.1162.2144.2085.3662.2764.1514.0679.3345.1021.5488.1021.2139,0,.397-.0342.5488-.1021s.2749-.1602.3701-.2764c.0952-.1157.1636-.2476.2056-.395.0415-.1475.0625-.3032.0625-.4678V.1616h1.5259v3.7485c0,.3628-.064.6929-.1919.9902Z"/><path class="j" d="m91.2598,6.1797l-1.3721-2.3887h-.52v2.3887h-1.4907V.1616h2.4097c.3037,0,.5996.0298.8882.0894.2886.0596.5474.1602.7764.3018s.4121.3286.5493.561c.1367.2324.2051.5215.2051.8667,0,.4082-.1162.751-.3481,1.0288-.2319.2778-.5532.4761-.9639.5947l1.6514,2.5757h-1.7852Zm-.0625-4.1733c0-.1416-.0317-.2563-.0942-.3442-.063-.0879-.1436-.1558-.2422-.2041s-.2095-.0811-.332-.0977c-.1226-.0171-.2407-.0259-.354-.0259h-.8159v1.4028h.7261c.1255,0,.2544-.0098.3857-.0298.1318-.02.251-.0552.3589-.1064.1074-.0508.1958-.1245.2646-.2207.0684-.0967.103-.2212.103-.374Z"/><path class="j" d="m99.5083,6.0732c-.4102.1787-.8833.2681-1.4189.2681-.4878,0-.9385-.0767-1.3521-.2295-.4136-.1533-.772-.3701-1.0757-.6504-.3032-.2803-.5415-.6162-.7139-1.0073s-.2588-.8213-.2588-1.292c0-.4814.0879-.918.2632-1.3091.1758-.3906.418-.7236.7275-.9985.3091-.2749.6724-.4858,1.0889-.6333.4165-.1475.8657-.2212,1.3477-.2212.4463,0,.8848.0752,1.3164.2256.4312.1499.7808.3696,1.0488.6587l-1.0352.9858c-.1431-.187-.3306-.3257-.5625-.4165-.2319-.0903-.4702-.1357-.7139-.1357-.2681,0-.5132.0464-.7363.1401-.2231.0933-.415.2222-.5757.3867s-.2856.3584-.375.582c-.0894.2241-.1338.4692-.1338.7354,0,.272.0444.5215.1338.748.0894.2266.2129.4209.3706.5825.1572.1611.3462.2876.5664.3779.2202.0908.4614.1362.7231.1362.3032,0,.5679-.0566.7944-.1699.2261-.1133.4072-.2607.5444-.4424l1.062.9521c-.2798.3062-.625.5483-1.0356.7266Z"/><path class="j" d="m106.4741,6.1797v-2.5161h-2.4634v2.5161h-1.5264V.1616h1.5264v2.2778h2.4634V.1616h1.5259v6.0181h-1.5259Z"/></g><g><path class="j" d="m3.3115,1.4028v4.7769h-1.5264V1.4028H0V.1616h5.0962v1.2412h-1.7847Z"/><path class="j" d="m11.0498,6.1797v-2.5161h-2.4634v2.5161h-1.5264V.1616h1.5264v2.2778h2.4634V.1616h1.5259v6.0181h-1.5259Z"/><path class="j" d="m15.1899,6.1797V.1616h4.2485v1.2241h-2.7759v1.1392h2.624v1.1641h-2.624v1.2495h2.9365v1.2412h-4.4092Z"/></g><g><path class="j" d="m25.2866,6.1797V.1616h1.5352v4.7515h2.4453v1.2666h-3.9805Z"/><path class="j" d="m31.2402,6.1797V.1616h1.5352v6.0181h-1.5352Z"/><path class="j" d="m38.042,1.4028v4.7769h-1.5264V1.4028h-1.7852V.1616h5.0962v1.2412h-1.7847Z"/><path class="j" d="m44.7832,1.4028v4.7769h-1.5264V1.4028h-1.7852V.1616h5.0962v1.2412h-1.7847Z"/><path class="j" d="m48.5317,6.1797V.1616h1.5352v4.7515h2.4453v1.2666h-3.9805Z"/><path class="j" d="m54.4844,6.1797V.1616h4.2485v1.2241h-2.7759v1.1392h2.624v1.1641h-2.624v1.2495h2.9365v1.2412h-4.4092Z"/></g><g><path class="j" d="m113.8203,17.0605l1.1816-.4907v-2.4458l-1.1816-.4639v-1.6602l6.0181,2.6509v1.4814l-6.0181,2.624v-1.6958Zm4.4116-1.6958l-2.0654-.8032v1.5889l2.0654-.7856Z"/><path class="j" d="m113.8203,23.2231l2.3887-1.3721v-.52h-2.3887v-1.4907h6.0181v2.4097c0,.3037-.0298.5996-.0894.8882-.0596.2886-.1602.5474-.3018.7764s-.3286.4121-.561.5493c-.2324.1367-.5215.2051-.8667.2051-.4082,0-.751-.1162-1.0288-.3481s-.4761-.5532-.5947-.9639l-2.5757,1.6514v-1.7852Zm4.1733-.0625c.1416,0,.2563-.0317.3442-.0942.0879-.063.1558-.1436.2041-.2422s.0811-.2095.0977-.332c.0171-.1226.0259-.2407.0259-.354v-.8159h-1.4028v.7261c0,.1255.0098.2544.0298.3857.02.1318.0552.251.1064.3589.0508.1074.1245.1958.2207.2646.0967.0684.2212.103.374.103Z"/><path class="j" d="m116.855,32.7485c-.4761,0-.9111-.0864-1.3047-.2588-.394-.1729-.7314-.4121-1.0117-.7187-.2803-.3062-.4971-.6709-.6504-1.0933-.1528-.4224-.2295-.8804-.2295-1.3745,0-.4937.0767-.9502.2295-1.3696.1533-.4194.3701-.7827.6504-1.0889.2803-.3066.6177-.5464,1.0117-.7188.3936-.1724.8286-.2588,1.3047-.2588.4814,0,.9165.0864,1.3047.2588s.7183.4121.9902.7188c.272.3062.4814.6694.6289,1.0889.1475.4194.2212.876.2212,1.3696,0,.4941-.0737.9521-.2212,1.3745-.1475.4224-.3569.7871-.6289,1.0933-.272.3066-.6021.5459-.9902.7187-.3882.1724-.8232.2588-1.3047.2588Zm0-1.6333c.2603,0,.5039-.0449.731-.1338.2266-.0894.4204-.2129.582-.3706s.2891-.3481.3828-.5713c.0933-.2231.1401-.4683.1401-.7363,0-.2676-.0469-.5117-.1401-.7319-.0937-.2197-.2212-.4102-.3828-.5708s-.3555-.2842-.582-.3706c-.2271-.0864-.4707-.1294-.731-.1294-.272,0-.5229.0444-.7524.1338s-.4263.2129-.5908.3706-.293.3467-.3867.5664c-.0933.2202-.1401.4644-.1401.7319,0,.2681.0469.5117.1401.7319.0937.2202.2222.4106.3867.5713s.3613.2856.5908.375c.2295.0889.4805.1338.7524.1338Z"/><path class="j" d="m115.0996,39.4102c-.2974-.1279-.5527-.311-.7651-.5488s-.3779-.5249-.4971-.8613c-.1191-.3359-.1787-.7095-.1787-1.1201,0-.4165.0596-.791.1787-1.1245.1191-.333.2847-.6157.4971-.8477s.4678-.4106.7651-.5356.6274-.1875.9902-.1875h3.7485v1.5176h-3.6294c-.1646,0-.3203.022-.4678.0669-.1475.0444-.2793.1128-.395.2051-.1162.0923-.2085.2144-.2764.3662-.0679.1514-.1021.3345-.1021.5488,0,.2139.0342.397.1021.5488.0679.1519.1602.2749.2764.3701.1157.0952.2476.1636.395.2056.1475.0415.3032.0625.4678.0625h3.6294v1.5259h-3.7485c-.3628,0-.6929-.064-.9902-.1919Z"/><path class="j" d="m113.8203,45.3892l3.9355-2.5439v-.0269l-3.9355.0361v-1.4819h6.0181v1.7407l-3.9272,2.5347v.0269l3.9272-.0361v1.4819h-6.0181v-1.7314Z"/><path class="j" d="m116.8462,54.8447c-.5269,0-.9814-.1025-1.3643-.3076-.3823-.2056-.6968-.4761-.9434-.8125-.2466-.3359-.4277-.7153-.5439-1.1377-.1162-.4224-.1743-.8511-.1743-1.2852v-2.3564h6.0181v2.2852c0,.4463-.0498.8862-.1489,1.3208-.0991.4341-.2632.8208-.4927,1.1602-.2295.3394-.5371.6128-.9224.8213-.3857.208-.8613.312-1.4282.312Zm0-1.5884c.3403,0,.6221-.0581.8457-.1743.2241-.1157.4023-.2705.5356-.4639s.228-.4136.2847-.6606c.0566-.2471.085-.501.085-.7632v-.7583h-3.519v.7227c0,.2739.0298.5371.0894.79.0596.2529.1572.4761.2935.6694.1357.1934.3174.3481.5439.4639.2266.1162.5068.1743.8413.1743Z"/></g><g><path class="j" d="m113.9268,84.749c-.1787-.4102-.2681-.8833-.2681-1.4189,0-.4878.0767-.9385.2295-1.3521.1533-.4136.3701-.772.6504-1.0757.2803-.3032.6162-.5415,1.0073-.7139s.8213-.2588,1.292-.2588c.4814,0,.918.0879,1.3091.2632.3906.1758.7236.418.9985.7275.2749.3091.4858.6724.6333,1.0889.1475.4165.2212.8657.2212,1.3477,0,.4463-.0752.8848-.2256,1.3164-.1499.4312-.3696.7808-.6587,1.0488l-.9858-1.0352c.187-.1431.3257-.3306.4165-.5625.0903-.2319.1357-.4702.1357-.7139,0-.2681-.0464-.5132-.1401-.7363-.0933-.2231-.2222-.415-.3867-.5757-.1646-.1606-.3584-.2856-.582-.375-.2241-.0894-.4692-.1338-.7354-.1338-.272,0-.5215.0444-.748.1338-.2266.0894-.4209.2129-.5825.3706-.1611.1572-.2876.3462-.3779.5664-.0908.2202-.1362.4614-.1362.7231,0,.3032.0566.5679.1699.7944.1133.2261.2607.4072.4424.5444l-.9521,1.062c-.3062-.2798-.5483-.625-.7266-1.0356Z"/><path class="j" d="m116.855,93.3535c-.4761,0-.9111-.0864-1.3047-.2588-.394-.1729-.7314-.4121-1.0117-.7188-.2803-.3062-.4971-.6709-.6504-1.0933-.1528-.4224-.2295-.8804-.2295-1.3745,0-.4937.0767-.9502.2295-1.3696.1533-.4194.3701-.7827.6504-1.0889.2803-.3066.6177-.5464,1.0117-.7188.3936-.1724.8286-.2588,1.3047-.2588.4814,0,.9165.0864,1.3047.2588s.7183.4121.9902.7188c.272.3062.4814.6694.6289,1.0889.1475.4194.2212.876.2212,1.3696,0,.4941-.0737.9521-.2212,1.3745-.1475.4224-.3569.7871-.6289,1.0933-.272.3066-.6021.5459-.9902.7188-.3882.1724-.8232.2588-1.3047.2588Zm0-1.6333c.2603,0,.5039-.0449.731-.1338.2266-.0894.4204-.2129.582-.3706s.2891-.3481.3828-.5713c.0933-.2231.1401-.4683.1401-.7363,0-.2676-.0469-.5117-.1401-.7319-.0937-.2197-.2212-.4102-.3828-.5708s-.3555-.2842-.582-.3706c-.2271-.0864-.4707-.1294-.731-.1294-.272,0-.5229.0444-.7524.1338s-.4263.2129-.5908.3706-.293.3467-.3867.5664c-.0933.2202-.1401.4644-.1401.7319,0,.2681.0469.5117.1401.7319.0937.2202.2222.4106.3867.5713s.3613.2856.5908.375c.2295.0889.4805.1338.7524.1338Z"/><path class="j" d="m113.8203,98.2407l2.3887-1.3721v-.52h-2.3887v-1.4907h6.0181v2.4097c0,.3037-.0298.5996-.0894.8882-.0596.2886-.1602.5474-.3018.7764s-.3286.4121-.561.5493c-.2324.1367-.5215.2051-.8667.2051-.4082,0-.751-.1162-1.0288-.3481s-.4761-.5532-.5947-.9639l-2.5757,1.6514v-1.7852Zm4.1733-.0625c.1416,0,.2563-.0317.3442-.0942.0879-.063.1558-.1436.2041-.2422s.0811-.2095.0977-.332c.0171-.1226.0259-.2407.0259-.354v-.8159h-1.4028v.7261c0,.1255.0098.2544.0298.3857.02.1318.0552.251.1064.3589.0508.1074.1245.1958.2207.2646.0967.0684.2212.103.374.103Z"/><path class="j" d="m113.8203,105.2876l3.9355-2.5439v-.0269l-3.9355.0361v-1.4819h6.0181v1.7407l-3.9272,2.5347v.0269l3.9272-.0361v1.4819h-6.0181v-1.7314Z"/><path class="j" d="m113.8203,108.8442h6.0181v4.2485h-1.2241v-2.7759h-1.1392v2.624h-1.1641v-2.624h-1.2495v2.9365h-1.2412v-4.4092Z"/><path class="j" d="m113.8203,118.2148l2.3887-1.3721v-.52h-2.3887v-1.4907h6.0181v2.4097c0,.3037-.0298.5996-.0894.8882-.0596.2886-.1602.5474-.3018.7764s-.3286.4121-.561.5493c-.2324.1367-.5215.2051-.8667.2051-.4082,0-.751-.1162-1.0288-.3481-.2778-.232-.4761-.5532-.5947-.9639l-2.5757,1.6514v-1.7852Zm4.1733-.0625c.1416,0,.2563-.0317.3442-.0942.0879-.063.1558-.1436.2041-.2422s.0811-.2095.0977-.332c.0171-.1226.0259-.2407.0259-.354v-.8159h-1.4028v.7261c0,.1255.0098.2544.0298.3857.02.1318.0552.251.1064.3589.0508.1074.1245.1958.2207.2646.0967.0684.2212.103.374.103Z"/></g><g><path class="j" d="m118.5972,61.5115h-4.7769v-1.5264h4.7769v-1.7852h1.2412v5.0962h-1.2412v-1.7847Z"/><path class="j" d="m113.8203,68.4646h2.5161v-2.4634h-2.5161v-1.5264h6.0181v1.5264h-2.2778v2.4634h2.2778v1.5259h-6.0181v-1.5259Z"/><path class="j" d="m113.8203,71.8191h6.0181v4.2485h-1.2241v-2.7759h-1.1392v2.624h-1.1641v-2.624h-1.2495v2.9365h-1.2412v-4.4092Z"/></g></g></svg>